G04 #@! TF.GenerationSoftware,KiCad,Pcbnew,(6.0.8-1)-1*
G04 #@! TF.CreationDate,2022-11-09T18:22:42-06:00*
G04 #@! TF.ProjectId,q2,71322e6b-6963-4616-945f-706362585858,rev?*
G04 #@! TF.SameCoordinates,Original*
G04 #@! TF.FileFunction,Soldermask,Top*
G04 #@! TF.FilePolarity,Negative*
%FSLAX46Y46*%
G04 Gerber Fmt 4.6, Leading zero omitted, Abs format (unit mm)*
G04 Created by KiCad (PCBNEW (6.0.8-1)-1) date 2022-11-09 18:22:42*
%MOMM*%
%LPD*%
G01*
G04 APERTURE LIST*
G04 Aperture macros list*
%AMRoundRect*
0 Rectangle with rounded corners*
0 $1 Rounding radius*
0 $2 $3 $4 $5 $6 $7 $8 $9 X,Y pos of 4 corners*
0 Add a 4 corners polygon primitive as box body*
4,1,4,$2,$3,$4,$5,$6,$7,$8,$9,$2,$3,0*
0 Add four circle primitives for the rounded corners*
1,1,$1+$1,$2,$3*
1,1,$1+$1,$4,$5*
1,1,$1+$1,$6,$7*
1,1,$1+$1,$8,$9*
0 Add four rect primitives between the rounded corners*
20,1,$1+$1,$2,$3,$4,$5,0*
20,1,$1+$1,$4,$5,$6,$7,0*
20,1,$1+$1,$6,$7,$8,$9,0*
20,1,$1+$1,$8,$9,$2,$3,0*%
G04 Aperture macros list end*
%ADD10RoundRect,0.250000X-0.475000X0.250000X-0.475000X-0.250000X0.475000X-0.250000X0.475000X0.250000X0*%
%ADD11RoundRect,0.250000X-0.250000X-0.475000X0.250000X-0.475000X0.250000X0.475000X-0.250000X0.475000X0*%
%ADD12RoundRect,0.250000X0.475000X-0.250000X0.475000X0.250000X-0.475000X0.250000X-0.475000X-0.250000X0*%
%ADD13RoundRect,0.250000X0.250000X0.475000X-0.250000X0.475000X-0.250000X-0.475000X0.250000X-0.475000X0*%
%ADD14RoundRect,0.243750X-0.243750X-0.456250X0.243750X-0.456250X0.243750X0.456250X-0.243750X0.456250X0*%
%ADD15RoundRect,0.243750X0.243750X0.456250X-0.243750X0.456250X-0.243750X-0.456250X0.243750X-0.456250X0*%
%ADD16R,1.200000X0.900000*%
%ADD17R,0.900000X1.200000*%
%ADD18C,3.000000*%
%ADD19R,1.800000X2.600000*%
%ADD20O,1.800000X2.600000*%
%ADD21RoundRect,0.250000X-0.600000X-0.600000X0.600000X-0.600000X0.600000X0.600000X-0.600000X0.600000X0*%
%ADD22C,1.700000*%
%ADD23R,1.700000X1.700000*%
%ADD24C,3.500000*%
%ADD25R,0.900000X0.800000*%
%ADD26RoundRect,0.200000X0.200000X0.275000X-0.200000X0.275000X-0.200000X-0.275000X0.200000X-0.275000X0*%
%ADD27RoundRect,0.200000X-0.275000X0.200000X-0.275000X-0.200000X0.275000X-0.200000X0.275000X0.200000X0*%
%ADD28RoundRect,0.200000X0.275000X-0.200000X0.275000X0.200000X-0.275000X0.200000X-0.275000X-0.200000X0*%
%ADD29R,1.550000X1.300000*%
%ADD30C,0.800000*%
%ADD31C,6.400000*%
%ADD32C,0.900000*%
%ADD33R,0.800000X1.000000*%
%ADD34R,1.500000X0.700000*%
%ADD35R,0.800000X0.900000*%
%ADD36RoundRect,0.200000X-0.200000X-0.275000X0.200000X-0.275000X0.200000X0.275000X-0.200000X0.275000X0*%
%ADD37C,2.000000*%
%ADD38RoundRect,0.150000X-0.850000X-0.150000X0.850000X-0.150000X0.850000X0.150000X-0.850000X0.150000X0*%
%ADD39RoundRect,0.150000X-0.750000X-0.150000X0.750000X-0.150000X0.750000X0.150000X-0.750000X0.150000X0*%
%ADD40C,2.151380*%
%ADD41C,1.440000*%
%ADD42RoundRect,0.250000X0.625000X-0.312500X0.625000X0.312500X-0.625000X0.312500X-0.625000X-0.312500X0*%
%ADD43O,1.700000X1.700000*%
G04 APERTURE END LIST*
D10*
X65800000Y-66900000D03*
X65800000Y-68800000D03*
X79700000Y-66950000D03*
X79700000Y-68850000D03*
X93800000Y-66950000D03*
X93800000Y-68850000D03*
X107800000Y-66950000D03*
X107800000Y-68850000D03*
X121800000Y-66950000D03*
X121800000Y-68850000D03*
X163950000Y-66800000D03*
X163950000Y-68700000D03*
X177950000Y-66900000D03*
X177950000Y-68800000D03*
X205950000Y-66900000D03*
X205950000Y-68800000D03*
X219950000Y-66900000D03*
X219950000Y-68800000D03*
D11*
X208750000Y-227800000D03*
X210650000Y-227800000D03*
X227050000Y-227700000D03*
X228950000Y-227700000D03*
D12*
X231890000Y-229750000D03*
X231890000Y-227850000D03*
D10*
X191950000Y-66900000D03*
X191950000Y-68800000D03*
X58700000Y-286150000D03*
X58700000Y-288050000D03*
D11*
X224020000Y-54370000D03*
X225920000Y-54370000D03*
X57850000Y-194800000D03*
X59750000Y-194800000D03*
D13*
X159250000Y-285600000D03*
X157350000Y-285600000D03*
D10*
X150030000Y-66920000D03*
X150030000Y-68820000D03*
X135950000Y-66900000D03*
X135950000Y-68800000D03*
D14*
X61462500Y-52600000D03*
X63337500Y-52600000D03*
X61447440Y-79712301D03*
X63322440Y-79712301D03*
X61537440Y-128972301D03*
X63412440Y-128972301D03*
X61587440Y-175272301D03*
X63462440Y-175272301D03*
X75417440Y-52592301D03*
X77292440Y-52592301D03*
X75407440Y-79712301D03*
X77282440Y-79712301D03*
X75557440Y-128992301D03*
X77432440Y-128992301D03*
X75587500Y-175275000D03*
X77462500Y-175275000D03*
X89427440Y-128982301D03*
X91302440Y-128982301D03*
X89457500Y-175265000D03*
X91332500Y-175265000D03*
X103402500Y-129000000D03*
X105277500Y-129000000D03*
X103432560Y-175282699D03*
X105307560Y-175282699D03*
X117402500Y-129000000D03*
X119277500Y-129000000D03*
X117432560Y-175282699D03*
X119307560Y-175282699D03*
X159462500Y-52500000D03*
X161337500Y-52500000D03*
X159462500Y-128900000D03*
X161337500Y-128900000D03*
X159462500Y-79600000D03*
X161337500Y-79600000D03*
X159512500Y-175150000D03*
X161387500Y-175150000D03*
X173462500Y-52600000D03*
X175337500Y-52600000D03*
X173462500Y-129000000D03*
X175337500Y-129000000D03*
X173462500Y-79700000D03*
X175337500Y-79700000D03*
X173512500Y-175250000D03*
X175387500Y-175250000D03*
X201462500Y-52600000D03*
X203337500Y-52600000D03*
X201462500Y-129000000D03*
X203337500Y-129000000D03*
X201462500Y-79700000D03*
X203337500Y-79700000D03*
X201512500Y-175250000D03*
X203387500Y-175250000D03*
X215462500Y-52600000D03*
X217337500Y-52600000D03*
X215462500Y-129000000D03*
X217337500Y-129000000D03*
X215462500Y-79700000D03*
X217337500Y-79700000D03*
X215512500Y-175250000D03*
X217387500Y-175250000D03*
D15*
X152737500Y-296300000D03*
X150862500Y-296300000D03*
D16*
X239525000Y-227775000D03*
X239525000Y-231075000D03*
X236925000Y-227825000D03*
X236925000Y-231125000D03*
D17*
X68550000Y-250200000D03*
X71850000Y-250200000D03*
D14*
X187462500Y-52600000D03*
X189337500Y-52600000D03*
X187462500Y-129000000D03*
X189337500Y-129000000D03*
X187462500Y-79700000D03*
X189337500Y-79700000D03*
X187512500Y-175250000D03*
X189387500Y-175250000D03*
D17*
X225750000Y-148800000D03*
X229050000Y-148800000D03*
D14*
X145542500Y-52620000D03*
X147417500Y-52620000D03*
X145542500Y-129020000D03*
X147417500Y-129020000D03*
X145542500Y-79720000D03*
X147417500Y-79720000D03*
X145592500Y-175270000D03*
X147467500Y-175270000D03*
X131462500Y-52600000D03*
X133337500Y-52600000D03*
X131462500Y-129000000D03*
X133337500Y-129000000D03*
X131462500Y-79700000D03*
X133337500Y-79700000D03*
X131512500Y-175250000D03*
X133387500Y-175250000D03*
D18*
X168500900Y-290000700D03*
X168500900Y-259000000D03*
X243499480Y-290000700D03*
X243500000Y-259000000D03*
D19*
X174000000Y-259000000D03*
D20*
X176540000Y-259000000D03*
X179080000Y-259000000D03*
X181620000Y-259000000D03*
X184160000Y-259000000D03*
X186700000Y-259000000D03*
X189240000Y-259000000D03*
X191780000Y-259000000D03*
X194320000Y-259000000D03*
X196860000Y-259000000D03*
X199400000Y-259000000D03*
X201940000Y-259000000D03*
X204480000Y-259000000D03*
X207020000Y-259000000D03*
X209560000Y-259000000D03*
X212100000Y-259000000D03*
D21*
X55600000Y-231200000D03*
D22*
X58140000Y-231200000D03*
X55600000Y-233740000D03*
X58140000Y-233740000D03*
X55600000Y-236280000D03*
X58140000Y-236280000D03*
X55600000Y-238820000D03*
X58140000Y-238820000D03*
X55600000Y-241360000D03*
X58140000Y-241360000D03*
X55600000Y-243900000D03*
X58140000Y-243900000D03*
X55600000Y-246440000D03*
X58140000Y-246440000D03*
X55600000Y-248980000D03*
X58140000Y-248980000D03*
X55600000Y-251520000D03*
X58140000Y-251520000D03*
X55600000Y-254060000D03*
X58140000Y-254060000D03*
X55600000Y-256600000D03*
X58140000Y-256600000D03*
X55600000Y-259140000D03*
X58140000Y-259140000D03*
X55600000Y-261680000D03*
X58140000Y-261680000D03*
X55600000Y-264220000D03*
X58140000Y-264220000D03*
X55600000Y-266760000D03*
X58140000Y-266760000D03*
X55600000Y-269300000D03*
X58140000Y-269300000D03*
X55600000Y-271840000D03*
X58140000Y-271840000D03*
X55600000Y-274380000D03*
X58140000Y-274380000D03*
X55600000Y-276920000D03*
X58140000Y-276920000D03*
X55600000Y-279460000D03*
X58140000Y-279460000D03*
D23*
X230000000Y-50500000D03*
D22*
X232500000Y-50500000D03*
X232500000Y-48500000D03*
X230000000Y-48500000D03*
D24*
X225230000Y-45790000D03*
X237270000Y-45790000D03*
D25*
X61500000Y-189550000D03*
X61500000Y-191450000D03*
X63500000Y-190500000D03*
X57800000Y-189550000D03*
X57800000Y-191450000D03*
X59800000Y-190500000D03*
X61400000Y-66850000D03*
X61400000Y-68750000D03*
X63400000Y-67800000D03*
X57700000Y-66850000D03*
X57700000Y-68750000D03*
X59700000Y-67800000D03*
X61400000Y-44050000D03*
X61400000Y-45950000D03*
X63400000Y-45000000D03*
X61400000Y-55450000D03*
X61400000Y-57350000D03*
X63400000Y-56400000D03*
X57700000Y-55450000D03*
X57700000Y-57350000D03*
X59700000Y-56400000D03*
X57700000Y-44050000D03*
X57700000Y-45950000D03*
X59700000Y-45000000D03*
X61400000Y-47850000D03*
X61400000Y-49750000D03*
X63400000Y-48800000D03*
X61400000Y-59250000D03*
X61400000Y-61150000D03*
X63400000Y-60200000D03*
X57700000Y-51650000D03*
X57700000Y-53550000D03*
X59700000Y-52600000D03*
X57700000Y-47850000D03*
X57700000Y-49750000D03*
X59700000Y-48800000D03*
X57700000Y-59250000D03*
X57700000Y-61150000D03*
X59700000Y-60200000D03*
X61400000Y-63050000D03*
X61400000Y-64950000D03*
X63400000Y-64000000D03*
X57700000Y-63050000D03*
X57700000Y-64950000D03*
X59700000Y-64000000D03*
X61400000Y-112550000D03*
X61400000Y-114450000D03*
X63400000Y-113500000D03*
X61400000Y-93850000D03*
X61400000Y-95750000D03*
X63400000Y-94800000D03*
X61400000Y-108850000D03*
X61400000Y-110750000D03*
X63400000Y-109800000D03*
X61400000Y-105050000D03*
X61400000Y-106950000D03*
X63400000Y-106000000D03*
X61400000Y-97550000D03*
X61400000Y-99450000D03*
X63400000Y-98500000D03*
X57800000Y-112550000D03*
X57800000Y-114450000D03*
X59800000Y-113500000D03*
X57800000Y-108850000D03*
X57800000Y-110750000D03*
X59800000Y-109800000D03*
X57800000Y-105050000D03*
X57800000Y-106950000D03*
X59800000Y-106000000D03*
X57800000Y-97550000D03*
X57800000Y-99450000D03*
X59800000Y-98500000D03*
X57800000Y-116350000D03*
X57800000Y-118250000D03*
X59800000Y-117300000D03*
X57800000Y-101250000D03*
X57800000Y-103150000D03*
X59800000Y-102200000D03*
X61384940Y-71162301D03*
X61384940Y-73062301D03*
X63384940Y-72112301D03*
X61384940Y-82562301D03*
X61384940Y-84462301D03*
X63384940Y-83512301D03*
X57684940Y-82562301D03*
X57684940Y-84462301D03*
X59684940Y-83512301D03*
X57684940Y-71162301D03*
X57684940Y-73062301D03*
X59684940Y-72112301D03*
X61384940Y-74962301D03*
X61384940Y-76862301D03*
X63384940Y-75912301D03*
X61384940Y-86362301D03*
X61384940Y-88262301D03*
X63384940Y-87312301D03*
X57684940Y-78762301D03*
X57684940Y-80662301D03*
X59684940Y-79712301D03*
X57684940Y-74962301D03*
X57684940Y-76862301D03*
X59684940Y-75912301D03*
X57684940Y-86362301D03*
X57684940Y-88262301D03*
X59684940Y-87312301D03*
X61384940Y-90162301D03*
X61384940Y-92062301D03*
X63384940Y-91112301D03*
X57684940Y-90162301D03*
X57684940Y-92062301D03*
X59684940Y-91112301D03*
X61500000Y-143250000D03*
X61500000Y-145150000D03*
X63500000Y-144200000D03*
X57800000Y-143250000D03*
X57800000Y-145150000D03*
X59800000Y-144200000D03*
X61500000Y-154650000D03*
X61500000Y-156550000D03*
X63500000Y-155600000D03*
X61500000Y-158450000D03*
X61500000Y-160350000D03*
X63500000Y-159400000D03*
X61500000Y-150850000D03*
X61500000Y-152750000D03*
X63500000Y-151800000D03*
X61500000Y-147050000D03*
X61500000Y-148950000D03*
X63500000Y-148000000D03*
X57800000Y-158450000D03*
X57800000Y-160350000D03*
X59800000Y-159400000D03*
X57800000Y-154650000D03*
X57800000Y-156550000D03*
X59800000Y-155600000D03*
X57800000Y-150850000D03*
X57800000Y-152750000D03*
X59800000Y-151800000D03*
X57800000Y-147050000D03*
X57800000Y-148950000D03*
X59800000Y-148000000D03*
X57800000Y-162250000D03*
X57800000Y-164150000D03*
X59800000Y-163200000D03*
X61474940Y-120422301D03*
X61474940Y-122322301D03*
X63474940Y-121372301D03*
X61474940Y-131822301D03*
X61474940Y-133722301D03*
X63474940Y-132772301D03*
X57774940Y-131822301D03*
X57774940Y-133722301D03*
X59774940Y-132772301D03*
X57774940Y-120422301D03*
X57774940Y-122322301D03*
X59774940Y-121372301D03*
X61474940Y-124222301D03*
X61474940Y-126122301D03*
X63474940Y-125172301D03*
X61474940Y-135622301D03*
X61474940Y-137522301D03*
X63474940Y-136572301D03*
X57774940Y-128022301D03*
X57774940Y-129922301D03*
X59774940Y-128972301D03*
X57774940Y-124222301D03*
X57774940Y-126122301D03*
X59774940Y-125172301D03*
X57774940Y-135622301D03*
X57774940Y-137522301D03*
X59774940Y-136572301D03*
X61474940Y-139422301D03*
X61474940Y-141322301D03*
X63474940Y-140372301D03*
X57774940Y-139422301D03*
X57774940Y-141322301D03*
X59774940Y-140372301D03*
X61524940Y-166722301D03*
X61524940Y-168622301D03*
X63524940Y-167672301D03*
X61524940Y-178122301D03*
X61524940Y-180022301D03*
X63524940Y-179072301D03*
X57824940Y-166722301D03*
X57824940Y-168622301D03*
X59824940Y-167672301D03*
X61524940Y-170522301D03*
X61524940Y-172422301D03*
X63524940Y-171472301D03*
X61524940Y-181922301D03*
X61524940Y-183822301D03*
X63524940Y-182872301D03*
X57824940Y-174322301D03*
X57824940Y-176222301D03*
X59824940Y-175272301D03*
X57824940Y-170522301D03*
X57824940Y-172422301D03*
X59824940Y-171472301D03*
X57824940Y-181922301D03*
X57824940Y-183822301D03*
X59824940Y-182872301D03*
X61524940Y-185722301D03*
X61524940Y-187622301D03*
X63524940Y-186672301D03*
X57824940Y-185722301D03*
X57824940Y-187622301D03*
X59824940Y-186672301D03*
X75550000Y-189500000D03*
X75550000Y-191400000D03*
X77550000Y-190450000D03*
X71800000Y-189500000D03*
X71800000Y-191400000D03*
X73800000Y-190450000D03*
X71654940Y-66842301D03*
X71654940Y-68742301D03*
X73654940Y-67792301D03*
X75354940Y-44042301D03*
X75354940Y-45942301D03*
X77354940Y-44992301D03*
X75354940Y-55442301D03*
X75354940Y-57342301D03*
X77354940Y-56392301D03*
X71654940Y-55442301D03*
X71654940Y-57342301D03*
X73654940Y-56392301D03*
X71654940Y-44042301D03*
X71654940Y-45942301D03*
X73654940Y-44992301D03*
X75354940Y-47842301D03*
X75354940Y-49742301D03*
X77354940Y-48792301D03*
X75354940Y-59242301D03*
X75354940Y-61142301D03*
X77354940Y-60192301D03*
X71654940Y-51642301D03*
X71654940Y-53542301D03*
X73654940Y-52592301D03*
X71654940Y-47842301D03*
X71654940Y-49742301D03*
X73654940Y-48792301D03*
X71654940Y-59242301D03*
X71654940Y-61142301D03*
X73654940Y-60192301D03*
X75354940Y-63042301D03*
X75354940Y-64942301D03*
X77354940Y-63992301D03*
X71654940Y-63042301D03*
X71654940Y-64942301D03*
X73654940Y-63992301D03*
X75360000Y-112550000D03*
X75360000Y-114450000D03*
X77360000Y-113500000D03*
X75360000Y-93850000D03*
X75360000Y-95750000D03*
X77360000Y-94800000D03*
X75360000Y-108850000D03*
X75360000Y-110750000D03*
X77360000Y-109800000D03*
X75360000Y-105050000D03*
X75360000Y-106950000D03*
X77360000Y-106000000D03*
X75360000Y-97550000D03*
X75360000Y-99450000D03*
X77360000Y-98500000D03*
X71760000Y-112550000D03*
X71760000Y-114450000D03*
X73760000Y-113500000D03*
X71760000Y-108850000D03*
X71760000Y-110750000D03*
X73760000Y-109800000D03*
X71760000Y-105050000D03*
X71760000Y-106950000D03*
X73760000Y-106000000D03*
X71760000Y-97550000D03*
X71760000Y-99450000D03*
X73760000Y-98500000D03*
X71760000Y-116350000D03*
X71760000Y-118250000D03*
X73760000Y-117300000D03*
X71760000Y-101250000D03*
X71760000Y-103150000D03*
X73760000Y-102200000D03*
X75344940Y-71162301D03*
X75344940Y-73062301D03*
X77344940Y-72112301D03*
X75344940Y-82562301D03*
X75344940Y-84462301D03*
X77344940Y-83512301D03*
X71644940Y-82562301D03*
X71644940Y-84462301D03*
X73644940Y-83512301D03*
X71644940Y-71162301D03*
X71644940Y-73062301D03*
X73644940Y-72112301D03*
X75344940Y-74962301D03*
X75344940Y-76862301D03*
X77344940Y-75912301D03*
X75344940Y-86362301D03*
X75344940Y-88262301D03*
X77344940Y-87312301D03*
X71644940Y-78762301D03*
X71644940Y-80662301D03*
X73644940Y-79712301D03*
X71644940Y-74962301D03*
X71644940Y-76862301D03*
X73644940Y-75912301D03*
X71644940Y-86362301D03*
X71644940Y-88262301D03*
X73644940Y-87312301D03*
X75344940Y-90162301D03*
X75344940Y-92062301D03*
X77344940Y-91112301D03*
X71644940Y-90162301D03*
X71644940Y-92062301D03*
X73644940Y-91112301D03*
X75520000Y-143270000D03*
X75520000Y-145170000D03*
X77520000Y-144220000D03*
X71820000Y-143270000D03*
X71820000Y-145170000D03*
X73820000Y-144220000D03*
X75520000Y-154670000D03*
X75520000Y-156570000D03*
X77520000Y-155620000D03*
X75520000Y-158470000D03*
X75520000Y-160370000D03*
X77520000Y-159420000D03*
X75520000Y-150870000D03*
X75520000Y-152770000D03*
X77520000Y-151820000D03*
X75520000Y-147070000D03*
X75520000Y-148970000D03*
X77520000Y-148020000D03*
X71820000Y-158470000D03*
X71820000Y-160370000D03*
X73820000Y-159420000D03*
X71820000Y-154670000D03*
X71820000Y-156570000D03*
X73820000Y-155620000D03*
X71820000Y-150870000D03*
X71820000Y-152770000D03*
X73820000Y-151820000D03*
X71820000Y-147070000D03*
X71820000Y-148970000D03*
X73820000Y-148020000D03*
X71820000Y-162270000D03*
X71820000Y-164170000D03*
X73820000Y-163220000D03*
X75494940Y-120442301D03*
X75494940Y-122342301D03*
X77494940Y-121392301D03*
X75494940Y-131842301D03*
X75494940Y-133742301D03*
X77494940Y-132792301D03*
X71794940Y-131842301D03*
X71794940Y-133742301D03*
X73794940Y-132792301D03*
X71794940Y-120442301D03*
X71794940Y-122342301D03*
X73794940Y-121392301D03*
X75494940Y-124242301D03*
X75494940Y-126142301D03*
X77494940Y-125192301D03*
X75494940Y-135642301D03*
X75494940Y-137542301D03*
X77494940Y-136592301D03*
X71794940Y-128042301D03*
X71794940Y-129942301D03*
X73794940Y-128992301D03*
X71794940Y-124242301D03*
X71794940Y-126142301D03*
X73794940Y-125192301D03*
X71794940Y-135642301D03*
X71794940Y-137542301D03*
X73794940Y-136592301D03*
X75494940Y-139442301D03*
X75494940Y-141342301D03*
X77494940Y-140392301D03*
X71794940Y-139442301D03*
X71794940Y-141342301D03*
X73794940Y-140392301D03*
X75525000Y-166725000D03*
X75525000Y-168625000D03*
X77525000Y-167675000D03*
X75525000Y-178125000D03*
X75525000Y-180025000D03*
X77525000Y-179075000D03*
X71825000Y-178125000D03*
X71825000Y-180025000D03*
X73825000Y-179075000D03*
X71825000Y-166725000D03*
X71825000Y-168625000D03*
X73825000Y-167675000D03*
X75525000Y-170525000D03*
X75525000Y-172425000D03*
X77525000Y-171475000D03*
X75525000Y-181925000D03*
X75525000Y-183825000D03*
X77525000Y-182875000D03*
X71825000Y-174325000D03*
X71825000Y-176225000D03*
X73825000Y-175275000D03*
X71825000Y-170525000D03*
X71825000Y-172425000D03*
X73825000Y-171475000D03*
X71825000Y-181925000D03*
X71825000Y-183825000D03*
X73825000Y-182875000D03*
X75525000Y-185725000D03*
X75525000Y-187625000D03*
X77525000Y-186675000D03*
X71825000Y-185725000D03*
X71825000Y-187625000D03*
X73825000Y-186675000D03*
X89400000Y-189550000D03*
X89400000Y-191450000D03*
X91400000Y-190500000D03*
X85700000Y-189500000D03*
X85700000Y-191400000D03*
X87700000Y-190450000D03*
X89390000Y-143260000D03*
X89390000Y-145160000D03*
X91390000Y-144210000D03*
X85690000Y-143260000D03*
X85690000Y-145160000D03*
X87690000Y-144210000D03*
X89390000Y-154660000D03*
X89390000Y-156560000D03*
X91390000Y-155610000D03*
X89390000Y-158460000D03*
X89390000Y-160360000D03*
X91390000Y-159410000D03*
X89390000Y-150860000D03*
X89390000Y-152760000D03*
X91390000Y-151810000D03*
X89390000Y-147060000D03*
X89390000Y-148960000D03*
X91390000Y-148010000D03*
X85690000Y-158460000D03*
X85690000Y-160360000D03*
X87690000Y-159410000D03*
X85690000Y-154660000D03*
X85690000Y-156560000D03*
X87690000Y-155610000D03*
X85690000Y-150860000D03*
X85690000Y-152760000D03*
X87690000Y-151810000D03*
X85690000Y-147060000D03*
X85690000Y-148960000D03*
X87690000Y-148010000D03*
X85690000Y-162260000D03*
X85690000Y-164160000D03*
X87690000Y-163210000D03*
X89364940Y-120432301D03*
X89364940Y-122332301D03*
X91364940Y-121382301D03*
X89364940Y-131832301D03*
X89364940Y-133732301D03*
X91364940Y-132782301D03*
X85664940Y-131832301D03*
X85664940Y-133732301D03*
X87664940Y-132782301D03*
X85664940Y-120432301D03*
X85664940Y-122332301D03*
X87664940Y-121382301D03*
X89364940Y-124232301D03*
X89364940Y-126132301D03*
X91364940Y-125182301D03*
X89364940Y-135632301D03*
X89364940Y-137532301D03*
X91364940Y-136582301D03*
X85664940Y-128032301D03*
X85664940Y-129932301D03*
X87664940Y-128982301D03*
X85664940Y-124232301D03*
X85664940Y-126132301D03*
X87664940Y-125182301D03*
X85664940Y-135632301D03*
X85664940Y-137532301D03*
X87664940Y-136582301D03*
X89364940Y-139432301D03*
X89364940Y-141332301D03*
X91364940Y-140382301D03*
X85664940Y-139432301D03*
X85664940Y-141332301D03*
X87664940Y-140382301D03*
X89395000Y-166715000D03*
X89395000Y-168615000D03*
X91395000Y-167665000D03*
X89395000Y-178115000D03*
X89395000Y-180015000D03*
X91395000Y-179065000D03*
X85695000Y-178115000D03*
X85695000Y-180015000D03*
X87695000Y-179065000D03*
X85695000Y-166715000D03*
X85695000Y-168615000D03*
X87695000Y-167665000D03*
X89395000Y-170515000D03*
X89395000Y-172415000D03*
X91395000Y-171465000D03*
X89395000Y-181915000D03*
X89395000Y-183815000D03*
X91395000Y-182865000D03*
X85695000Y-174315000D03*
X85695000Y-176215000D03*
X87695000Y-175265000D03*
X85695000Y-170515000D03*
X85695000Y-172415000D03*
X87695000Y-171465000D03*
X85695000Y-181915000D03*
X85695000Y-183815000D03*
X87695000Y-182865000D03*
X89395000Y-185715000D03*
X89395000Y-187615000D03*
X91395000Y-186665000D03*
X85695000Y-185715000D03*
X85695000Y-187615000D03*
X87695000Y-186665000D03*
X103350000Y-189500000D03*
X103350000Y-191400000D03*
X105350000Y-190450000D03*
X99700000Y-189500000D03*
X99700000Y-191400000D03*
X101700000Y-190450000D03*
X103365060Y-143277699D03*
X103365060Y-145177699D03*
X105365060Y-144227699D03*
X99665060Y-143277699D03*
X99665060Y-145177699D03*
X101665060Y-144227699D03*
X103365060Y-154677699D03*
X103365060Y-156577699D03*
X105365060Y-155627699D03*
X103365060Y-158477699D03*
X103365060Y-160377699D03*
X105365060Y-159427699D03*
X103365060Y-150877699D03*
X103365060Y-152777699D03*
X105365060Y-151827699D03*
X103365060Y-147077699D03*
X103365060Y-148977699D03*
X105365060Y-148027699D03*
X99665060Y-158477699D03*
X99665060Y-160377699D03*
X101665060Y-159427699D03*
X99665060Y-154677699D03*
X99665060Y-156577699D03*
X101665060Y-155627699D03*
X99665060Y-150877699D03*
X99665060Y-152777699D03*
X101665060Y-151827699D03*
X99665060Y-147077699D03*
X99665060Y-148977699D03*
X101665060Y-148027699D03*
X99665060Y-162277699D03*
X99665060Y-164177699D03*
X101665060Y-163227699D03*
X103340000Y-120450000D03*
X103340000Y-122350000D03*
X105340000Y-121400000D03*
X103340000Y-131850000D03*
X103340000Y-133750000D03*
X105340000Y-132800000D03*
X99640000Y-131850000D03*
X99640000Y-133750000D03*
X101640000Y-132800000D03*
X99640000Y-120450000D03*
X99640000Y-122350000D03*
X101640000Y-121400000D03*
X103340000Y-124250000D03*
X103340000Y-126150000D03*
X105340000Y-125200000D03*
X103340000Y-135650000D03*
X103340000Y-137550000D03*
X105340000Y-136600000D03*
X99640000Y-128050000D03*
X99640000Y-129950000D03*
X101640000Y-129000000D03*
X99640000Y-124250000D03*
X99640000Y-126150000D03*
X101640000Y-125200000D03*
X99640000Y-135650000D03*
X99640000Y-137550000D03*
X101640000Y-136600000D03*
X103340000Y-139450000D03*
X103340000Y-141350000D03*
X105340000Y-140400000D03*
X99640000Y-139450000D03*
X99640000Y-141350000D03*
X101640000Y-140400000D03*
X103370060Y-166732699D03*
X103370060Y-168632699D03*
X105370060Y-167682699D03*
X103370060Y-178132699D03*
X103370060Y-180032699D03*
X105370060Y-179082699D03*
X99670060Y-178132699D03*
X99670060Y-180032699D03*
X101670060Y-179082699D03*
X99670060Y-166732699D03*
X99670060Y-168632699D03*
X101670060Y-167682699D03*
X103370060Y-170532699D03*
X103370060Y-172432699D03*
X105370060Y-171482699D03*
X103370060Y-181932699D03*
X103370060Y-183832699D03*
X105370060Y-182882699D03*
X99670060Y-174332699D03*
X99670060Y-176232699D03*
X101670060Y-175282699D03*
X99670060Y-170532699D03*
X99670060Y-172432699D03*
X101670060Y-171482699D03*
X99670060Y-181932699D03*
X99670060Y-183832699D03*
X101670060Y-182882699D03*
X103370060Y-185732699D03*
X103370060Y-187632699D03*
X105370060Y-186682699D03*
X99670060Y-185732699D03*
X99670060Y-187632699D03*
X101670060Y-186682699D03*
X117400000Y-189550000D03*
X117400000Y-191450000D03*
X119400000Y-190500000D03*
X113650000Y-189550000D03*
X113650000Y-191450000D03*
X115650000Y-190500000D03*
X117365060Y-143277699D03*
X117365060Y-145177699D03*
X119365060Y-144227699D03*
X113665060Y-143277699D03*
X113665060Y-145177699D03*
X115665060Y-144227699D03*
X117365060Y-154677699D03*
X117365060Y-156577699D03*
X119365060Y-155627699D03*
X117365060Y-158477699D03*
X117365060Y-160377699D03*
X119365060Y-159427699D03*
X117365060Y-150877699D03*
X117365060Y-152777699D03*
X119365060Y-151827699D03*
X117365060Y-147077699D03*
X117365060Y-148977699D03*
X119365060Y-148027699D03*
X113665060Y-158477699D03*
X113665060Y-160377699D03*
X115665060Y-159427699D03*
X113665060Y-154677699D03*
X113665060Y-156577699D03*
X115665060Y-155627699D03*
X113665060Y-150877699D03*
X113665060Y-152777699D03*
X115665060Y-151827699D03*
X113665060Y-147077699D03*
X113665060Y-148977699D03*
X115665060Y-148027699D03*
X113665060Y-162277699D03*
X113665060Y-164177699D03*
X115665060Y-163227699D03*
X117340000Y-120450000D03*
X117340000Y-122350000D03*
X119340000Y-121400000D03*
X117340000Y-131850000D03*
X117340000Y-133750000D03*
X119340000Y-132800000D03*
X113640000Y-131850000D03*
X113640000Y-133750000D03*
X115640000Y-132800000D03*
X113640000Y-120450000D03*
X113640000Y-122350000D03*
X115640000Y-121400000D03*
X117340000Y-124250000D03*
X117340000Y-126150000D03*
X119340000Y-125200000D03*
X117340000Y-135650000D03*
X117340000Y-137550000D03*
X119340000Y-136600000D03*
X113640000Y-128050000D03*
X113640000Y-129950000D03*
X115640000Y-129000000D03*
X113640000Y-124250000D03*
X113640000Y-126150000D03*
X115640000Y-125200000D03*
X113640000Y-135650000D03*
X113640000Y-137550000D03*
X115640000Y-136600000D03*
X117340000Y-139450000D03*
X117340000Y-141350000D03*
X119340000Y-140400000D03*
X113640000Y-139450000D03*
X113640000Y-141350000D03*
X115640000Y-140400000D03*
X117370060Y-166732699D03*
X117370060Y-168632699D03*
X119370060Y-167682699D03*
X117370060Y-178132699D03*
X117370060Y-180032699D03*
X119370060Y-179082699D03*
X113670060Y-178132699D03*
X113670060Y-180032699D03*
X115670060Y-179082699D03*
X113670060Y-166732699D03*
X113670060Y-168632699D03*
X115670060Y-167682699D03*
X117370060Y-170532699D03*
X117370060Y-172432699D03*
X119370060Y-171482699D03*
X117370060Y-181932699D03*
X117370060Y-183832699D03*
X119370060Y-182882699D03*
X113670060Y-174332699D03*
X113670060Y-176232699D03*
X115670060Y-175282699D03*
X113670060Y-170532699D03*
X113670060Y-172432699D03*
X115670060Y-171482699D03*
X113670060Y-181932699D03*
X113670060Y-183832699D03*
X115670060Y-182882699D03*
X117370060Y-185732699D03*
X117370060Y-187632699D03*
X119370060Y-186682699D03*
X113670060Y-185732699D03*
X113670060Y-187632699D03*
X115670060Y-186682699D03*
X159450000Y-189450000D03*
X159450000Y-191350000D03*
X161450000Y-190400000D03*
X155700000Y-189450000D03*
X155700000Y-191350000D03*
X157700000Y-190400000D03*
X159450000Y-162200000D03*
X159450000Y-164100000D03*
X161450000Y-163150000D03*
X159400000Y-66750000D03*
X159400000Y-68650000D03*
X161400000Y-67700000D03*
X155700000Y-66750000D03*
X155700000Y-68650000D03*
X157700000Y-67700000D03*
X159400000Y-43950000D03*
X159400000Y-45850000D03*
X161400000Y-44900000D03*
X159400000Y-55350000D03*
X159400000Y-57250000D03*
X161400000Y-56300000D03*
X155700000Y-55350000D03*
X155700000Y-57250000D03*
X157700000Y-56300000D03*
X159400000Y-47750000D03*
X159400000Y-49650000D03*
X161400000Y-48700000D03*
X159400000Y-59150000D03*
X159400000Y-61050000D03*
X161400000Y-60100000D03*
X155700000Y-51550000D03*
X155700000Y-53450000D03*
X157700000Y-52500000D03*
X155700000Y-47750000D03*
X155700000Y-49650000D03*
X157700000Y-48700000D03*
X155700000Y-59150000D03*
X155700000Y-61050000D03*
X157700000Y-60100000D03*
X159400000Y-62950000D03*
X159400000Y-64850000D03*
X161400000Y-63900000D03*
X155700000Y-62950000D03*
X155700000Y-64850000D03*
X157700000Y-63900000D03*
X159425060Y-143177699D03*
X159425060Y-145077699D03*
X161425060Y-144127699D03*
X155725060Y-143177699D03*
X155725060Y-145077699D03*
X157725060Y-144127699D03*
X159425060Y-154577699D03*
X159425060Y-156477699D03*
X161425060Y-155527699D03*
X159425060Y-158377699D03*
X159425060Y-160277699D03*
X161425060Y-159327699D03*
X159425060Y-150777699D03*
X159425060Y-152677699D03*
X161425060Y-151727699D03*
X159425060Y-146977699D03*
X159425060Y-148877699D03*
X161425060Y-147927699D03*
X155725060Y-158377699D03*
X155725060Y-160277699D03*
X157725060Y-159327699D03*
X155725060Y-154577699D03*
X155725060Y-156477699D03*
X157725060Y-155527699D03*
X155725060Y-150777699D03*
X155725060Y-152677699D03*
X157725060Y-151727699D03*
X155725060Y-146977699D03*
X155725060Y-148877699D03*
X157725060Y-147927699D03*
X155725060Y-162177699D03*
X155725060Y-164077699D03*
X157725060Y-163127699D03*
X159400000Y-120350000D03*
X159400000Y-122250000D03*
X161400000Y-121300000D03*
X159400000Y-131750000D03*
X159400000Y-133650000D03*
X161400000Y-132700000D03*
X155700000Y-131750000D03*
X155700000Y-133650000D03*
X157700000Y-132700000D03*
X155700000Y-120350000D03*
X155700000Y-122250000D03*
X157700000Y-121300000D03*
X159400000Y-124150000D03*
X159400000Y-126050000D03*
X161400000Y-125100000D03*
X159400000Y-135550000D03*
X159400000Y-137450000D03*
X161400000Y-136500000D03*
X155700000Y-127950000D03*
X155700000Y-129850000D03*
X157700000Y-128900000D03*
X155700000Y-124150000D03*
X155700000Y-126050000D03*
X157700000Y-125100000D03*
X155700000Y-135550000D03*
X155700000Y-137450000D03*
X157700000Y-136500000D03*
X159400000Y-139350000D03*
X159400000Y-141250000D03*
X161400000Y-140300000D03*
X155700000Y-139350000D03*
X155700000Y-141250000D03*
X157700000Y-140300000D03*
X159500000Y-112450000D03*
X159500000Y-114350000D03*
X161500000Y-113400000D03*
X159400000Y-104950000D03*
X159400000Y-106850000D03*
X161400000Y-105900000D03*
X159400000Y-97450000D03*
X159400000Y-99350000D03*
X161400000Y-98400000D03*
X155800000Y-112450000D03*
X155800000Y-114350000D03*
X157800000Y-113400000D03*
X155700000Y-104950000D03*
X155700000Y-106850000D03*
X157700000Y-105900000D03*
X155700000Y-97450000D03*
X155700000Y-99350000D03*
X157700000Y-98400000D03*
X155800000Y-116250000D03*
X155800000Y-118150000D03*
X157800000Y-117200000D03*
X155700000Y-101150000D03*
X155700000Y-103050000D03*
X157700000Y-102100000D03*
X159400000Y-71050000D03*
X159400000Y-72950000D03*
X161400000Y-72000000D03*
X159400000Y-82450000D03*
X159400000Y-84350000D03*
X161400000Y-83400000D03*
X155700000Y-82450000D03*
X155700000Y-84350000D03*
X157700000Y-83400000D03*
X155700000Y-71050000D03*
X155700000Y-72950000D03*
X157700000Y-72000000D03*
X159400000Y-74850000D03*
X159400000Y-76750000D03*
X161400000Y-75800000D03*
X159400000Y-86250000D03*
X159400000Y-88150000D03*
X161400000Y-87200000D03*
X155700000Y-78650000D03*
X155700000Y-80550000D03*
X157700000Y-79600000D03*
X155700000Y-74850000D03*
X155700000Y-76750000D03*
X157700000Y-75800000D03*
X155700000Y-86250000D03*
X155700000Y-88150000D03*
X157700000Y-87200000D03*
X159400000Y-90050000D03*
X159400000Y-91950000D03*
X161400000Y-91000000D03*
X155700000Y-90050000D03*
X155700000Y-91950000D03*
X157700000Y-91000000D03*
X159450000Y-166600000D03*
X159450000Y-168500000D03*
X161450000Y-167550000D03*
X159450000Y-178000000D03*
X159450000Y-179900000D03*
X161450000Y-178950000D03*
X155750000Y-178000000D03*
X155750000Y-179900000D03*
X157750000Y-178950000D03*
X155750000Y-166600000D03*
X155750000Y-168500000D03*
X157750000Y-167550000D03*
X159450000Y-170400000D03*
X159450000Y-172300000D03*
X161450000Y-171350000D03*
X159450000Y-181800000D03*
X159450000Y-183700000D03*
X161450000Y-182750000D03*
X155750000Y-174200000D03*
X155750000Y-176100000D03*
X157750000Y-175150000D03*
X155750000Y-170400000D03*
X155750000Y-172300000D03*
X157750000Y-171350000D03*
X155750000Y-181800000D03*
X155750000Y-183700000D03*
X157750000Y-182750000D03*
X159450000Y-185600000D03*
X159450000Y-187500000D03*
X161450000Y-186550000D03*
X155750000Y-185600000D03*
X155750000Y-187500000D03*
X157750000Y-186550000D03*
X173450000Y-189550000D03*
X173450000Y-191450000D03*
X175450000Y-190500000D03*
X169700000Y-189550000D03*
X169700000Y-191450000D03*
X171700000Y-190500000D03*
X173450000Y-162300000D03*
X173450000Y-164200000D03*
X175450000Y-163250000D03*
X173400000Y-66850000D03*
X173400000Y-68750000D03*
X175400000Y-67800000D03*
X169700000Y-66850000D03*
X169700000Y-68750000D03*
X171700000Y-67800000D03*
X173400000Y-44050000D03*
X173400000Y-45950000D03*
X175400000Y-45000000D03*
X173400000Y-55450000D03*
X173400000Y-57350000D03*
X175400000Y-56400000D03*
X169700000Y-55450000D03*
X169700000Y-57350000D03*
X171700000Y-56400000D03*
X169700000Y-44050000D03*
X169700000Y-45950000D03*
X171700000Y-45000000D03*
X173400000Y-47850000D03*
X173400000Y-49750000D03*
X175400000Y-48800000D03*
X173400000Y-59250000D03*
X173400000Y-61150000D03*
X175400000Y-60200000D03*
X169700000Y-51650000D03*
X169700000Y-53550000D03*
X171700000Y-52600000D03*
X169700000Y-47850000D03*
X169700000Y-49750000D03*
X171700000Y-48800000D03*
X169700000Y-59250000D03*
X169700000Y-61150000D03*
X171700000Y-60200000D03*
X173400000Y-63050000D03*
X173400000Y-64950000D03*
X175400000Y-64000000D03*
X169700000Y-63050000D03*
X169700000Y-64950000D03*
X171700000Y-64000000D03*
X173425060Y-143277699D03*
X173425060Y-145177699D03*
X175425060Y-144227699D03*
X169725060Y-143277699D03*
X169725060Y-145177699D03*
X171725060Y-144227699D03*
X173425060Y-154677699D03*
X173425060Y-156577699D03*
X175425060Y-155627699D03*
X173425060Y-158477699D03*
X173425060Y-160377699D03*
X175425060Y-159427699D03*
X173425060Y-150877699D03*
X173425060Y-152777699D03*
X175425060Y-151827699D03*
X173425060Y-147077699D03*
X173425060Y-148977699D03*
X175425060Y-148027699D03*
X169725060Y-158477699D03*
X169725060Y-160377699D03*
X171725060Y-159427699D03*
X169725060Y-154677699D03*
X169725060Y-156577699D03*
X171725060Y-155627699D03*
X169725060Y-150877699D03*
X169725060Y-152777699D03*
X171725060Y-151827699D03*
X169725060Y-147077699D03*
X169725060Y-148977699D03*
X171725060Y-148027699D03*
X169725060Y-162277699D03*
X169725060Y-164177699D03*
X171725060Y-163227699D03*
X173400000Y-120450000D03*
X173400000Y-122350000D03*
X175400000Y-121400000D03*
X173400000Y-131850000D03*
X173400000Y-133750000D03*
X175400000Y-132800000D03*
X169700000Y-131850000D03*
X169700000Y-133750000D03*
X171700000Y-132800000D03*
X169700000Y-120450000D03*
X169700000Y-122350000D03*
X171700000Y-121400000D03*
X173400000Y-124250000D03*
X173400000Y-126150000D03*
X175400000Y-125200000D03*
X173400000Y-135650000D03*
X173400000Y-137550000D03*
X175400000Y-136600000D03*
X169700000Y-128050000D03*
X169700000Y-129950000D03*
X171700000Y-129000000D03*
X169700000Y-124250000D03*
X169700000Y-126150000D03*
X171700000Y-125200000D03*
X169700000Y-135650000D03*
X169700000Y-137550000D03*
X171700000Y-136600000D03*
X173400000Y-139450000D03*
X173400000Y-141350000D03*
X175400000Y-140400000D03*
X169700000Y-139450000D03*
X169700000Y-141350000D03*
X171700000Y-140400000D03*
X173500000Y-112550000D03*
X173500000Y-114450000D03*
X175500000Y-113500000D03*
X173400000Y-105050000D03*
X173400000Y-106950000D03*
X175400000Y-106000000D03*
X173400000Y-97550000D03*
X173400000Y-99450000D03*
X175400000Y-98500000D03*
X169800000Y-112550000D03*
X169800000Y-114450000D03*
X171800000Y-113500000D03*
X169700000Y-105050000D03*
X169700000Y-106950000D03*
X171700000Y-106000000D03*
X169700000Y-97550000D03*
X169700000Y-99450000D03*
X171700000Y-98500000D03*
X169800000Y-116350000D03*
X169800000Y-118250000D03*
X171800000Y-117300000D03*
X169700000Y-101250000D03*
X169700000Y-103150000D03*
X171700000Y-102200000D03*
X173400000Y-71150000D03*
X173400000Y-73050000D03*
X175400000Y-72100000D03*
X173400000Y-82550000D03*
X173400000Y-84450000D03*
X175400000Y-83500000D03*
X169700000Y-82550000D03*
X169700000Y-84450000D03*
X171700000Y-83500000D03*
X169700000Y-71150000D03*
X169700000Y-73050000D03*
X171700000Y-72100000D03*
X173400000Y-74950000D03*
X173400000Y-76850000D03*
X175400000Y-75900000D03*
X173400000Y-86350000D03*
X173400000Y-88250000D03*
X175400000Y-87300000D03*
X169700000Y-78750000D03*
X169700000Y-80650000D03*
X171700000Y-79700000D03*
X169700000Y-74950000D03*
X169700000Y-76850000D03*
X171700000Y-75900000D03*
X169700000Y-86350000D03*
X169700000Y-88250000D03*
X171700000Y-87300000D03*
X173400000Y-90150000D03*
X173400000Y-92050000D03*
X175400000Y-91100000D03*
X169700000Y-90150000D03*
X169700000Y-92050000D03*
X171700000Y-91100000D03*
X173450000Y-166700000D03*
X173450000Y-168600000D03*
X175450000Y-167650000D03*
X173450000Y-178100000D03*
X173450000Y-180000000D03*
X175450000Y-179050000D03*
X169750000Y-178100000D03*
X169750000Y-180000000D03*
X171750000Y-179050000D03*
X169750000Y-166700000D03*
X169750000Y-168600000D03*
X171750000Y-167650000D03*
X173450000Y-170500000D03*
X173450000Y-172400000D03*
X175450000Y-171450000D03*
X173450000Y-181900000D03*
X173450000Y-183800000D03*
X175450000Y-182850000D03*
X169750000Y-174300000D03*
X169750000Y-176200000D03*
X171750000Y-175250000D03*
X169750000Y-170500000D03*
X169750000Y-172400000D03*
X171750000Y-171450000D03*
X169750000Y-181900000D03*
X169750000Y-183800000D03*
X171750000Y-182850000D03*
X173450000Y-185700000D03*
X173450000Y-187600000D03*
X175450000Y-186650000D03*
X169750000Y-185700000D03*
X169750000Y-187600000D03*
X171750000Y-186650000D03*
X201450000Y-189550000D03*
X201450000Y-191450000D03*
X203450000Y-190500000D03*
X197700000Y-189550000D03*
X197700000Y-191450000D03*
X199700000Y-190500000D03*
X201450000Y-162300000D03*
X201450000Y-164200000D03*
X203450000Y-163250000D03*
X201400000Y-66850000D03*
X201400000Y-68750000D03*
X203400000Y-67800000D03*
X197700000Y-66850000D03*
X197700000Y-68750000D03*
X199700000Y-67800000D03*
X201400000Y-44050000D03*
X201400000Y-45950000D03*
X203400000Y-45000000D03*
X201400000Y-55450000D03*
X201400000Y-57350000D03*
X203400000Y-56400000D03*
X197700000Y-55450000D03*
X197700000Y-57350000D03*
X199700000Y-56400000D03*
X197700000Y-44050000D03*
X197700000Y-45950000D03*
X199700000Y-45000000D03*
X201400000Y-47850000D03*
X201400000Y-49750000D03*
X203400000Y-48800000D03*
X201400000Y-59250000D03*
X201400000Y-61150000D03*
X203400000Y-60200000D03*
X197700000Y-51650000D03*
X197700000Y-53550000D03*
X199700000Y-52600000D03*
X197700000Y-47850000D03*
X197700000Y-49750000D03*
X199700000Y-48800000D03*
X197700000Y-59250000D03*
X197700000Y-61150000D03*
X199700000Y-60200000D03*
X201400000Y-63050000D03*
X201400000Y-64950000D03*
X203400000Y-64000000D03*
X197700000Y-63050000D03*
X197700000Y-64950000D03*
X199700000Y-64000000D03*
X201425060Y-143277699D03*
X201425060Y-145177699D03*
X203425060Y-144227699D03*
X197725060Y-143277699D03*
X197725060Y-145177699D03*
X199725060Y-144227699D03*
X201425060Y-154677699D03*
X201425060Y-156577699D03*
X203425060Y-155627699D03*
X201425060Y-158477699D03*
X201425060Y-160377699D03*
X203425060Y-159427699D03*
X201425060Y-150877699D03*
X201425060Y-152777699D03*
X203425060Y-151827699D03*
X201425060Y-147077699D03*
X201425060Y-148977699D03*
X203425060Y-148027699D03*
X197725060Y-158477699D03*
X197725060Y-160377699D03*
X199725060Y-159427699D03*
X197725060Y-154677699D03*
X197725060Y-156577699D03*
X199725060Y-155627699D03*
X197725060Y-150877699D03*
X197725060Y-152777699D03*
X199725060Y-151827699D03*
X197725060Y-147077699D03*
X197725060Y-148977699D03*
X199725060Y-148027699D03*
X197725060Y-162277699D03*
X197725060Y-164177699D03*
X199725060Y-163227699D03*
X201400000Y-120450000D03*
X201400000Y-122350000D03*
X203400000Y-121400000D03*
X201400000Y-131850000D03*
X201400000Y-133750000D03*
X203400000Y-132800000D03*
X197700000Y-131850000D03*
X197700000Y-133750000D03*
X199700000Y-132800000D03*
X197700000Y-120450000D03*
X197700000Y-122350000D03*
X199700000Y-121400000D03*
X201400000Y-124250000D03*
X201400000Y-126150000D03*
X203400000Y-125200000D03*
X201400000Y-135650000D03*
X201400000Y-137550000D03*
X203400000Y-136600000D03*
X197700000Y-128050000D03*
X197700000Y-129950000D03*
X199700000Y-129000000D03*
X197700000Y-124250000D03*
X197700000Y-126150000D03*
X199700000Y-125200000D03*
X197700000Y-135650000D03*
X197700000Y-137550000D03*
X199700000Y-136600000D03*
X201400000Y-139450000D03*
X201400000Y-141350000D03*
X203400000Y-140400000D03*
X197700000Y-139450000D03*
X197700000Y-141350000D03*
X199700000Y-140400000D03*
X201500000Y-112550000D03*
X201500000Y-114450000D03*
X203500000Y-113500000D03*
X201400000Y-105050000D03*
X201400000Y-106950000D03*
X203400000Y-106000000D03*
X201400000Y-97550000D03*
X201400000Y-99450000D03*
X203400000Y-98500000D03*
X197800000Y-112550000D03*
X197800000Y-114450000D03*
X199800000Y-113500000D03*
X197700000Y-105050000D03*
X197700000Y-106950000D03*
X199700000Y-106000000D03*
X197700000Y-97550000D03*
X197700000Y-99450000D03*
X199700000Y-98500000D03*
X197800000Y-116350000D03*
X197800000Y-118250000D03*
X199800000Y-117300000D03*
X197700000Y-101250000D03*
X197700000Y-103150000D03*
X199700000Y-102200000D03*
X201400000Y-71150000D03*
X201400000Y-73050000D03*
X203400000Y-72100000D03*
X201400000Y-82550000D03*
X201400000Y-84450000D03*
X203400000Y-83500000D03*
X197700000Y-82550000D03*
X197700000Y-84450000D03*
X199700000Y-83500000D03*
X197700000Y-71150000D03*
X197700000Y-73050000D03*
X199700000Y-72100000D03*
X201400000Y-74950000D03*
X201400000Y-76850000D03*
X203400000Y-75900000D03*
X201400000Y-86350000D03*
X201400000Y-88250000D03*
X203400000Y-87300000D03*
X197700000Y-78750000D03*
X197700000Y-80650000D03*
X199700000Y-79700000D03*
X197700000Y-74950000D03*
X197700000Y-76850000D03*
X199700000Y-75900000D03*
X197700000Y-86350000D03*
X197700000Y-88250000D03*
X199700000Y-87300000D03*
X201400000Y-90150000D03*
X201400000Y-92050000D03*
X203400000Y-91100000D03*
X197700000Y-90150000D03*
X197700000Y-92050000D03*
X199700000Y-91100000D03*
X201450000Y-166700000D03*
X201450000Y-168600000D03*
X203450000Y-167650000D03*
X201450000Y-178100000D03*
X201450000Y-180000000D03*
X203450000Y-179050000D03*
X197750000Y-178100000D03*
X197750000Y-180000000D03*
X199750000Y-179050000D03*
X197750000Y-166700000D03*
X197750000Y-168600000D03*
X199750000Y-167650000D03*
X201450000Y-170500000D03*
X201450000Y-172400000D03*
X203450000Y-171450000D03*
X201450000Y-181900000D03*
X201450000Y-183800000D03*
X203450000Y-182850000D03*
X197750000Y-174300000D03*
X197750000Y-176200000D03*
X199750000Y-175250000D03*
X197750000Y-170500000D03*
X197750000Y-172400000D03*
X199750000Y-171450000D03*
X197750000Y-181900000D03*
X197750000Y-183800000D03*
X199750000Y-182850000D03*
X201450000Y-185700000D03*
X201450000Y-187600000D03*
X203450000Y-186650000D03*
X197750000Y-185700000D03*
X197750000Y-187600000D03*
X199750000Y-186650000D03*
X215450000Y-189550000D03*
X215450000Y-191450000D03*
X217450000Y-190500000D03*
X211700000Y-189550000D03*
X211700000Y-191450000D03*
X213700000Y-190500000D03*
X215450000Y-162300000D03*
X215450000Y-164200000D03*
X217450000Y-163250000D03*
X215400000Y-66850000D03*
X215400000Y-68750000D03*
X217400000Y-67800000D03*
X211700000Y-66850000D03*
X211700000Y-68750000D03*
X213700000Y-67800000D03*
X215400000Y-44050000D03*
X215400000Y-45950000D03*
X217400000Y-45000000D03*
X215400000Y-55450000D03*
X215400000Y-57350000D03*
X217400000Y-56400000D03*
X211700000Y-55450000D03*
X211700000Y-57350000D03*
X213700000Y-56400000D03*
X211700000Y-44050000D03*
X211700000Y-45950000D03*
X213700000Y-45000000D03*
X215400000Y-47850000D03*
X215400000Y-49750000D03*
X217400000Y-48800000D03*
X215400000Y-59250000D03*
X215400000Y-61150000D03*
X217400000Y-60200000D03*
X211700000Y-51650000D03*
X211700000Y-53550000D03*
X213700000Y-52600000D03*
X211700000Y-47850000D03*
X211700000Y-49750000D03*
X213700000Y-48800000D03*
X211700000Y-59250000D03*
X211700000Y-61150000D03*
X213700000Y-60200000D03*
X215400000Y-63050000D03*
X215400000Y-64950000D03*
X217400000Y-64000000D03*
X211700000Y-63050000D03*
X211700000Y-64950000D03*
X213700000Y-64000000D03*
X215425060Y-143277699D03*
X215425060Y-145177699D03*
X217425060Y-144227699D03*
X211725060Y-143277699D03*
X211725060Y-145177699D03*
X213725060Y-144227699D03*
X215425060Y-154677699D03*
X215425060Y-156577699D03*
X217425060Y-155627699D03*
X215425060Y-158477699D03*
X215425060Y-160377699D03*
X217425060Y-159427699D03*
X215425060Y-150877699D03*
X215425060Y-152777699D03*
X217425060Y-151827699D03*
X215425060Y-147077699D03*
X215425060Y-148977699D03*
X217425060Y-148027699D03*
X211725060Y-158477699D03*
X211725060Y-160377699D03*
X213725060Y-159427699D03*
X211725060Y-154677699D03*
X211725060Y-156577699D03*
X213725060Y-155627699D03*
X211725060Y-150877699D03*
X211725060Y-152777699D03*
X213725060Y-151827699D03*
X211725060Y-147077699D03*
X211725060Y-148977699D03*
X213725060Y-148027699D03*
X211725060Y-162277699D03*
X211725060Y-164177699D03*
X213725060Y-163227699D03*
X215400000Y-120450000D03*
X215400000Y-122350000D03*
X217400000Y-121400000D03*
X215400000Y-131850000D03*
X215400000Y-133750000D03*
X217400000Y-132800000D03*
X211700000Y-131850000D03*
X211700000Y-133750000D03*
X213700000Y-132800000D03*
X211700000Y-120450000D03*
X211700000Y-122350000D03*
X213700000Y-121400000D03*
X215400000Y-124250000D03*
X215400000Y-126150000D03*
X217400000Y-125200000D03*
X215400000Y-135650000D03*
X215400000Y-137550000D03*
X217400000Y-136600000D03*
X211700000Y-128050000D03*
X211700000Y-129950000D03*
X213700000Y-129000000D03*
X211700000Y-124250000D03*
X211700000Y-126150000D03*
X213700000Y-125200000D03*
X211700000Y-135650000D03*
X211700000Y-137550000D03*
X213700000Y-136600000D03*
X215400000Y-139450000D03*
X215400000Y-141350000D03*
X217400000Y-140400000D03*
X211700000Y-139450000D03*
X211700000Y-141350000D03*
X213700000Y-140400000D03*
X215500000Y-112550000D03*
X215500000Y-114450000D03*
X217500000Y-113500000D03*
X215400000Y-105050000D03*
X215400000Y-106950000D03*
X217400000Y-106000000D03*
X215400000Y-97550000D03*
X215400000Y-99450000D03*
X217400000Y-98500000D03*
X211800000Y-112550000D03*
X211800000Y-114450000D03*
X213800000Y-113500000D03*
X211700000Y-105050000D03*
X211700000Y-106950000D03*
X213700000Y-106000000D03*
X211700000Y-97550000D03*
X211700000Y-99450000D03*
X213700000Y-98500000D03*
X211800000Y-116350000D03*
X211800000Y-118250000D03*
X213800000Y-117300000D03*
X211700000Y-101250000D03*
X211700000Y-103150000D03*
X213700000Y-102200000D03*
X215400000Y-71150000D03*
X215400000Y-73050000D03*
X217400000Y-72100000D03*
X215400000Y-82550000D03*
X215400000Y-84450000D03*
X217400000Y-83500000D03*
X211700000Y-82550000D03*
X211700000Y-84450000D03*
X213700000Y-83500000D03*
X211700000Y-71150000D03*
X211700000Y-73050000D03*
X213700000Y-72100000D03*
X215400000Y-74950000D03*
X215400000Y-76850000D03*
X217400000Y-75900000D03*
X215400000Y-86350000D03*
X215400000Y-88250000D03*
X217400000Y-87300000D03*
X211700000Y-78750000D03*
X211700000Y-80650000D03*
X213700000Y-79700000D03*
X211700000Y-74950000D03*
X211700000Y-76850000D03*
X213700000Y-75900000D03*
X211700000Y-86350000D03*
X211700000Y-88250000D03*
X213700000Y-87300000D03*
X215400000Y-90150000D03*
X215400000Y-92050000D03*
X217400000Y-91100000D03*
X211700000Y-90150000D03*
X211700000Y-92050000D03*
X213700000Y-91100000D03*
X215450000Y-166700000D03*
X215450000Y-168600000D03*
X217450000Y-167650000D03*
X215450000Y-178100000D03*
X215450000Y-180000000D03*
X217450000Y-179050000D03*
X211750000Y-178100000D03*
X211750000Y-180000000D03*
X213750000Y-179050000D03*
X211750000Y-166700000D03*
X211750000Y-168600000D03*
X213750000Y-167650000D03*
X215450000Y-170500000D03*
X215450000Y-172400000D03*
X217450000Y-171450000D03*
X215450000Y-181900000D03*
X215450000Y-183800000D03*
X217450000Y-182850000D03*
X211750000Y-174300000D03*
X211750000Y-176200000D03*
X213750000Y-175250000D03*
X211750000Y-170500000D03*
X211750000Y-172400000D03*
X213750000Y-171450000D03*
X211750000Y-181900000D03*
X211750000Y-183800000D03*
X213750000Y-182850000D03*
X215450000Y-185700000D03*
X215450000Y-187600000D03*
X217450000Y-186650000D03*
X211750000Y-185700000D03*
X211750000Y-187600000D03*
X213750000Y-186650000D03*
X233084940Y-191772301D03*
X233084940Y-193672301D03*
X235084940Y-192722301D03*
X233100000Y-153650000D03*
X233100000Y-155550000D03*
X235100000Y-154600000D03*
X233100000Y-157450000D03*
X233100000Y-159350000D03*
X235100000Y-158400000D03*
X233100000Y-161250000D03*
X233100000Y-163150000D03*
X235100000Y-162200000D03*
X229500000Y-161250000D03*
X229500000Y-163150000D03*
X231500000Y-162200000D03*
X229400000Y-168850000D03*
X229400000Y-170750000D03*
X231400000Y-169800000D03*
X233100000Y-168850000D03*
X233100000Y-170750000D03*
X235100000Y-169800000D03*
X233100000Y-165050000D03*
X233100000Y-166950000D03*
X235100000Y-166000000D03*
X229400000Y-180350000D03*
X229400000Y-182250000D03*
X231400000Y-181300000D03*
X233100000Y-180350000D03*
X233100000Y-182250000D03*
X235100000Y-181300000D03*
X114200000Y-232650000D03*
X114200000Y-234550000D03*
X116200000Y-233600000D03*
X187450000Y-189550000D03*
X187450000Y-191450000D03*
X189450000Y-190500000D03*
X183700000Y-189550000D03*
X183700000Y-191450000D03*
X185700000Y-190500000D03*
X187450000Y-162300000D03*
X187450000Y-164200000D03*
X189450000Y-163250000D03*
X187400000Y-66850000D03*
X187400000Y-68750000D03*
X189400000Y-67800000D03*
X183700000Y-66850000D03*
X183700000Y-68750000D03*
X185700000Y-67800000D03*
X187400000Y-44050000D03*
X187400000Y-45950000D03*
X189400000Y-45000000D03*
X187400000Y-55450000D03*
X187400000Y-57350000D03*
X189400000Y-56400000D03*
X183700000Y-55450000D03*
X183700000Y-57350000D03*
X185700000Y-56400000D03*
X183700000Y-44050000D03*
X183700000Y-45950000D03*
X185700000Y-45000000D03*
X187400000Y-47850000D03*
X187400000Y-49750000D03*
X189400000Y-48800000D03*
X187400000Y-59250000D03*
X187400000Y-61150000D03*
X189400000Y-60200000D03*
X183700000Y-51650000D03*
X183700000Y-53550000D03*
X185700000Y-52600000D03*
X183700000Y-47850000D03*
X183700000Y-49750000D03*
X185700000Y-48800000D03*
X183700000Y-59250000D03*
X183700000Y-61150000D03*
X185700000Y-60200000D03*
X187400000Y-63050000D03*
X187400000Y-64950000D03*
X189400000Y-64000000D03*
X183700000Y-63050000D03*
X183700000Y-64950000D03*
X185700000Y-64000000D03*
X187425060Y-143277699D03*
X187425060Y-145177699D03*
X189425060Y-144227699D03*
X183725060Y-143277699D03*
X183725060Y-145177699D03*
X185725060Y-144227699D03*
X187425060Y-154677699D03*
X187425060Y-156577699D03*
X189425060Y-155627699D03*
X187425060Y-158477699D03*
X187425060Y-160377699D03*
X189425060Y-159427699D03*
X187425060Y-150877699D03*
X187425060Y-152777699D03*
X189425060Y-151827699D03*
X187425060Y-147077699D03*
X187425060Y-148977699D03*
X189425060Y-148027699D03*
X183725060Y-158477699D03*
X183725060Y-160377699D03*
X185725060Y-159427699D03*
X183725060Y-154677699D03*
X183725060Y-156577699D03*
X185725060Y-155627699D03*
X183725060Y-150877699D03*
X183725060Y-152777699D03*
X185725060Y-151827699D03*
X183725060Y-147077699D03*
X183725060Y-148977699D03*
X185725060Y-148027699D03*
X183725060Y-162277699D03*
X183725060Y-164177699D03*
X185725060Y-163227699D03*
X187400000Y-120450000D03*
X187400000Y-122350000D03*
X189400000Y-121400000D03*
X187400000Y-131850000D03*
X187400000Y-133750000D03*
X189400000Y-132800000D03*
X183700000Y-131850000D03*
X183700000Y-133750000D03*
X185700000Y-132800000D03*
X183700000Y-120450000D03*
X183700000Y-122350000D03*
X185700000Y-121400000D03*
X187400000Y-124250000D03*
X187400000Y-126150000D03*
X189400000Y-125200000D03*
X187400000Y-135650000D03*
X187400000Y-137550000D03*
X189400000Y-136600000D03*
X183700000Y-128050000D03*
X183700000Y-129950000D03*
X185700000Y-129000000D03*
X183700000Y-124250000D03*
X183700000Y-126150000D03*
X185700000Y-125200000D03*
X183700000Y-135650000D03*
X183700000Y-137550000D03*
X185700000Y-136600000D03*
X187400000Y-139450000D03*
X187400000Y-141350000D03*
X189400000Y-140400000D03*
X183700000Y-139450000D03*
X183700000Y-141350000D03*
X185700000Y-140400000D03*
X187500000Y-112550000D03*
X187500000Y-114450000D03*
X189500000Y-113500000D03*
X187400000Y-105050000D03*
X187400000Y-106950000D03*
X189400000Y-106000000D03*
X187400000Y-97550000D03*
X187400000Y-99450000D03*
X189400000Y-98500000D03*
X183800000Y-112550000D03*
X183800000Y-114450000D03*
X185800000Y-113500000D03*
X183700000Y-105050000D03*
X183700000Y-106950000D03*
X185700000Y-106000000D03*
X183700000Y-97550000D03*
X183700000Y-99450000D03*
X185700000Y-98500000D03*
X183800000Y-116350000D03*
X183800000Y-118250000D03*
X185800000Y-117300000D03*
X183700000Y-101250000D03*
X183700000Y-103150000D03*
X185700000Y-102200000D03*
X187400000Y-71150000D03*
X187400000Y-73050000D03*
X189400000Y-72100000D03*
X187400000Y-82550000D03*
X187400000Y-84450000D03*
X189400000Y-83500000D03*
X183700000Y-82550000D03*
X183700000Y-84450000D03*
X185700000Y-83500000D03*
X183700000Y-71150000D03*
X183700000Y-73050000D03*
X185700000Y-72100000D03*
X187400000Y-74950000D03*
X187400000Y-76850000D03*
X189400000Y-75900000D03*
X187400000Y-86350000D03*
X187400000Y-88250000D03*
X189400000Y-87300000D03*
X183700000Y-78750000D03*
X183700000Y-80650000D03*
X185700000Y-79700000D03*
X183700000Y-74950000D03*
X183700000Y-76850000D03*
X185700000Y-75900000D03*
X183700000Y-86350000D03*
X183700000Y-88250000D03*
X185700000Y-87300000D03*
X187400000Y-90150000D03*
X187400000Y-92050000D03*
X189400000Y-91100000D03*
X183700000Y-90150000D03*
X183700000Y-92050000D03*
X185700000Y-91100000D03*
X187450000Y-166700000D03*
X187450000Y-168600000D03*
X189450000Y-167650000D03*
X187450000Y-178100000D03*
X187450000Y-180000000D03*
X189450000Y-179050000D03*
X183750000Y-178100000D03*
X183750000Y-180000000D03*
X185750000Y-179050000D03*
X183750000Y-166700000D03*
X183750000Y-168600000D03*
X185750000Y-167650000D03*
X187450000Y-170500000D03*
X187450000Y-172400000D03*
X189450000Y-171450000D03*
X187450000Y-181900000D03*
X187450000Y-183800000D03*
X189450000Y-182850000D03*
X183750000Y-174300000D03*
X183750000Y-176200000D03*
X185750000Y-175250000D03*
X183750000Y-170500000D03*
X183750000Y-172400000D03*
X185750000Y-171450000D03*
X183750000Y-181900000D03*
X183750000Y-183800000D03*
X185750000Y-182850000D03*
X187450000Y-185700000D03*
X187450000Y-187600000D03*
X189450000Y-186650000D03*
X183750000Y-185700000D03*
X183750000Y-187600000D03*
X185750000Y-186650000D03*
X233090000Y-195640000D03*
X233090000Y-197540000D03*
X235090000Y-196590000D03*
X206600000Y-294450000D03*
X206600000Y-296350000D03*
X208600000Y-295400000D03*
X176700000Y-294450000D03*
X176700000Y-296350000D03*
X178700000Y-295400000D03*
X210300000Y-294450000D03*
X210300000Y-296350000D03*
X212300000Y-295400000D03*
X173000000Y-294450000D03*
X173000000Y-296350000D03*
X175000000Y-295400000D03*
X229500000Y-144250000D03*
X229500000Y-146150000D03*
X231500000Y-145200000D03*
X225700000Y-144250000D03*
X225700000Y-146150000D03*
X227700000Y-145200000D03*
X145530000Y-189570000D03*
X145530000Y-191470000D03*
X147530000Y-190520000D03*
X141780000Y-189570000D03*
X141780000Y-191470000D03*
X143780000Y-190520000D03*
X145530000Y-162320000D03*
X145530000Y-164220000D03*
X147530000Y-163270000D03*
X145480000Y-66870000D03*
X145480000Y-68770000D03*
X147480000Y-67820000D03*
X141780000Y-66870000D03*
X141780000Y-68770000D03*
X143780000Y-67820000D03*
X145480000Y-44070000D03*
X145480000Y-45970000D03*
X147480000Y-45020000D03*
X145480000Y-55470000D03*
X145480000Y-57370000D03*
X147480000Y-56420000D03*
X141780000Y-55470000D03*
X141780000Y-57370000D03*
X143780000Y-56420000D03*
X141780000Y-44070000D03*
X141780000Y-45970000D03*
X143780000Y-45020000D03*
X145480000Y-47870000D03*
X145480000Y-49770000D03*
X147480000Y-48820000D03*
X145480000Y-59270000D03*
X145480000Y-61170000D03*
X147480000Y-60220000D03*
X141780000Y-51670000D03*
X141780000Y-53570000D03*
X143780000Y-52620000D03*
X141780000Y-47870000D03*
X141780000Y-49770000D03*
X143780000Y-48820000D03*
X141780000Y-59270000D03*
X141780000Y-61170000D03*
X143780000Y-60220000D03*
X145480000Y-63070000D03*
X145480000Y-64970000D03*
X147480000Y-64020000D03*
X141780000Y-63070000D03*
X141780000Y-64970000D03*
X143780000Y-64020000D03*
X145505060Y-143297699D03*
X145505060Y-145197699D03*
X147505060Y-144247699D03*
X141805060Y-143297699D03*
X141805060Y-145197699D03*
X143805060Y-144247699D03*
X145505060Y-154697699D03*
X145505060Y-156597699D03*
X147505060Y-155647699D03*
X145505060Y-158497699D03*
X145505060Y-160397699D03*
X147505060Y-159447699D03*
X145505060Y-150897699D03*
X145505060Y-152797699D03*
X147505060Y-151847699D03*
X145505060Y-147097699D03*
X145505060Y-148997699D03*
X147505060Y-148047699D03*
X141805060Y-158497699D03*
X141805060Y-160397699D03*
X143805060Y-159447699D03*
X141805060Y-154697699D03*
X141805060Y-156597699D03*
X143805060Y-155647699D03*
X141805060Y-150897699D03*
X141805060Y-152797699D03*
X143805060Y-151847699D03*
X141805060Y-147097699D03*
X141805060Y-148997699D03*
X143805060Y-148047699D03*
X141805060Y-162297699D03*
X141805060Y-164197699D03*
X143805060Y-163247699D03*
X145480000Y-120470000D03*
X145480000Y-122370000D03*
X147480000Y-121420000D03*
X145480000Y-131870000D03*
X145480000Y-133770000D03*
X147480000Y-132820000D03*
X141780000Y-131870000D03*
X141780000Y-133770000D03*
X143780000Y-132820000D03*
X141780000Y-120470000D03*
X141780000Y-122370000D03*
X143780000Y-121420000D03*
X145480000Y-124270000D03*
X145480000Y-126170000D03*
X147480000Y-125220000D03*
X145480000Y-135670000D03*
X145480000Y-137570000D03*
X147480000Y-136620000D03*
X141780000Y-128070000D03*
X141780000Y-129970000D03*
X143780000Y-129020000D03*
X141780000Y-124270000D03*
X141780000Y-126170000D03*
X143780000Y-125220000D03*
X141780000Y-135670000D03*
X141780000Y-137570000D03*
X143780000Y-136620000D03*
X145480000Y-139470000D03*
X145480000Y-141370000D03*
X147480000Y-140420000D03*
X141780000Y-139470000D03*
X141780000Y-141370000D03*
X143780000Y-140420000D03*
X145500000Y-116350000D03*
X145500000Y-118250000D03*
X147500000Y-117300000D03*
X145480000Y-105070000D03*
X145480000Y-106970000D03*
X147480000Y-106020000D03*
X145480000Y-97570000D03*
X145480000Y-99470000D03*
X147480000Y-98520000D03*
X141880000Y-112570000D03*
X141880000Y-114470000D03*
X143880000Y-113520000D03*
X141780000Y-105070000D03*
X141780000Y-106970000D03*
X143780000Y-106020000D03*
X141780000Y-97570000D03*
X141780000Y-99470000D03*
X143780000Y-98520000D03*
X141880000Y-116370000D03*
X141880000Y-118270000D03*
X143880000Y-117320000D03*
X141780000Y-101270000D03*
X141780000Y-103170000D03*
X143780000Y-102220000D03*
X145480000Y-71170000D03*
X145480000Y-73070000D03*
X147480000Y-72120000D03*
X145480000Y-82570000D03*
X145480000Y-84470000D03*
X147480000Y-83520000D03*
X141780000Y-82570000D03*
X141780000Y-84470000D03*
X143780000Y-83520000D03*
X141780000Y-71170000D03*
X141780000Y-73070000D03*
X143780000Y-72120000D03*
X145480000Y-74970000D03*
X145480000Y-76870000D03*
X147480000Y-75920000D03*
X145480000Y-86370000D03*
X145480000Y-88270000D03*
X147480000Y-87320000D03*
X141780000Y-78770000D03*
X141780000Y-80670000D03*
X143780000Y-79720000D03*
X141780000Y-74970000D03*
X141780000Y-76870000D03*
X143780000Y-75920000D03*
X141780000Y-86370000D03*
X141780000Y-88270000D03*
X143780000Y-87320000D03*
X145480000Y-90170000D03*
X145480000Y-92070000D03*
X147480000Y-91120000D03*
X141780000Y-90170000D03*
X141780000Y-92070000D03*
X143780000Y-91120000D03*
X145530000Y-166720000D03*
X145530000Y-168620000D03*
X147530000Y-167670000D03*
X145530000Y-178120000D03*
X145530000Y-180020000D03*
X147530000Y-179070000D03*
X141830000Y-178120000D03*
X141830000Y-180020000D03*
X143830000Y-179070000D03*
X141830000Y-166720000D03*
X141830000Y-168620000D03*
X143830000Y-167670000D03*
X145530000Y-170520000D03*
X145530000Y-172420000D03*
X147530000Y-171470000D03*
X145530000Y-181920000D03*
X145530000Y-183820000D03*
X147530000Y-182870000D03*
X141830000Y-174320000D03*
X141830000Y-176220000D03*
X143830000Y-175270000D03*
X141830000Y-170520000D03*
X141830000Y-172420000D03*
X143830000Y-171470000D03*
X141830000Y-181920000D03*
X141830000Y-183820000D03*
X143830000Y-182870000D03*
X145530000Y-185720000D03*
X145530000Y-187620000D03*
X147530000Y-186670000D03*
X141830000Y-185720000D03*
X141830000Y-187620000D03*
X143830000Y-186670000D03*
X131450000Y-189550000D03*
X131450000Y-191450000D03*
X133450000Y-190500000D03*
X127700000Y-189550000D03*
X127700000Y-191450000D03*
X129700000Y-190500000D03*
X131450000Y-162300000D03*
X131450000Y-164200000D03*
X133450000Y-163250000D03*
X131400000Y-66850000D03*
X131400000Y-68750000D03*
X133400000Y-67800000D03*
X127700000Y-66850000D03*
X127700000Y-68750000D03*
X129700000Y-67800000D03*
X131400000Y-44050000D03*
X131400000Y-45950000D03*
X133400000Y-45000000D03*
X131400000Y-55450000D03*
X131400000Y-57350000D03*
X133400000Y-56400000D03*
X127700000Y-55450000D03*
X127700000Y-57350000D03*
X129700000Y-56400000D03*
X127700000Y-44050000D03*
X127700000Y-45950000D03*
X129700000Y-45000000D03*
X131400000Y-47850000D03*
X131400000Y-49750000D03*
X133400000Y-48800000D03*
X131400000Y-59250000D03*
X131400000Y-61150000D03*
X133400000Y-60200000D03*
X127700000Y-51650000D03*
X127700000Y-53550000D03*
X129700000Y-52600000D03*
X127700000Y-47850000D03*
X127700000Y-49750000D03*
X129700000Y-48800000D03*
X127700000Y-59250000D03*
X127700000Y-61150000D03*
X129700000Y-60200000D03*
X131400000Y-63050000D03*
X131400000Y-64950000D03*
X133400000Y-64000000D03*
X127700000Y-63050000D03*
X127700000Y-64950000D03*
X129700000Y-64000000D03*
X131425060Y-143277699D03*
X131425060Y-145177699D03*
X133425060Y-144227699D03*
X127725060Y-143277699D03*
X127725060Y-145177699D03*
X129725060Y-144227699D03*
X131425060Y-154677699D03*
X131425060Y-156577699D03*
X133425060Y-155627699D03*
X131425060Y-158477699D03*
X131425060Y-160377699D03*
X133425060Y-159427699D03*
X131425060Y-150877699D03*
X131425060Y-152777699D03*
X133425060Y-151827699D03*
X131425060Y-147077699D03*
X131425060Y-148977699D03*
X133425060Y-148027699D03*
X127725060Y-158477699D03*
X127725060Y-160377699D03*
X129725060Y-159427699D03*
X127725060Y-154677699D03*
X127725060Y-156577699D03*
X129725060Y-155627699D03*
X127725060Y-150877699D03*
X127725060Y-152777699D03*
X129725060Y-151827699D03*
X127725060Y-147077699D03*
X127725060Y-148977699D03*
X129725060Y-148027699D03*
X127725060Y-162277699D03*
X127725060Y-164177699D03*
X129725060Y-163227699D03*
X131400000Y-120450000D03*
X131400000Y-122350000D03*
X133400000Y-121400000D03*
X131400000Y-131850000D03*
X131400000Y-133750000D03*
X133400000Y-132800000D03*
X127700000Y-131850000D03*
X127700000Y-133750000D03*
X129700000Y-132800000D03*
X127700000Y-120450000D03*
X127700000Y-122350000D03*
X129700000Y-121400000D03*
X131400000Y-124250000D03*
X131400000Y-126150000D03*
X133400000Y-125200000D03*
X131400000Y-135650000D03*
X131400000Y-137550000D03*
X133400000Y-136600000D03*
X127700000Y-128050000D03*
X127700000Y-129950000D03*
X129700000Y-129000000D03*
X127700000Y-124250000D03*
X127700000Y-126150000D03*
X129700000Y-125200000D03*
X127700000Y-135650000D03*
X127700000Y-137550000D03*
X129700000Y-136600000D03*
X131400000Y-139450000D03*
X131400000Y-141350000D03*
X133400000Y-140400000D03*
X127700000Y-139450000D03*
X127700000Y-141350000D03*
X129700000Y-140400000D03*
X131500000Y-112550000D03*
X131500000Y-114450000D03*
X133500000Y-113500000D03*
X131400000Y-105050000D03*
X131400000Y-106950000D03*
X133400000Y-106000000D03*
X131400000Y-97550000D03*
X131400000Y-99450000D03*
X133400000Y-98500000D03*
X127800000Y-112550000D03*
X127800000Y-114450000D03*
X129800000Y-113500000D03*
X127700000Y-105050000D03*
X127700000Y-106950000D03*
X129700000Y-106000000D03*
X127700000Y-97550000D03*
X127700000Y-99450000D03*
X129700000Y-98500000D03*
X127800000Y-116350000D03*
X127800000Y-118250000D03*
X129800000Y-117300000D03*
X127700000Y-101250000D03*
X127700000Y-103150000D03*
X129700000Y-102200000D03*
X131400000Y-71150000D03*
X131400000Y-73050000D03*
X133400000Y-72100000D03*
X131400000Y-82550000D03*
X131400000Y-84450000D03*
X133400000Y-83500000D03*
X127700000Y-82550000D03*
X127700000Y-84450000D03*
X129700000Y-83500000D03*
X127700000Y-71150000D03*
X127700000Y-73050000D03*
X129700000Y-72100000D03*
X131400000Y-74950000D03*
X131400000Y-76850000D03*
X133400000Y-75900000D03*
X131400000Y-86350000D03*
X131400000Y-88250000D03*
X133400000Y-87300000D03*
X127700000Y-78750000D03*
X127700000Y-80650000D03*
X129700000Y-79700000D03*
X127700000Y-74950000D03*
X127700000Y-76850000D03*
X129700000Y-75900000D03*
X127700000Y-86350000D03*
X127700000Y-88250000D03*
X129700000Y-87300000D03*
X131400000Y-90150000D03*
X131400000Y-92050000D03*
X133400000Y-91100000D03*
X127700000Y-90150000D03*
X127700000Y-92050000D03*
X129700000Y-91100000D03*
X131450000Y-166700000D03*
X131450000Y-168600000D03*
X133450000Y-167650000D03*
X131450000Y-178100000D03*
X131450000Y-180000000D03*
X133450000Y-179050000D03*
X127750000Y-178100000D03*
X127750000Y-180000000D03*
X129750000Y-179050000D03*
X127750000Y-166700000D03*
X127750000Y-168600000D03*
X129750000Y-167650000D03*
X131450000Y-170500000D03*
X131450000Y-172400000D03*
X133450000Y-171450000D03*
X131450000Y-181900000D03*
X131450000Y-183800000D03*
X133450000Y-182850000D03*
X127750000Y-174300000D03*
X127750000Y-176200000D03*
X129750000Y-175250000D03*
X127750000Y-170500000D03*
X127750000Y-172400000D03*
X129750000Y-171450000D03*
X127750000Y-181900000D03*
X127750000Y-183800000D03*
X129750000Y-182850000D03*
X131450000Y-185700000D03*
X131450000Y-187600000D03*
X133450000Y-186650000D03*
X127750000Y-185700000D03*
X127750000Y-187600000D03*
X129750000Y-186650000D03*
D26*
X66725000Y-144200000D03*
X65075000Y-144200000D03*
X66775000Y-191500000D03*
X65125000Y-191500000D03*
X66775000Y-189450000D03*
X65125000Y-189450000D03*
X66650000Y-45000000D03*
X65000000Y-45000000D03*
X66625000Y-56400000D03*
X64975000Y-56400000D03*
X66625000Y-48800000D03*
X64975000Y-48800000D03*
X66625000Y-60200000D03*
X64975000Y-60200000D03*
X66625000Y-52600000D03*
X64975000Y-52600000D03*
X66625000Y-64000000D03*
X64975000Y-64000000D03*
X66625000Y-94800000D03*
X64975000Y-94800000D03*
X66625000Y-102200000D03*
X64975000Y-102200000D03*
X66609940Y-72112301D03*
X64959940Y-72112301D03*
X66609940Y-83512301D03*
X64959940Y-83512301D03*
X66609940Y-75912301D03*
X64959940Y-75912301D03*
X66609940Y-87312301D03*
X64959940Y-87312301D03*
X66609940Y-79712301D03*
X64959940Y-79712301D03*
X66609940Y-91112301D03*
X64959940Y-91112301D03*
X66675000Y-163250000D03*
X65025000Y-163250000D03*
X66699940Y-121372301D03*
X65049940Y-121372301D03*
X66699940Y-132772301D03*
X65049940Y-132772301D03*
X66699940Y-125172301D03*
X65049940Y-125172301D03*
X66699940Y-136572301D03*
X65049940Y-136572301D03*
X66699940Y-128972301D03*
X65049940Y-128972301D03*
X66699940Y-140372301D03*
X65049940Y-140372301D03*
X66749940Y-167672301D03*
X65099940Y-167672301D03*
X66749940Y-179072301D03*
X65099940Y-179072301D03*
X66749940Y-171472301D03*
X65099940Y-171472301D03*
X66749940Y-182872301D03*
X65099940Y-182872301D03*
X66749940Y-175272301D03*
X65099940Y-175272301D03*
X66749940Y-186672301D03*
X65099940Y-186672301D03*
X80725000Y-144200000D03*
X79075000Y-144200000D03*
X80775000Y-191450000D03*
X79125000Y-191450000D03*
X80775000Y-189400000D03*
X79125000Y-189400000D03*
X80579940Y-44992301D03*
X78929940Y-44992301D03*
X80579940Y-56392301D03*
X78929940Y-56392301D03*
X80579940Y-48792301D03*
X78929940Y-48792301D03*
X80579940Y-60192301D03*
X78929940Y-60192301D03*
X80579940Y-52592301D03*
X78929940Y-52592301D03*
X80579940Y-63992301D03*
X78929940Y-63992301D03*
X80585000Y-94800000D03*
X78935000Y-94800000D03*
X80585000Y-102200000D03*
X78935000Y-102200000D03*
X80569940Y-72112301D03*
X78919940Y-72112301D03*
X80569940Y-83512301D03*
X78919940Y-83512301D03*
X80569940Y-75912301D03*
X78919940Y-75912301D03*
X80569940Y-87312301D03*
X78919940Y-87312301D03*
X80569940Y-79712301D03*
X78919940Y-79712301D03*
X80569940Y-91112301D03*
X78919940Y-91112301D03*
X80695000Y-163270000D03*
X79045000Y-163270000D03*
X80719940Y-121392301D03*
X79069940Y-121392301D03*
X80719940Y-132792301D03*
X79069940Y-132792301D03*
X80719940Y-125192301D03*
X79069940Y-125192301D03*
X80719940Y-136592301D03*
X79069940Y-136592301D03*
X80719940Y-128992301D03*
X79069940Y-128992301D03*
X80719940Y-140392301D03*
X79069940Y-140392301D03*
X80750000Y-167675000D03*
X79100000Y-167675000D03*
X80750000Y-179075000D03*
X79100000Y-179075000D03*
X80750000Y-171475000D03*
X79100000Y-171475000D03*
X80750000Y-182875000D03*
X79100000Y-182875000D03*
X80750000Y-175275000D03*
X79100000Y-175275000D03*
X80750000Y-186675000D03*
X79100000Y-186675000D03*
X94625000Y-113600000D03*
X92975000Y-113600000D03*
X94625000Y-191500000D03*
X92975000Y-191500000D03*
X94625000Y-189450000D03*
X92975000Y-189450000D03*
X94565000Y-163260000D03*
X92915000Y-163260000D03*
X94589940Y-121382301D03*
X92939940Y-121382301D03*
X94589940Y-132782301D03*
X92939940Y-132782301D03*
X94589940Y-125182301D03*
X92939940Y-125182301D03*
X94589940Y-136582301D03*
X92939940Y-136582301D03*
X94589940Y-128982301D03*
X92939940Y-128982301D03*
X94589940Y-140382301D03*
X92939940Y-140382301D03*
X94620000Y-167665000D03*
X92970000Y-167665000D03*
X94620000Y-179065000D03*
X92970000Y-179065000D03*
X94620000Y-171465000D03*
X92970000Y-171465000D03*
X94620000Y-182865000D03*
X92970000Y-182865000D03*
X94620000Y-175265000D03*
X92970000Y-175265000D03*
X94620000Y-186665000D03*
X92970000Y-186665000D03*
X108575000Y-113600000D03*
X106925000Y-113600000D03*
X108625000Y-191500000D03*
X106975000Y-191500000D03*
X108625000Y-189400000D03*
X106975000Y-189400000D03*
X108540060Y-163277699D03*
X106890060Y-163277699D03*
X108565000Y-121400000D03*
X106915000Y-121400000D03*
X108565000Y-132800000D03*
X106915000Y-132800000D03*
X108565000Y-125200000D03*
X106915000Y-125200000D03*
X108565000Y-136600000D03*
X106915000Y-136600000D03*
X108565000Y-129000000D03*
X106915000Y-129000000D03*
X108565000Y-140400000D03*
X106915000Y-140400000D03*
X108595060Y-167682699D03*
X106945060Y-167682699D03*
X108595060Y-179082699D03*
X106945060Y-179082699D03*
X108595060Y-171482699D03*
X106945060Y-171482699D03*
X108595060Y-182882699D03*
X106945060Y-182882699D03*
X108595060Y-175282699D03*
X106945060Y-175282699D03*
X108595060Y-186682699D03*
X106945060Y-186682699D03*
X122575000Y-113600000D03*
X120925000Y-113600000D03*
X122625000Y-191500000D03*
X120975000Y-191500000D03*
X122625000Y-189500000D03*
X120975000Y-189500000D03*
X122540060Y-163277699D03*
X120890060Y-163277699D03*
X122565000Y-121400000D03*
X120915000Y-121400000D03*
X122565000Y-132800000D03*
X120915000Y-132800000D03*
X122565000Y-125200000D03*
X120915000Y-125200000D03*
X122565000Y-136600000D03*
X120915000Y-136600000D03*
X122565000Y-129000000D03*
X120915000Y-129000000D03*
X122565000Y-140400000D03*
X120915000Y-140400000D03*
X122595060Y-167682699D03*
X120945060Y-167682699D03*
X122595060Y-179082699D03*
X120945060Y-179082699D03*
X122595060Y-171482699D03*
X120945060Y-171482699D03*
X122595060Y-182882699D03*
X120945060Y-182882699D03*
X122595060Y-175282699D03*
X120945060Y-175282699D03*
X122595060Y-186682699D03*
X120945060Y-186682699D03*
X164625000Y-144150000D03*
X162975000Y-144150000D03*
X164700000Y-191400000D03*
X163050000Y-191400000D03*
X164700000Y-189400000D03*
X163050000Y-189400000D03*
X164625000Y-44900000D03*
X162975000Y-44900000D03*
X164625000Y-56300000D03*
X162975000Y-56300000D03*
X164625000Y-48700000D03*
X162975000Y-48700000D03*
X164625000Y-60100000D03*
X162975000Y-60100000D03*
X164625000Y-52500000D03*
X162975000Y-52500000D03*
X164625000Y-63900000D03*
X162975000Y-63900000D03*
X164705000Y-161850000D03*
X163055000Y-161850000D03*
X164625000Y-121300000D03*
X162975000Y-121300000D03*
X164625000Y-132700000D03*
X162975000Y-132700000D03*
X164625000Y-125100000D03*
X162975000Y-125100000D03*
X164625000Y-136500000D03*
X162975000Y-136500000D03*
X164625000Y-128900000D03*
X162975000Y-128900000D03*
X164625000Y-140300000D03*
X162975000Y-140300000D03*
X164625000Y-94880000D03*
X162975000Y-94880000D03*
X164625000Y-102100000D03*
X162975000Y-102100000D03*
X164625000Y-72000000D03*
X162975000Y-72000000D03*
X164625000Y-83400000D03*
X162975000Y-83400000D03*
X164625000Y-75800000D03*
X162975000Y-75800000D03*
X164625000Y-87200000D03*
X162975000Y-87200000D03*
X164625000Y-79600000D03*
X162975000Y-79600000D03*
X164625000Y-91000000D03*
X162975000Y-91000000D03*
X164675000Y-167550000D03*
X163025000Y-167550000D03*
X164675000Y-178950000D03*
X163025000Y-178950000D03*
X164675000Y-171350000D03*
X163025000Y-171350000D03*
X164675000Y-182750000D03*
X163025000Y-182750000D03*
X164675000Y-175150000D03*
X163025000Y-175150000D03*
X164675000Y-186550000D03*
X163025000Y-186550000D03*
X178625000Y-144250000D03*
X176975000Y-144250000D03*
X178700000Y-191500000D03*
X177050000Y-191500000D03*
X178700000Y-189500000D03*
X177050000Y-189500000D03*
X178625000Y-45000000D03*
X176975000Y-45000000D03*
X178625000Y-56400000D03*
X176975000Y-56400000D03*
X178625000Y-48800000D03*
X176975000Y-48800000D03*
X178625000Y-60200000D03*
X176975000Y-60200000D03*
X178625000Y-52600000D03*
X176975000Y-52600000D03*
X178625000Y-64000000D03*
X176975000Y-64000000D03*
X178705000Y-161950000D03*
X177055000Y-161950000D03*
X178625000Y-121400000D03*
X176975000Y-121400000D03*
X178625000Y-132800000D03*
X176975000Y-132800000D03*
X178625000Y-125200000D03*
X176975000Y-125200000D03*
X178625000Y-136600000D03*
X176975000Y-136600000D03*
X178625000Y-129000000D03*
X176975000Y-129000000D03*
X178625000Y-140400000D03*
X176975000Y-140400000D03*
X178625000Y-94980000D03*
X176975000Y-94980000D03*
X178625000Y-102200000D03*
X176975000Y-102200000D03*
X178625000Y-72100000D03*
X176975000Y-72100000D03*
X178625000Y-83500000D03*
X176975000Y-83500000D03*
X178625000Y-75900000D03*
X176975000Y-75900000D03*
X178625000Y-87300000D03*
X176975000Y-87300000D03*
X178625000Y-79700000D03*
X176975000Y-79700000D03*
X178625000Y-91100000D03*
X176975000Y-91100000D03*
X178675000Y-167650000D03*
X177025000Y-167650000D03*
X178675000Y-179050000D03*
X177025000Y-179050000D03*
X178675000Y-171450000D03*
X177025000Y-171450000D03*
X178675000Y-182850000D03*
X177025000Y-182850000D03*
X178675000Y-175250000D03*
X177025000Y-175250000D03*
X178675000Y-186650000D03*
X177025000Y-186650000D03*
X206625000Y-144250000D03*
X204975000Y-144250000D03*
X206700000Y-191500000D03*
X205050000Y-191500000D03*
X206700000Y-189500000D03*
X205050000Y-189500000D03*
X206625000Y-45000000D03*
X204975000Y-45000000D03*
X206625000Y-56400000D03*
X204975000Y-56400000D03*
X206625000Y-48800000D03*
X204975000Y-48800000D03*
X206625000Y-60200000D03*
X204975000Y-60200000D03*
X206625000Y-52600000D03*
X204975000Y-52600000D03*
X206625000Y-64000000D03*
X204975000Y-64000000D03*
X206705000Y-161950000D03*
X205055000Y-161950000D03*
X206625000Y-121400000D03*
X204975000Y-121400000D03*
X206625000Y-132800000D03*
X204975000Y-132800000D03*
X206625000Y-125200000D03*
X204975000Y-125200000D03*
X206625000Y-136600000D03*
X204975000Y-136600000D03*
X206625000Y-129000000D03*
X204975000Y-129000000D03*
X206625000Y-140400000D03*
X204975000Y-140400000D03*
X206625000Y-94980000D03*
X204975000Y-94980000D03*
X206625000Y-102200000D03*
X204975000Y-102200000D03*
X206625000Y-72100000D03*
X204975000Y-72100000D03*
X206625000Y-83500000D03*
X204975000Y-83500000D03*
X206625000Y-75900000D03*
X204975000Y-75900000D03*
X206625000Y-87300000D03*
X204975000Y-87300000D03*
X206625000Y-79700000D03*
X204975000Y-79700000D03*
X206625000Y-91100000D03*
X204975000Y-91100000D03*
X206675000Y-167650000D03*
X205025000Y-167650000D03*
X206675000Y-179050000D03*
X205025000Y-179050000D03*
X206675000Y-171450000D03*
X205025000Y-171450000D03*
X206675000Y-182850000D03*
X205025000Y-182850000D03*
X206675000Y-175250000D03*
X205025000Y-175250000D03*
X206675000Y-186650000D03*
X205025000Y-186650000D03*
X220625000Y-144250000D03*
X218975000Y-144250000D03*
X220700000Y-191500000D03*
X219050000Y-191500000D03*
X220700000Y-189500000D03*
X219050000Y-189500000D03*
X220625000Y-45000000D03*
X218975000Y-45000000D03*
X220625000Y-56400000D03*
X218975000Y-56400000D03*
X220625000Y-48800000D03*
X218975000Y-48800000D03*
X220625000Y-60200000D03*
X218975000Y-60200000D03*
X220625000Y-52600000D03*
X218975000Y-52600000D03*
X220625000Y-64000000D03*
X218975000Y-64000000D03*
X220705000Y-161950000D03*
X219055000Y-161950000D03*
X220625000Y-121400000D03*
X218975000Y-121400000D03*
X220625000Y-132800000D03*
X218975000Y-132800000D03*
X220625000Y-125200000D03*
X218975000Y-125200000D03*
X220625000Y-136600000D03*
X218975000Y-136600000D03*
X220625000Y-129000000D03*
X218975000Y-129000000D03*
X220625000Y-140400000D03*
X218975000Y-140400000D03*
X220625000Y-94980000D03*
X218975000Y-94980000D03*
X220625000Y-102200000D03*
X218975000Y-102200000D03*
X220625000Y-72100000D03*
X218975000Y-72100000D03*
X220625000Y-83500000D03*
X218975000Y-83500000D03*
X220625000Y-75900000D03*
X218975000Y-75900000D03*
X220625000Y-87300000D03*
X218975000Y-87300000D03*
X220625000Y-79700000D03*
X218975000Y-79700000D03*
X220625000Y-91100000D03*
X218975000Y-91100000D03*
X220675000Y-167650000D03*
X219025000Y-167650000D03*
X220675000Y-179050000D03*
X219025000Y-179050000D03*
X220675000Y-171450000D03*
X219025000Y-171450000D03*
X220675000Y-182850000D03*
X219025000Y-182850000D03*
X220675000Y-175250000D03*
X219025000Y-175250000D03*
X220675000Y-186650000D03*
X219025000Y-186650000D03*
X214825000Y-243300000D03*
X213175000Y-243300000D03*
X232925000Y-241200000D03*
X231275000Y-241200000D03*
X214825000Y-241500000D03*
X213175000Y-241500000D03*
D27*
X237000000Y-153775000D03*
X237000000Y-155425000D03*
X237000000Y-157475000D03*
X237000000Y-159125000D03*
X237000000Y-161275000D03*
X237000000Y-162925000D03*
X236900000Y-176675000D03*
X236900000Y-178325000D03*
X237000000Y-165175000D03*
X237000000Y-166825000D03*
X236900000Y-180475000D03*
X236900000Y-182125000D03*
X117900000Y-232675000D03*
X117900000Y-234325000D03*
D26*
X192625000Y-144250000D03*
X190975000Y-144250000D03*
X192700000Y-191500000D03*
X191050000Y-191500000D03*
X192700000Y-189500000D03*
X191050000Y-189500000D03*
X192625000Y-45000000D03*
X190975000Y-45000000D03*
X192625000Y-56400000D03*
X190975000Y-56400000D03*
X192625000Y-48800000D03*
X190975000Y-48800000D03*
X192625000Y-60200000D03*
X190975000Y-60200000D03*
X192625000Y-52600000D03*
X190975000Y-52600000D03*
X192625000Y-64000000D03*
X190975000Y-64000000D03*
X192705000Y-161950000D03*
X191055000Y-161950000D03*
X192625000Y-121400000D03*
X190975000Y-121400000D03*
X192625000Y-132800000D03*
X190975000Y-132800000D03*
X192625000Y-125200000D03*
X190975000Y-125200000D03*
X192625000Y-136600000D03*
X190975000Y-136600000D03*
X192625000Y-129000000D03*
X190975000Y-129000000D03*
X192625000Y-140400000D03*
X190975000Y-140400000D03*
X192625000Y-94980000D03*
X190975000Y-94980000D03*
X192625000Y-102200000D03*
X190975000Y-102200000D03*
X192625000Y-72100000D03*
X190975000Y-72100000D03*
X192625000Y-83500000D03*
X190975000Y-83500000D03*
X192625000Y-75900000D03*
X190975000Y-75900000D03*
X192625000Y-87300000D03*
X190975000Y-87300000D03*
X192625000Y-79700000D03*
X190975000Y-79700000D03*
X192625000Y-91100000D03*
X190975000Y-91100000D03*
X192675000Y-167650000D03*
X191025000Y-167650000D03*
X192675000Y-179050000D03*
X191025000Y-179050000D03*
X192675000Y-171450000D03*
X191025000Y-171450000D03*
X192675000Y-182850000D03*
X191025000Y-182850000D03*
X192675000Y-175250000D03*
X191025000Y-175250000D03*
X192675000Y-186650000D03*
X191025000Y-186650000D03*
D28*
X236890000Y-197375000D03*
X236890000Y-195725000D03*
X231500000Y-149625000D03*
X231500000Y-147975000D03*
D27*
X231500000Y-136875000D03*
X231500000Y-138525000D03*
D26*
X150705000Y-144270000D03*
X149055000Y-144270000D03*
X150780000Y-191520000D03*
X149130000Y-191520000D03*
X150780000Y-189520000D03*
X149130000Y-189520000D03*
X150705000Y-45020000D03*
X149055000Y-45020000D03*
X150705000Y-56420000D03*
X149055000Y-56420000D03*
X150705000Y-48820000D03*
X149055000Y-48820000D03*
X150705000Y-60220000D03*
X149055000Y-60220000D03*
X150705000Y-52620000D03*
X149055000Y-52620000D03*
X150705000Y-64020000D03*
X149055000Y-64020000D03*
X150785000Y-161970000D03*
X149135000Y-161970000D03*
X150705000Y-121420000D03*
X149055000Y-121420000D03*
X150705000Y-132820000D03*
X149055000Y-132820000D03*
X150705000Y-125220000D03*
X149055000Y-125220000D03*
X150705000Y-136620000D03*
X149055000Y-136620000D03*
X150705000Y-129020000D03*
X149055000Y-129020000D03*
X150705000Y-140420000D03*
X149055000Y-140420000D03*
X150705000Y-95000000D03*
X149055000Y-95000000D03*
X150705000Y-102220000D03*
X149055000Y-102220000D03*
X150705000Y-72120000D03*
X149055000Y-72120000D03*
X150705000Y-83520000D03*
X149055000Y-83520000D03*
X150705000Y-75920000D03*
X149055000Y-75920000D03*
X150705000Y-87320000D03*
X149055000Y-87320000D03*
X150705000Y-79720000D03*
X149055000Y-79720000D03*
X150705000Y-91120000D03*
X149055000Y-91120000D03*
X150755000Y-167670000D03*
X149105000Y-167670000D03*
X150755000Y-179070000D03*
X149105000Y-179070000D03*
X150755000Y-171470000D03*
X149105000Y-171470000D03*
X150755000Y-182870000D03*
X149105000Y-182870000D03*
X150755000Y-175270000D03*
X149105000Y-175270000D03*
X150755000Y-186670000D03*
X149105000Y-186670000D03*
X136625000Y-144250000D03*
X134975000Y-144250000D03*
X136700000Y-191500000D03*
X135050000Y-191500000D03*
X136700000Y-189500000D03*
X135050000Y-189500000D03*
X136625000Y-45000000D03*
X134975000Y-45000000D03*
X136625000Y-56400000D03*
X134975000Y-56400000D03*
X136625000Y-48800000D03*
X134975000Y-48800000D03*
X136625000Y-60200000D03*
X134975000Y-60200000D03*
X136625000Y-52600000D03*
X134975000Y-52600000D03*
X136625000Y-64000000D03*
X134975000Y-64000000D03*
X136625000Y-161950000D03*
X134975000Y-161950000D03*
X136625000Y-121400000D03*
X134975000Y-121400000D03*
X136625000Y-132800000D03*
X134975000Y-132800000D03*
X136625000Y-125200000D03*
X134975000Y-125200000D03*
X136625000Y-136600000D03*
X134975000Y-136600000D03*
X136625000Y-129000000D03*
X134975000Y-129000000D03*
X136625000Y-140400000D03*
X134975000Y-140400000D03*
X136625000Y-94800000D03*
X134975000Y-94800000D03*
X136625000Y-102200000D03*
X134975000Y-102200000D03*
X136625000Y-72100000D03*
X134975000Y-72100000D03*
X136625000Y-83500000D03*
X134975000Y-83500000D03*
X136625000Y-75900000D03*
X134975000Y-75900000D03*
X136625000Y-87300000D03*
X134975000Y-87300000D03*
X136625000Y-79700000D03*
X134975000Y-79700000D03*
X136625000Y-91100000D03*
X134975000Y-91100000D03*
X136675000Y-167650000D03*
X135025000Y-167650000D03*
X136675000Y-179050000D03*
X135025000Y-179050000D03*
X136675000Y-171450000D03*
X135025000Y-171450000D03*
X136675000Y-182850000D03*
X135025000Y-182850000D03*
X136675000Y-175250000D03*
X135025000Y-175250000D03*
X136675000Y-186650000D03*
X135025000Y-186650000D03*
D29*
X231980000Y-299550000D03*
X224020000Y-299550000D03*
X224020000Y-304050000D03*
X231980000Y-304050000D03*
X188620000Y-303150000D03*
X196580000Y-303150000D03*
X196580000Y-307650000D03*
X188620000Y-307650000D03*
X196580000Y-295950000D03*
X188620000Y-295950000D03*
X196580000Y-300450000D03*
X188620000Y-300450000D03*
D17*
X225750000Y-137700000D03*
X229050000Y-137700000D03*
D25*
X99400000Y-232750000D03*
X99400000Y-234650000D03*
X101400000Y-233700000D03*
X106800000Y-232650000D03*
X106800000Y-234550000D03*
X108800000Y-233600000D03*
D27*
X110500000Y-232775000D03*
X110500000Y-234425000D03*
D25*
X229400000Y-70550000D03*
X229400000Y-72450000D03*
X231400000Y-71500000D03*
X225700000Y-85750000D03*
X225700000Y-87650000D03*
X227700000Y-86700000D03*
X229400000Y-85750000D03*
X229400000Y-87650000D03*
X231400000Y-86700000D03*
X225700000Y-62950000D03*
X225700000Y-64850000D03*
X227700000Y-63900000D03*
X229400000Y-62950000D03*
X229400000Y-64850000D03*
X231400000Y-63900000D03*
X225700000Y-78150000D03*
X225700000Y-80050000D03*
X227700000Y-79100000D03*
X229400000Y-78150000D03*
X229400000Y-80050000D03*
X231400000Y-79100000D03*
X225700000Y-66750000D03*
X225700000Y-68650000D03*
X227700000Y-67700000D03*
X229400000Y-66750000D03*
X229400000Y-68650000D03*
X231400000Y-67700000D03*
X225700000Y-81950000D03*
X225700000Y-83850000D03*
X227700000Y-82900000D03*
X229400000Y-81950000D03*
X229400000Y-83850000D03*
X231400000Y-82900000D03*
X225700000Y-89550000D03*
X225700000Y-91450000D03*
X227700000Y-90500000D03*
X229400000Y-89550000D03*
X229400000Y-91450000D03*
X231400000Y-90500000D03*
X229400000Y-119950000D03*
X229400000Y-121850000D03*
X231400000Y-120900000D03*
X229400000Y-127450000D03*
X229400000Y-129350000D03*
X231400000Y-128400000D03*
X229400000Y-131250000D03*
X229400000Y-133150000D03*
X231400000Y-132200000D03*
X229400000Y-97150000D03*
X229400000Y-99050000D03*
X231400000Y-98100000D03*
X229400000Y-100950000D03*
X229400000Y-102850000D03*
X231400000Y-101900000D03*
X229400000Y-108550000D03*
X229400000Y-110450000D03*
X231400000Y-109500000D03*
X229400000Y-112350000D03*
X229400000Y-114250000D03*
X231400000Y-113300000D03*
X229500000Y-93350000D03*
X229500000Y-95250000D03*
X231500000Y-94300000D03*
X225700000Y-131250000D03*
X225700000Y-133150000D03*
X227700000Y-132200000D03*
X225700000Y-97150000D03*
X225700000Y-99050000D03*
X227700000Y-98100000D03*
X225700000Y-100950000D03*
X225700000Y-102850000D03*
X227700000Y-101900000D03*
X225700000Y-108550000D03*
X225700000Y-110450000D03*
X227700000Y-109500000D03*
X225700000Y-112350000D03*
X225700000Y-114250000D03*
X227700000Y-113300000D03*
X225700000Y-116150000D03*
X225700000Y-118050000D03*
X227700000Y-117100000D03*
X225700000Y-59150000D03*
X225700000Y-61050000D03*
X227700000Y-60100000D03*
X229400000Y-59150000D03*
X229400000Y-61050000D03*
X231400000Y-60100000D03*
X225700000Y-74350000D03*
X225700000Y-76250000D03*
X227700000Y-75300000D03*
X229400000Y-74350000D03*
X229400000Y-76250000D03*
X231400000Y-75300000D03*
X225700000Y-70550000D03*
X225700000Y-72450000D03*
X227700000Y-71500000D03*
X225700000Y-123650000D03*
X225700000Y-125550000D03*
X227700000Y-124600000D03*
X225700000Y-93350000D03*
X225700000Y-95250000D03*
X227700000Y-94300000D03*
X225700000Y-104750000D03*
X225700000Y-106650000D03*
X227700000Y-105700000D03*
D27*
X233100000Y-59275000D03*
X233100000Y-60925000D03*
X233100000Y-74475000D03*
X233100000Y-76125000D03*
X233100000Y-70675000D03*
X233100000Y-72325000D03*
X233100000Y-85975000D03*
X233100000Y-87625000D03*
X233100000Y-63075000D03*
X233100000Y-64725000D03*
X233100000Y-78250000D03*
X233100000Y-79900000D03*
X233100000Y-66775000D03*
X233100000Y-68425000D03*
X233100000Y-81975000D03*
X233100000Y-83625000D03*
X233100000Y-89575000D03*
X233100000Y-91225000D03*
X233100000Y-120075000D03*
X233100000Y-121725000D03*
X233200000Y-97275000D03*
X233200000Y-98925000D03*
X233200000Y-93475000D03*
X233200000Y-95125000D03*
D25*
X225700000Y-119950000D03*
X225700000Y-121850000D03*
X227700000Y-120900000D03*
X225700000Y-127450000D03*
X225700000Y-129350000D03*
X227700000Y-128400000D03*
X57824940Y-178122301D03*
X57824940Y-180022301D03*
X59824940Y-179072301D03*
D30*
X149897056Y-231302944D03*
X149897056Y-234697056D03*
X150600000Y-233000000D03*
X148200000Y-235400000D03*
X146502944Y-234697056D03*
X146502944Y-231302944D03*
X148200000Y-230600000D03*
X145800000Y-233000000D03*
D31*
X148200000Y-233000000D03*
D32*
X61824000Y-305900000D03*
D33*
X60724000Y-300750000D03*
D32*
X61824000Y-302900000D03*
D33*
X62934000Y-300750000D03*
X60724000Y-308050000D03*
X62934000Y-308050000D03*
D34*
X63584000Y-302150000D03*
X63584000Y-305150000D03*
X63584000Y-306650000D03*
D25*
X75354940Y-66842301D03*
X75354940Y-68742301D03*
X77354940Y-67792301D03*
D11*
X127250000Y-236450000D03*
X129150000Y-236450000D03*
D14*
X61062500Y-294000000D03*
X62937500Y-294000000D03*
X61062500Y-297600000D03*
X62937500Y-297600000D03*
D30*
X52700000Y-36000000D03*
D31*
X52700000Y-38400000D03*
D30*
X54397056Y-40097056D03*
X51002944Y-40097056D03*
X54397056Y-36702944D03*
X51002944Y-36702944D03*
X55100000Y-38400000D03*
X50300000Y-38400000D03*
X52700000Y-40800000D03*
X52700000Y-307000000D03*
X55100000Y-309400000D03*
X52700000Y-311800000D03*
D31*
X52700000Y-309400000D03*
D30*
X50300000Y-309400000D03*
X54397056Y-311097056D03*
X54397056Y-307702944D03*
X51002944Y-307702944D03*
X51002944Y-311097056D03*
X243700000Y-36000000D03*
X242002944Y-40097056D03*
X241300000Y-38400000D03*
X243700000Y-40800000D03*
X245397056Y-36702944D03*
X246100000Y-38400000D03*
X242002944Y-36702944D03*
X245397056Y-40097056D03*
D31*
X243700000Y-38400000D03*
D30*
X242002944Y-307702944D03*
X241300000Y-309400000D03*
X242002944Y-311097056D03*
D31*
X243700000Y-309400000D03*
D30*
X246100000Y-309400000D03*
X245397056Y-307702944D03*
X243700000Y-307000000D03*
X243700000Y-311800000D03*
X245397056Y-311097056D03*
D25*
X127150000Y-232500000D03*
X127150000Y-234400000D03*
X129150000Y-233450000D03*
X134500000Y-232500000D03*
X134500000Y-234400000D03*
X136500000Y-233450000D03*
X130800000Y-232500000D03*
X130800000Y-234400000D03*
X132800000Y-233450000D03*
D35*
X66350000Y-286100000D03*
X64450000Y-286100000D03*
X65400000Y-288100000D03*
D27*
X138200000Y-232525000D03*
X138200000Y-234175000D03*
D26*
X132625000Y-236400000D03*
X130975000Y-236400000D03*
D36*
X61025000Y-289800000D03*
X62675000Y-289800000D03*
X64625000Y-289800000D03*
X66275000Y-289800000D03*
D27*
X173700000Y-221175000D03*
X173700000Y-222825000D03*
D10*
X159900000Y-222050000D03*
X159900000Y-223950000D03*
X163800000Y-222050000D03*
X163800000Y-223950000D03*
D37*
X177200000Y-210600000D03*
D27*
X173700000Y-217475000D03*
X173700000Y-219125000D03*
D25*
X170000000Y-213550000D03*
X170000000Y-215450000D03*
X172000000Y-214500000D03*
X166300000Y-213550000D03*
X166300000Y-215450000D03*
X168300000Y-214500000D03*
D27*
X173800000Y-213675000D03*
X173800000Y-215325000D03*
X73600000Y-213875000D03*
X73600000Y-215525000D03*
X86400000Y-224975000D03*
X86400000Y-226625000D03*
X86400000Y-213675000D03*
X86400000Y-215325000D03*
X73600000Y-228775000D03*
X73600000Y-230425000D03*
D38*
X218593000Y-230445000D03*
X218593000Y-231715000D03*
X218593000Y-232985000D03*
X218593000Y-234255000D03*
X218593000Y-235525000D03*
X218593000Y-236795000D03*
D39*
X218593000Y-238065000D03*
D38*
X218593000Y-239335000D03*
X218593000Y-240605000D03*
X218593000Y-241875000D03*
X218593000Y-243145000D03*
X218593000Y-244415000D03*
X218593000Y-245685000D03*
X218593000Y-246955000D03*
X229007000Y-246955000D03*
X229007000Y-245685000D03*
X229007000Y-244415000D03*
X229007000Y-243145000D03*
X229007000Y-241875000D03*
X229007000Y-240605000D03*
X229007000Y-239335000D03*
X229007000Y-238065000D03*
X229007000Y-236795000D03*
X229007000Y-235525000D03*
X229007000Y-234255000D03*
X229007000Y-232985000D03*
X229007000Y-231715000D03*
X229007000Y-230445000D03*
X200493000Y-230445000D03*
X200493000Y-231715000D03*
X200493000Y-232985000D03*
X200493000Y-234255000D03*
X200493000Y-235525000D03*
X200493000Y-236795000D03*
D39*
X200493000Y-238065000D03*
D38*
X200493000Y-239335000D03*
X200493000Y-240605000D03*
X200493000Y-241875000D03*
X200493000Y-243145000D03*
X200493000Y-244415000D03*
X200493000Y-245685000D03*
X200493000Y-246955000D03*
X210907000Y-246955000D03*
X210907000Y-245685000D03*
X210907000Y-244415000D03*
X210907000Y-243145000D03*
X210907000Y-241875000D03*
X210907000Y-240605000D03*
X210907000Y-239335000D03*
X210907000Y-238065000D03*
X210907000Y-236795000D03*
X210907000Y-235525000D03*
X210907000Y-234255000D03*
X210907000Y-232985000D03*
X210907000Y-231715000D03*
X210907000Y-230445000D03*
D27*
X173700000Y-209775000D03*
X173700000Y-211425000D03*
X138200000Y-213775000D03*
X138200000Y-215425000D03*
X138200000Y-217575000D03*
X138200000Y-219225000D03*
X117900000Y-213775000D03*
X117900000Y-215425000D03*
X117900000Y-217575000D03*
X117900000Y-219225000D03*
X117900000Y-209975000D03*
X117900000Y-211625000D03*
X117900000Y-221375000D03*
X117900000Y-223025000D03*
X138200000Y-221275000D03*
X138200000Y-222925000D03*
X138200000Y-209975000D03*
X138200000Y-211625000D03*
X179400000Y-213575000D03*
X179400000Y-215225000D03*
X117900000Y-228975000D03*
X117900000Y-230625000D03*
X138200000Y-224975000D03*
X138200000Y-226625000D03*
X138200000Y-228875000D03*
X138200000Y-230525000D03*
X73600000Y-209875000D03*
X73600000Y-211525000D03*
X86400000Y-228575000D03*
X86400000Y-230225000D03*
X73600000Y-217475000D03*
X73600000Y-219125000D03*
X73600000Y-221275000D03*
X73600000Y-222925000D03*
X73600000Y-225075000D03*
X73600000Y-226725000D03*
X162100000Y-213675000D03*
X162100000Y-215325000D03*
X162100000Y-217475000D03*
X162100000Y-219125000D03*
X162100000Y-209975000D03*
X162100000Y-211625000D03*
D25*
X170000000Y-221150000D03*
X170000000Y-223050000D03*
X172000000Y-222100000D03*
X170000000Y-224950000D03*
X170000000Y-226850000D03*
X172000000Y-225900000D03*
X69800000Y-217450000D03*
X69800000Y-219350000D03*
X71800000Y-218400000D03*
X69800000Y-221250000D03*
X69800000Y-223150000D03*
X71800000Y-222200000D03*
X82700000Y-224850000D03*
X82700000Y-226750000D03*
X84700000Y-225800000D03*
X82700000Y-213650000D03*
X82700000Y-215550000D03*
X84700000Y-214600000D03*
X66100000Y-213650000D03*
X66100000Y-215550000D03*
X68100000Y-214600000D03*
X66100000Y-217450000D03*
X66100000Y-219350000D03*
X68100000Y-218400000D03*
X66100000Y-221250000D03*
X66100000Y-223150000D03*
X68100000Y-222200000D03*
X66100000Y-225050000D03*
X66100000Y-226950000D03*
X68100000Y-226000000D03*
X62400000Y-213650000D03*
X62400000Y-215550000D03*
X64400000Y-214600000D03*
X62400000Y-221250000D03*
X62400000Y-223150000D03*
X64400000Y-222200000D03*
X58700000Y-213650000D03*
X58700000Y-215550000D03*
X60700000Y-214600000D03*
X66100000Y-209850000D03*
X66100000Y-211750000D03*
X68100000Y-210800000D03*
X58700000Y-209850000D03*
X58700000Y-211750000D03*
X60700000Y-210800000D03*
X62400000Y-209850000D03*
X62400000Y-211750000D03*
X64400000Y-210800000D03*
X69800000Y-209850000D03*
X69800000Y-211750000D03*
X71800000Y-210800000D03*
X69800000Y-228750000D03*
X69800000Y-230650000D03*
X71800000Y-229700000D03*
X66100000Y-228750000D03*
X66100000Y-230650000D03*
X68100000Y-229700000D03*
X82700000Y-228550000D03*
X82700000Y-230450000D03*
X84700000Y-229500000D03*
X130800000Y-221150000D03*
X130800000Y-223050000D03*
X132800000Y-222100000D03*
X134500000Y-221150000D03*
X134500000Y-223050000D03*
X136500000Y-222100000D03*
X175700000Y-213550000D03*
X175700000Y-215450000D03*
X177700000Y-214500000D03*
X130800000Y-209850000D03*
X130800000Y-211750000D03*
X132800000Y-210800000D03*
X134500000Y-209850000D03*
X134500000Y-211750000D03*
X136500000Y-210800000D03*
X103100000Y-228850000D03*
X103100000Y-230750000D03*
X105100000Y-229800000D03*
X114200000Y-228850000D03*
X114200000Y-230750000D03*
X116200000Y-229800000D03*
X106800000Y-228850000D03*
X106800000Y-230750000D03*
X108800000Y-229800000D03*
X99400000Y-228850000D03*
X99400000Y-230750000D03*
X101400000Y-229800000D03*
X110500000Y-228850000D03*
X110500000Y-230750000D03*
X112500000Y-229800000D03*
X130800000Y-224950000D03*
X130800000Y-226850000D03*
X132800000Y-225900000D03*
X134500000Y-224950000D03*
X134500000Y-226850000D03*
X136500000Y-225900000D03*
X95700000Y-228850000D03*
X95700000Y-230750000D03*
X97700000Y-229800000D03*
X134500000Y-228750000D03*
X134500000Y-230650000D03*
X136500000Y-229700000D03*
X130800000Y-228750000D03*
X130800000Y-230650000D03*
X132800000Y-229700000D03*
X110500000Y-213650000D03*
X110500000Y-215550000D03*
X112500000Y-214600000D03*
X114200000Y-213650000D03*
X114200000Y-215550000D03*
X116200000Y-214600000D03*
X99400000Y-221250000D03*
X99400000Y-223150000D03*
X101400000Y-222200000D03*
X103100000Y-221250000D03*
X103100000Y-223150000D03*
X105100000Y-222200000D03*
X106800000Y-221250000D03*
X106800000Y-223150000D03*
X108800000Y-222200000D03*
X110500000Y-221250000D03*
X110500000Y-223150000D03*
X112500000Y-222200000D03*
X114200000Y-221250000D03*
X114200000Y-223150000D03*
X116200000Y-222200000D03*
X114200000Y-225050000D03*
X114200000Y-226950000D03*
X116200000Y-226000000D03*
X106800000Y-213650000D03*
X106800000Y-215550000D03*
X108800000Y-214600000D03*
X110500000Y-225050000D03*
X110500000Y-226950000D03*
X112500000Y-226000000D03*
X103100000Y-213650000D03*
X103100000Y-215550000D03*
X105100000Y-214600000D03*
X106800000Y-217450000D03*
X106800000Y-219350000D03*
X108800000Y-218400000D03*
X110500000Y-217450000D03*
X110500000Y-219350000D03*
X112500000Y-218400000D03*
X114200000Y-217450000D03*
X114200000Y-219350000D03*
X116200000Y-218400000D03*
X99400000Y-213650000D03*
X99400000Y-215550000D03*
X101400000Y-214600000D03*
X103100000Y-217450000D03*
X103100000Y-219350000D03*
X105100000Y-218400000D03*
X114200000Y-209850000D03*
X114200000Y-211750000D03*
X116200000Y-210800000D03*
X110500000Y-209850000D03*
X110500000Y-211750000D03*
X112500000Y-210800000D03*
X106800000Y-209850000D03*
X106800000Y-211750000D03*
X108800000Y-210800000D03*
X103100000Y-209850000D03*
X103100000Y-211750000D03*
X105100000Y-210800000D03*
X130800000Y-217450000D03*
X130800000Y-219350000D03*
X132800000Y-218400000D03*
X134500000Y-217450000D03*
X134500000Y-219350000D03*
X136500000Y-218400000D03*
X130800000Y-213650000D03*
X130800000Y-215550000D03*
X132800000Y-214600000D03*
X134500000Y-213650000D03*
X134500000Y-215550000D03*
X136500000Y-214600000D03*
X99400000Y-209850000D03*
X99400000Y-211750000D03*
X101400000Y-210800000D03*
X95700000Y-209850000D03*
X95700000Y-211750000D03*
X97700000Y-210800000D03*
X158300000Y-217450000D03*
X158300000Y-219350000D03*
X160300000Y-218400000D03*
X158300000Y-213650000D03*
X158300000Y-215550000D03*
X160300000Y-214600000D03*
X158300000Y-209850000D03*
X158300000Y-211750000D03*
X160300000Y-210800000D03*
X170000000Y-209750000D03*
X170000000Y-211650000D03*
X172000000Y-210700000D03*
X154600000Y-209850000D03*
X154600000Y-211750000D03*
X156600000Y-210800000D03*
X170000000Y-217350000D03*
X170000000Y-219250000D03*
X172000000Y-218300000D03*
X166300000Y-217350000D03*
X166300000Y-219250000D03*
X168300000Y-218300000D03*
D27*
X161050000Y-287575000D03*
X161050000Y-289225000D03*
D29*
X134280000Y-294250000D03*
X126320000Y-294250000D03*
X134280000Y-298750000D03*
X126320000Y-298750000D03*
D17*
X63550000Y-243900000D03*
X66850000Y-243900000D03*
X68450000Y-245300000D03*
X71750000Y-245300000D03*
X63550000Y-241400000D03*
X66850000Y-241400000D03*
X63550000Y-238800000D03*
X66850000Y-238800000D03*
X68450000Y-240000000D03*
X71750000Y-240000000D03*
X63650000Y-261700000D03*
X66950000Y-261700000D03*
X63650000Y-259200000D03*
X66950000Y-259200000D03*
X68550000Y-257800000D03*
X71850000Y-257800000D03*
X63650000Y-249000000D03*
X66950000Y-249000000D03*
X63650000Y-251550000D03*
X66950000Y-251550000D03*
X63650000Y-256600000D03*
X66950000Y-256600000D03*
X68550000Y-260300000D03*
X71850000Y-260300000D03*
X68550000Y-255300000D03*
X71850000Y-255300000D03*
D14*
X70662500Y-294100000D03*
X72537500Y-294100000D03*
X65862500Y-297600000D03*
X67737500Y-297600000D03*
X70662500Y-297500000D03*
X72537500Y-297500000D03*
X75462500Y-294100000D03*
X77337500Y-294100000D03*
X82062500Y-294100000D03*
X83937500Y-294100000D03*
X86862500Y-294100000D03*
X88737500Y-294100000D03*
X75462500Y-297500000D03*
X77337500Y-297500000D03*
X82062500Y-297500000D03*
X83937500Y-297500000D03*
X86862500Y-297500000D03*
X88737500Y-297500000D03*
D35*
X69950000Y-286100000D03*
X68050000Y-286100000D03*
X69000000Y-288100000D03*
X77150000Y-286100000D03*
X75250000Y-286100000D03*
X76200000Y-288100000D03*
X73550000Y-286100000D03*
X71650000Y-286100000D03*
X72600000Y-288100000D03*
X84350000Y-286100000D03*
X82450000Y-286100000D03*
X83400000Y-288100000D03*
X91550000Y-286100000D03*
X89650000Y-286100000D03*
X90600000Y-288100000D03*
X98750000Y-286100000D03*
X96850000Y-286100000D03*
X97800000Y-288100000D03*
X87950000Y-286100000D03*
X86050000Y-286100000D03*
X87000000Y-288100000D03*
X95150000Y-286100000D03*
X93250000Y-286100000D03*
X94200000Y-288100000D03*
X102350000Y-286100000D03*
X100450000Y-286100000D03*
X101400000Y-288100000D03*
D36*
X68175000Y-289800000D03*
X69825000Y-289800000D03*
X75275000Y-289800000D03*
X76925000Y-289800000D03*
X71775000Y-289800000D03*
X73425000Y-289800000D03*
X78975000Y-289800000D03*
X80625000Y-289800000D03*
X82575000Y-289800000D03*
X84225000Y-289800000D03*
X89875000Y-289800000D03*
X91525000Y-289800000D03*
X96975000Y-289800000D03*
X98625000Y-289800000D03*
X86175000Y-289800000D03*
X87825000Y-289800000D03*
X93375000Y-289800000D03*
X95025000Y-289800000D03*
X100575000Y-289800000D03*
X102225000Y-289800000D03*
D33*
X65524000Y-308050000D03*
X67734000Y-308050000D03*
D32*
X66624000Y-305900000D03*
D33*
X67734000Y-300750000D03*
X65524000Y-300750000D03*
D32*
X66624000Y-302900000D03*
D34*
X68384000Y-302150000D03*
X68384000Y-305150000D03*
X68384000Y-306650000D03*
D33*
X72534000Y-300750000D03*
X70324000Y-300750000D03*
X70324000Y-308050000D03*
D32*
X71424000Y-302900000D03*
X71424000Y-305900000D03*
D33*
X72534000Y-308050000D03*
D34*
X73184000Y-302150000D03*
X73184000Y-305150000D03*
X73184000Y-306650000D03*
D33*
X77334000Y-300750000D03*
X75124000Y-300750000D03*
X77334000Y-308050000D03*
D32*
X76224000Y-305900000D03*
X76224000Y-302900000D03*
D33*
X75124000Y-308050000D03*
D34*
X77984000Y-302150000D03*
X77984000Y-305150000D03*
X77984000Y-306650000D03*
D33*
X83934000Y-300750000D03*
X83934000Y-308050000D03*
D32*
X82824000Y-305900000D03*
D33*
X81724000Y-308050000D03*
X81724000Y-300750000D03*
D32*
X82824000Y-302900000D03*
D34*
X84584000Y-302150000D03*
X84584000Y-305150000D03*
X84584000Y-306650000D03*
D35*
X80750000Y-286100000D03*
X78850000Y-286100000D03*
X79800000Y-288100000D03*
X62750000Y-286100000D03*
X60850000Y-286100000D03*
X61800000Y-288100000D03*
D14*
X65862500Y-294100000D03*
X67737500Y-294100000D03*
X89387440Y-52582301D03*
X91262440Y-52582301D03*
X89377440Y-79702301D03*
X91252440Y-79702301D03*
X103462500Y-52600000D03*
X105337500Y-52600000D03*
X103452500Y-79720000D03*
X105327500Y-79720000D03*
X117462500Y-52600000D03*
X119337500Y-52600000D03*
X117452500Y-79720000D03*
X119327500Y-79720000D03*
D26*
X108630060Y-94807699D03*
X106980060Y-94807699D03*
X122625000Y-45000000D03*
X120975000Y-45000000D03*
X122625000Y-56400000D03*
X120975000Y-56400000D03*
X108625000Y-64000000D03*
X106975000Y-64000000D03*
X108615000Y-83520000D03*
X106965000Y-83520000D03*
X108615000Y-75920000D03*
X106965000Y-75920000D03*
X122625000Y-48800000D03*
X120975000Y-48800000D03*
X122625000Y-60200000D03*
X120975000Y-60200000D03*
X122625000Y-52600000D03*
X120975000Y-52600000D03*
X122625000Y-64000000D03*
X120975000Y-64000000D03*
X122630060Y-94807699D03*
X120980060Y-94807699D03*
X122530060Y-102207699D03*
X120880060Y-102207699D03*
X122615000Y-72120000D03*
X120965000Y-72120000D03*
X108615000Y-91120000D03*
X106965000Y-91120000D03*
X108530060Y-102207699D03*
X106880060Y-102207699D03*
X108615000Y-72120000D03*
X106965000Y-72120000D03*
X122615000Y-79720000D03*
X120965000Y-79720000D03*
X122615000Y-91120000D03*
X120965000Y-91120000D03*
X108625000Y-52600000D03*
X106975000Y-52600000D03*
X108615000Y-87320000D03*
X106965000Y-87320000D03*
X108615000Y-79720000D03*
X106965000Y-79720000D03*
X122615000Y-83520000D03*
X120965000Y-83520000D03*
X122615000Y-75920000D03*
X120965000Y-75920000D03*
X122615000Y-87320000D03*
X120965000Y-87320000D03*
X94549940Y-48782301D03*
X92899940Y-48782301D03*
X94539940Y-72102301D03*
X92889940Y-72102301D03*
X94539940Y-83502301D03*
X92889940Y-83502301D03*
X108625000Y-60200000D03*
X106975000Y-60200000D03*
X94549940Y-60182301D03*
X92899940Y-60182301D03*
X94549940Y-52582301D03*
X92899940Y-52582301D03*
X94549940Y-63982301D03*
X92899940Y-63982301D03*
X94555000Y-94790000D03*
X92905000Y-94790000D03*
X94555000Y-102190000D03*
X92905000Y-102190000D03*
X108625000Y-48800000D03*
X106975000Y-48800000D03*
X108625000Y-56400000D03*
X106975000Y-56400000D03*
X108625000Y-45000000D03*
X106975000Y-45000000D03*
X94539940Y-91102301D03*
X92889940Y-91102301D03*
X94539940Y-87302301D03*
X92889940Y-87302301D03*
X94539940Y-79702301D03*
X92889940Y-79702301D03*
X94539940Y-75902301D03*
X92889940Y-75902301D03*
D25*
X117400000Y-66850000D03*
X117400000Y-68750000D03*
X119400000Y-67800000D03*
X99690000Y-90170000D03*
X99690000Y-92070000D03*
X101690000Y-91120000D03*
X103390000Y-90170000D03*
X103390000Y-92070000D03*
X105390000Y-91120000D03*
X99690000Y-86370000D03*
X99690000Y-88270000D03*
X101690000Y-87320000D03*
X99690000Y-74970000D03*
X99690000Y-76870000D03*
X101690000Y-75920000D03*
X103390000Y-86370000D03*
X103390000Y-88270000D03*
X105390000Y-87320000D03*
X99690000Y-78770000D03*
X99690000Y-80670000D03*
X101690000Y-79720000D03*
X103390000Y-74970000D03*
X103390000Y-76870000D03*
X105390000Y-75920000D03*
X99690000Y-82570000D03*
X99690000Y-84470000D03*
X101690000Y-83520000D03*
X99690000Y-71170000D03*
X99690000Y-73070000D03*
X101690000Y-72120000D03*
X103390000Y-82570000D03*
X103390000Y-84470000D03*
X105390000Y-83520000D03*
X103390000Y-71170000D03*
X103390000Y-73070000D03*
X105390000Y-72120000D03*
X99705060Y-101257699D03*
X99705060Y-103157699D03*
X101705060Y-102207699D03*
X99705060Y-116357699D03*
X99705060Y-118257699D03*
X101705060Y-117307699D03*
X99705060Y-108857699D03*
X99705060Y-110757699D03*
X101705060Y-109807699D03*
X99705060Y-105057699D03*
X99705060Y-106957699D03*
X101705060Y-106007699D03*
X99705060Y-97557699D03*
X99705060Y-99457699D03*
X101705060Y-98507699D03*
X99705060Y-112557699D03*
X99705060Y-114457699D03*
X101705060Y-113507699D03*
X103305060Y-97557699D03*
X103305060Y-99457699D03*
X105305060Y-98507699D03*
X103305060Y-105057699D03*
X103305060Y-106957699D03*
X105305060Y-106007699D03*
X103305060Y-108857699D03*
X103305060Y-110757699D03*
X105305060Y-109807699D03*
X103405060Y-93857699D03*
X103405060Y-95757699D03*
X105405060Y-94807699D03*
X103305060Y-112557699D03*
X103305060Y-114457699D03*
X105305060Y-113507699D03*
X99700000Y-51650000D03*
X99700000Y-53550000D03*
X101700000Y-52600000D03*
X99700000Y-47850000D03*
X99700000Y-49750000D03*
X101700000Y-48800000D03*
X99700000Y-59250000D03*
X99700000Y-61150000D03*
X101700000Y-60200000D03*
X103400000Y-63050000D03*
X103400000Y-64950000D03*
X105400000Y-64000000D03*
X99700000Y-63050000D03*
X99700000Y-64950000D03*
X101700000Y-64000000D03*
X103400000Y-59250000D03*
X103400000Y-61150000D03*
X105400000Y-60200000D03*
X99700000Y-44050000D03*
X99700000Y-45950000D03*
X101700000Y-45000000D03*
X103400000Y-47850000D03*
X103400000Y-49750000D03*
X105400000Y-48800000D03*
X99700000Y-55450000D03*
X99700000Y-57350000D03*
X101700000Y-56400000D03*
X103400000Y-44050000D03*
X103400000Y-45950000D03*
X105400000Y-45000000D03*
X103400000Y-55450000D03*
X103400000Y-57350000D03*
X105400000Y-56400000D03*
X99700000Y-66850000D03*
X99700000Y-68750000D03*
X101700000Y-67800000D03*
X103400000Y-66850000D03*
X103400000Y-68750000D03*
X105400000Y-67800000D03*
X113690000Y-90170000D03*
X113690000Y-92070000D03*
X115690000Y-91120000D03*
X117390000Y-90170000D03*
X117390000Y-92070000D03*
X119390000Y-91120000D03*
X113690000Y-86370000D03*
X113690000Y-88270000D03*
X115690000Y-87320000D03*
X113690000Y-74970000D03*
X113690000Y-76870000D03*
X115690000Y-75920000D03*
X117390000Y-86370000D03*
X117390000Y-88270000D03*
X119390000Y-87320000D03*
X113690000Y-78770000D03*
X113690000Y-80670000D03*
X115690000Y-79720000D03*
X113690000Y-82570000D03*
X113690000Y-84470000D03*
X115690000Y-83520000D03*
X113690000Y-71170000D03*
X113690000Y-73070000D03*
X115690000Y-72120000D03*
X117390000Y-74970000D03*
X117390000Y-76870000D03*
X119390000Y-75920000D03*
X117390000Y-82570000D03*
X117390000Y-84470000D03*
X119390000Y-83520000D03*
X113705060Y-101257699D03*
X113705060Y-103157699D03*
X115705060Y-102207699D03*
X117390000Y-71170000D03*
X117390000Y-73070000D03*
X119390000Y-72120000D03*
X113705060Y-116357699D03*
X113705060Y-118257699D03*
X115705060Y-117307699D03*
X113705060Y-97557699D03*
X113705060Y-99457699D03*
X115705060Y-98507699D03*
X113705060Y-105057699D03*
X113705060Y-106957699D03*
X115705060Y-106007699D03*
X113705060Y-112557699D03*
X113705060Y-114457699D03*
X115705060Y-113507699D03*
X113705060Y-108857699D03*
X113705060Y-110757699D03*
X115705060Y-109807699D03*
X113700000Y-47850000D03*
X113700000Y-49750000D03*
X115700000Y-48800000D03*
X113700000Y-59250000D03*
X113700000Y-61150000D03*
X115700000Y-60200000D03*
X117400000Y-63050000D03*
X117400000Y-64950000D03*
X119400000Y-64000000D03*
X113700000Y-63050000D03*
X113700000Y-64950000D03*
X115700000Y-64000000D03*
X117305060Y-112557699D03*
X117305060Y-114457699D03*
X119305060Y-113507699D03*
X117405060Y-93857699D03*
X117405060Y-95757699D03*
X119405060Y-94807699D03*
X117305060Y-108857699D03*
X117305060Y-110757699D03*
X119305060Y-109807699D03*
X117305060Y-105057699D03*
X117305060Y-106957699D03*
X119305060Y-106007699D03*
X117305060Y-97557699D03*
X117305060Y-99457699D03*
X119305060Y-98507699D03*
X113700000Y-51650000D03*
X113700000Y-53550000D03*
X115700000Y-52600000D03*
X117400000Y-44050000D03*
X117400000Y-45950000D03*
X119400000Y-45000000D03*
X117400000Y-55450000D03*
X117400000Y-57350000D03*
X119400000Y-56400000D03*
X113700000Y-55450000D03*
X113700000Y-57350000D03*
X115700000Y-56400000D03*
X113700000Y-44050000D03*
X113700000Y-45950000D03*
X115700000Y-45000000D03*
X117400000Y-47850000D03*
X117400000Y-49750000D03*
X119400000Y-48800000D03*
X117400000Y-59250000D03*
X117400000Y-61150000D03*
X119400000Y-60200000D03*
X113700000Y-66850000D03*
X113700000Y-68750000D03*
X115700000Y-67800000D03*
D26*
X94549940Y-44982301D03*
X92899940Y-44982301D03*
X94549940Y-56382301D03*
X92899940Y-56382301D03*
D25*
X85614940Y-86352301D03*
X85614940Y-88252301D03*
X87614940Y-87302301D03*
X89314940Y-90152301D03*
X89314940Y-92052301D03*
X91314940Y-91102301D03*
X85614940Y-90152301D03*
X85614940Y-92052301D03*
X87614940Y-91102301D03*
X85614940Y-74952301D03*
X85614940Y-76852301D03*
X87614940Y-75902301D03*
X85730000Y-116340000D03*
X85730000Y-118240000D03*
X87730000Y-117290000D03*
X85730000Y-101240000D03*
X85730000Y-103140000D03*
X87730000Y-102190000D03*
X89314940Y-71152301D03*
X89314940Y-73052301D03*
X91314940Y-72102301D03*
X89314940Y-82552301D03*
X89314940Y-84452301D03*
X91314940Y-83502301D03*
X85614940Y-82552301D03*
X85614940Y-84452301D03*
X87614940Y-83502301D03*
X85614940Y-71152301D03*
X85614940Y-73052301D03*
X87614940Y-72102301D03*
X89314940Y-74952301D03*
X89314940Y-76852301D03*
X91314940Y-75902301D03*
X89314940Y-86352301D03*
X89314940Y-88252301D03*
X91314940Y-87302301D03*
X85614940Y-78752301D03*
X85614940Y-80652301D03*
X87614940Y-79702301D03*
X89324940Y-63032301D03*
X89324940Y-64932301D03*
X91324940Y-63982301D03*
X85624940Y-63032301D03*
X85624940Y-64932301D03*
X87624940Y-63982301D03*
X89330000Y-112540000D03*
X89330000Y-114440000D03*
X91330000Y-113490000D03*
X89330000Y-93840000D03*
X89330000Y-95740000D03*
X91330000Y-94790000D03*
X89330000Y-108840000D03*
X89330000Y-110740000D03*
X91330000Y-109790000D03*
X89330000Y-105040000D03*
X89330000Y-106940000D03*
X91330000Y-105990000D03*
X89330000Y-97540000D03*
X89330000Y-99440000D03*
X91330000Y-98490000D03*
X85730000Y-112540000D03*
X85730000Y-114440000D03*
X87730000Y-113490000D03*
X85730000Y-108840000D03*
X85730000Y-110740000D03*
X87730000Y-109790000D03*
X85730000Y-105040000D03*
X85730000Y-106940000D03*
X87730000Y-105990000D03*
X85730000Y-97540000D03*
X85730000Y-99440000D03*
X87730000Y-98490000D03*
X85624940Y-59232301D03*
X85624940Y-61132301D03*
X87624940Y-60182301D03*
X85624940Y-47832301D03*
X85624940Y-49732301D03*
X87624940Y-48782301D03*
X85624940Y-44032301D03*
X85624940Y-45932301D03*
X87624940Y-44982301D03*
X89324940Y-47832301D03*
X89324940Y-49732301D03*
X91324940Y-48782301D03*
X89324940Y-59232301D03*
X89324940Y-61132301D03*
X91324940Y-60182301D03*
X85624940Y-51632301D03*
X85624940Y-53532301D03*
X87624940Y-52582301D03*
X89324940Y-66832301D03*
X89324940Y-68732301D03*
X91324940Y-67782301D03*
X85624940Y-66832301D03*
X85624940Y-68732301D03*
X87624940Y-67782301D03*
X89324940Y-44032301D03*
X89324940Y-45932301D03*
X91324940Y-44982301D03*
X89324940Y-55432301D03*
X89324940Y-57332301D03*
X91324940Y-56382301D03*
X85624940Y-55432301D03*
X85624940Y-57332301D03*
X87624940Y-56382301D03*
D14*
X91662500Y-294100000D03*
X93537500Y-294100000D03*
X96562500Y-294100000D03*
X98437500Y-294100000D03*
X103062500Y-294100000D03*
X104937500Y-294100000D03*
X107862500Y-294100000D03*
X109737500Y-294100000D03*
X112762500Y-294100000D03*
X114637500Y-294100000D03*
X117562500Y-294100000D03*
X119437500Y-294100000D03*
X91662500Y-297500000D03*
X93537500Y-297500000D03*
X96562500Y-297500000D03*
X98437500Y-297500000D03*
X103062500Y-297500000D03*
X104937500Y-297500000D03*
X107862500Y-297500000D03*
X109737500Y-297500000D03*
X112762500Y-297500000D03*
X114637500Y-297500000D03*
X117562500Y-297500000D03*
X119437500Y-297500000D03*
D35*
X105950000Y-286100000D03*
X104050000Y-286100000D03*
X105000000Y-288100000D03*
X113150000Y-286100000D03*
X111250000Y-286100000D03*
X112200000Y-288100000D03*
X120350000Y-286100000D03*
X118450000Y-286100000D03*
X119400000Y-288100000D03*
X127550000Y-286100000D03*
X125650000Y-286100000D03*
X126600000Y-288100000D03*
X134750000Y-286100000D03*
X132850000Y-286100000D03*
X133800000Y-288100000D03*
X141950000Y-286100000D03*
X140050000Y-286100000D03*
X141000000Y-288100000D03*
X109550000Y-286100000D03*
X107650000Y-286100000D03*
X108600000Y-288100000D03*
X116750000Y-286100000D03*
X114850000Y-286100000D03*
X115800000Y-288100000D03*
X123950000Y-286100000D03*
X122050000Y-286100000D03*
X123000000Y-288100000D03*
X131150000Y-286100000D03*
X129250000Y-286100000D03*
X130200000Y-288100000D03*
X138350000Y-286100000D03*
X136450000Y-286100000D03*
X137400000Y-288100000D03*
X145550000Y-286100000D03*
X143650000Y-286100000D03*
X144600000Y-288100000D03*
D36*
X104175000Y-289800000D03*
X105825000Y-289800000D03*
X111375000Y-289800000D03*
X113025000Y-289800000D03*
X118575000Y-289800000D03*
X120225000Y-289800000D03*
X125675000Y-289800000D03*
X127325000Y-289800000D03*
X132975000Y-289800000D03*
X134625000Y-289800000D03*
X140175000Y-289800000D03*
X141825000Y-289800000D03*
X107775000Y-289800000D03*
X109425000Y-289800000D03*
X114975000Y-289800000D03*
X116625000Y-289800000D03*
X122175000Y-289800000D03*
X123825000Y-289800000D03*
X129375000Y-289800000D03*
X131025000Y-289800000D03*
X136575000Y-289800000D03*
X138225000Y-289800000D03*
X143775000Y-289900000D03*
X145425000Y-289900000D03*
D33*
X93534000Y-300750000D03*
D32*
X92424000Y-302900000D03*
X92424000Y-305900000D03*
D33*
X91324000Y-308050000D03*
X93534000Y-308050000D03*
X91324000Y-300750000D03*
D34*
X94184000Y-302150000D03*
X94184000Y-305150000D03*
X94184000Y-306650000D03*
D33*
X98334000Y-308050000D03*
D32*
X97224000Y-302900000D03*
D33*
X98334000Y-300750000D03*
X96124000Y-308050000D03*
X96124000Y-300750000D03*
D32*
X97224000Y-305900000D03*
D34*
X98984000Y-302150000D03*
X98984000Y-305150000D03*
X98984000Y-306650000D03*
D32*
X103824000Y-305900000D03*
D33*
X104934000Y-308050000D03*
D32*
X103824000Y-302900000D03*
D33*
X104934000Y-300750000D03*
X102724000Y-308050000D03*
X102724000Y-300750000D03*
D34*
X105584000Y-302150000D03*
X105584000Y-305150000D03*
X105584000Y-306650000D03*
D32*
X108624000Y-305900000D03*
D33*
X107524000Y-308050000D03*
X109734000Y-308050000D03*
X107524000Y-300750000D03*
D32*
X108624000Y-302900000D03*
D33*
X109734000Y-300750000D03*
D34*
X110384000Y-302150000D03*
X110384000Y-305150000D03*
X110384000Y-306650000D03*
D33*
X112424000Y-308050000D03*
X114634000Y-300750000D03*
X112424000Y-300750000D03*
X114634000Y-308050000D03*
D32*
X113524000Y-305900000D03*
X113524000Y-302900000D03*
D34*
X115284000Y-302150000D03*
X115284000Y-305150000D03*
X115284000Y-306650000D03*
D33*
X117224000Y-308050000D03*
X119434000Y-308050000D03*
X119434000Y-300750000D03*
X117224000Y-300750000D03*
D32*
X118324000Y-305900000D03*
X118324000Y-302900000D03*
D34*
X120084000Y-302150000D03*
X120084000Y-305150000D03*
X120084000Y-306650000D03*
D29*
X136820000Y-294250000D03*
X144780000Y-294250000D03*
X144780000Y-298750000D03*
X136820000Y-298750000D03*
D25*
X155700000Y-43950000D03*
X155700000Y-45850000D03*
X157700000Y-44900000D03*
D40*
X167350900Y-240500000D03*
X187348320Y-240500000D03*
D25*
X229500000Y-140350000D03*
X229500000Y-142250000D03*
X231500000Y-141300000D03*
X225700000Y-140350000D03*
X225700000Y-142250000D03*
X227700000Y-141300000D03*
D29*
X207180000Y-299575000D03*
X199220000Y-299575000D03*
X199220000Y-304075000D03*
X207180000Y-304075000D03*
D25*
X224000000Y-294450000D03*
X224000000Y-296350000D03*
X226000000Y-295400000D03*
D41*
X148400000Y-220500000D03*
X150940000Y-223040000D03*
X153480000Y-220500000D03*
D14*
X217862500Y-218300000D03*
X219737500Y-218300000D03*
X204762500Y-218300000D03*
X206637500Y-218300000D03*
D25*
X225700000Y-180350000D03*
X225700000Y-182250000D03*
X227700000Y-181300000D03*
X233100000Y-172650000D03*
X233100000Y-174550000D03*
X235100000Y-173600000D03*
X225700000Y-184150000D03*
X225700000Y-186050000D03*
X227700000Y-185100000D03*
X229400000Y-184150000D03*
X229400000Y-186050000D03*
X231400000Y-185100000D03*
X233100000Y-184150000D03*
X233100000Y-186050000D03*
X235100000Y-185100000D03*
X233100000Y-187950000D03*
X233100000Y-189850000D03*
X235100000Y-188900000D03*
X229400000Y-176550000D03*
X229400000Y-178450000D03*
X231400000Y-177500000D03*
X233100000Y-176550000D03*
X233100000Y-178450000D03*
X235100000Y-177500000D03*
X213800000Y-221150000D03*
X213800000Y-223050000D03*
X215800000Y-222100000D03*
X213800000Y-209750000D03*
X213800000Y-211650000D03*
X215800000Y-210700000D03*
X213800000Y-213550000D03*
X213800000Y-215450000D03*
X215800000Y-214500000D03*
X213800000Y-217350000D03*
X213800000Y-219250000D03*
X215800000Y-218300000D03*
X210100000Y-213550000D03*
X210100000Y-215450000D03*
X212100000Y-214500000D03*
X210100000Y-221150000D03*
X210100000Y-223050000D03*
X212100000Y-222100000D03*
X210100000Y-209750000D03*
X210100000Y-211650000D03*
X212100000Y-210700000D03*
X210100000Y-217350000D03*
X210100000Y-219250000D03*
X212100000Y-218300000D03*
X227000000Y-217350000D03*
X227000000Y-219250000D03*
X229000000Y-218300000D03*
X227000000Y-221150000D03*
X227000000Y-223050000D03*
X229000000Y-222100000D03*
X227000000Y-209750000D03*
X227000000Y-211650000D03*
X229000000Y-210700000D03*
X200900000Y-221150000D03*
X200900000Y-223050000D03*
X202900000Y-222100000D03*
X200900000Y-209750000D03*
X200900000Y-211650000D03*
X202900000Y-210700000D03*
X223300000Y-213550000D03*
X223300000Y-215450000D03*
X225300000Y-214500000D03*
X223300000Y-221150000D03*
X223300000Y-223050000D03*
X225300000Y-222100000D03*
X223300000Y-217350000D03*
X223300000Y-219250000D03*
X225300000Y-218300000D03*
X200900000Y-213550000D03*
X200900000Y-215450000D03*
X202900000Y-214500000D03*
X200900000Y-217350000D03*
X200900000Y-219250000D03*
X202900000Y-218300000D03*
X197200000Y-221150000D03*
X197200000Y-223050000D03*
X199200000Y-222100000D03*
X197200000Y-209750000D03*
X197200000Y-211650000D03*
X199200000Y-210700000D03*
X197200000Y-217350000D03*
X197200000Y-219250000D03*
X199200000Y-218300000D03*
X193400000Y-209750000D03*
X193400000Y-211650000D03*
X195400000Y-210700000D03*
X193400000Y-221150000D03*
X193400000Y-223050000D03*
X195400000Y-222100000D03*
X223300000Y-209750000D03*
X223300000Y-211650000D03*
X225300000Y-210700000D03*
D27*
X237000000Y-168975000D03*
X237000000Y-170625000D03*
X236900000Y-172775000D03*
X236900000Y-174425000D03*
X236900000Y-184275000D03*
X236900000Y-185925000D03*
X236900000Y-188075000D03*
X236900000Y-189725000D03*
X208400000Y-213675000D03*
X208400000Y-215325000D03*
X219700000Y-213775000D03*
X219700000Y-215425000D03*
X217800000Y-213775000D03*
X217800000Y-215425000D03*
X206600000Y-213675000D03*
X206600000Y-215325000D03*
X204800000Y-213675000D03*
X204800000Y-215325000D03*
D36*
X193475000Y-214700000D03*
X195125000Y-214700000D03*
X193475000Y-218300000D03*
X195125000Y-218300000D03*
D27*
X230800000Y-209875000D03*
X230800000Y-211525000D03*
X230800000Y-217450000D03*
X230800000Y-219100000D03*
D29*
X178020000Y-299550000D03*
X185980000Y-299550000D03*
X178020000Y-304050000D03*
X185980000Y-304050000D03*
D30*
X146502944Y-113397056D03*
X148200000Y-109300000D03*
X150600000Y-111700000D03*
X149897056Y-110002944D03*
X149897056Y-113397056D03*
X148200000Y-114100000D03*
X145800000Y-111700000D03*
D31*
X148200000Y-111700000D03*
D30*
X146502944Y-110002944D03*
D29*
X147370000Y-303200000D03*
X155330000Y-303200000D03*
X155330000Y-307700000D03*
X147370000Y-307700000D03*
D16*
X152525000Y-285975000D03*
X152525000Y-289275000D03*
D32*
X87624000Y-305900000D03*
D33*
X86524000Y-308050000D03*
X88734000Y-300750000D03*
X86524000Y-300750000D03*
X88734000Y-308050000D03*
D32*
X87624000Y-302900000D03*
D34*
X89384000Y-302150000D03*
X89384000Y-305150000D03*
X89384000Y-306650000D03*
D29*
X144780000Y-303200000D03*
X136820000Y-303200000D03*
X144780000Y-307700000D03*
X136820000Y-307700000D03*
D16*
X155100000Y-285950000D03*
X155100000Y-289250000D03*
D28*
X157350000Y-289225000D03*
X157350000Y-287575000D03*
D29*
X134280000Y-303200000D03*
X126320000Y-303200000D03*
X126320000Y-307700000D03*
X134280000Y-307700000D03*
D27*
X159250000Y-287575000D03*
X159250000Y-289225000D03*
D12*
X147460000Y-213260000D03*
X147460000Y-211360000D03*
D11*
X232590000Y-54360000D03*
X234490000Y-54360000D03*
X225850000Y-151300000D03*
X227750000Y-151300000D03*
D10*
X65870000Y-154650000D03*
X65870000Y-156550000D03*
X79770000Y-154620000D03*
X79770000Y-156520000D03*
X93670000Y-154680000D03*
X93670000Y-156580000D03*
X107640000Y-154680000D03*
X107640000Y-156580000D03*
D41*
X238700000Y-250200000D03*
X241240000Y-252740000D03*
X243780000Y-250200000D03*
D10*
X121530000Y-154700000D03*
X121530000Y-156600000D03*
X163580000Y-154550000D03*
X163580000Y-156450000D03*
X177580000Y-154750000D03*
X177580000Y-156650000D03*
X205630000Y-154660000D03*
X205630000Y-156560000D03*
X219630000Y-154680000D03*
X219630000Y-156580000D03*
X191460000Y-154650000D03*
X191460000Y-156550000D03*
X149740000Y-154580000D03*
X149740000Y-156480000D03*
X135640000Y-154720000D03*
X135640000Y-156620000D03*
D33*
X161324000Y-300850000D03*
X161324000Y-308150000D03*
X163534000Y-308150000D03*
D32*
X162424000Y-303000000D03*
X162424000Y-306000000D03*
D33*
X163534000Y-300850000D03*
D34*
X164184000Y-302250000D03*
X164184000Y-305250000D03*
X164184000Y-306750000D03*
D13*
X175920000Y-254690000D03*
X174020000Y-254690000D03*
D27*
X103125000Y-232775000D03*
X103125000Y-234425000D03*
D42*
X234300000Y-254562500D03*
X234300000Y-251637500D03*
D16*
X149900000Y-285975000D03*
X149900000Y-289275000D03*
D27*
X117925000Y-225150000D03*
X117925000Y-226800000D03*
X236875000Y-191950000D03*
X236875000Y-193600000D03*
D26*
X239400000Y-239075000D03*
X237750000Y-239075000D03*
D25*
X237525000Y-235375000D03*
X237525000Y-237275000D03*
X239525000Y-236325000D03*
D11*
X237625000Y-233225000D03*
X239525000Y-233225000D03*
D23*
X236525000Y-138750000D03*
D43*
X236525000Y-141290000D03*
X236525000Y-143830000D03*
X236525000Y-146370000D03*
X236525000Y-148910000D03*
D13*
X229980000Y-54370000D03*
X228080000Y-54370000D03*
D12*
X149780000Y-213260000D03*
X149780000Y-211360000D03*
D13*
X68050000Y-232720000D03*
X66150000Y-232720000D03*
X116090000Y-236580000D03*
X114190000Y-236580000D03*
D12*
X234250000Y-229770000D03*
X234250000Y-227870000D03*
D26*
X232925000Y-243100000D03*
X231275000Y-243100000D03*
D25*
X227000000Y-213550000D03*
X227000000Y-215450000D03*
X229000000Y-214500000D03*
D27*
X230800000Y-213575000D03*
X230800000Y-215225000D03*
M02*
