M48
; DRILL file {KiCad (6.0.8-1)-1} date Wednesday, November 09, 2022 at 06:22:33 PM
; FORMAT={-:-/ absolute / inch / decimal}
; #@! TF.CreationDate,2022-11-09T18:22:33-06:00
; #@! TF.GenerationSoftware,Kicad,Pcbnew,(6.0.8-1)-1
; #@! TF.FileFunction,NonPlated,1,2,NPTH
FMAT,2
INCH
; #@! TA.AperFunction,NonPlated,NPTH,ComponentDrill
T1C0.0354
%
G90
G05
T1
X2.434Y-11.9252
X2.434Y-12.0433
X2.623Y-11.9252
X2.623Y-12.0433
X2.812Y-11.9252
X2.812Y-12.0433
X3.0009Y-11.9252
X3.0009Y-12.0433
X3.2608Y-11.9252
X3.2608Y-12.0433
X3.4498Y-11.9252
X3.4498Y-12.0433
X3.6387Y-11.9252
X3.6387Y-12.0433
X3.8277Y-11.9252
X3.8277Y-12.0433
X4.0876Y-11.9252
X4.0876Y-12.0433
X4.2765Y-11.9252
X4.2765Y-12.0433
X4.4694Y-11.9252
X4.4694Y-12.0433
X4.6584Y-11.9252
X4.6584Y-12.0433
X6.3946Y-11.9291
X6.3946Y-12.0472
T0
M30
