M48
; DRILL file {KiCad (6.0.8-1)-1} date Wednesday, November 09, 2022 at 06:22:33 PM
; FORMAT={-:-/ absolute / inch / decimal}
; #@! TF.CreationDate,2022-11-09T18:22:33-06:00
; #@! TF.GenerationSoftware,Kicad,Pcbnew,(6.0.8-1)-1
; #@! TF.FileFunction,Plated,1,2,PTH
FMAT,2
INCH
; #@! TA.AperFunction,Plated,PTH,ViaDrill
T1C0.0157
; #@! TA.AperFunction,Plated,PTH,ViaDrill
T2C0.0197
; #@! TA.AperFunction,Plated,PTH,ComponentDrill
T3C0.0197
; #@! TA.AperFunction,Plated,PTH,ComponentDrill
T4C0.0315
; #@! TA.AperFunction,Plated,PTH,ComponentDrill
T5C0.0362
; #@! TA.AperFunction,Plated,PTH,ComponentDrill
T6C0.0394
; #@! TA.AperFunction,Plated,PTH,ComponentDrill
T7C0.0472
; #@! TA.AperFunction,Plated,PTH,ComponentDrill
T8C0.0511
; #@! TA.AperFunction,Plated,PTH,ComponentDrill
T9C0.0917
; #@! TA.AperFunction,Plated,PTH,ComponentDrill
T10C0.0984
; #@! TA.AperFunction,Plated,PTH,ComponentDrill
T11C0.1260
%
G90
G05
T1
X2.0709Y-7.7795
X2.0994Y-4.2598
X2.0994Y-8.0079
X2.0994Y-4.1693
X2.128Y-3.811
X2.1358Y-8.0531
X2.1575Y-2.2598
X2.1594Y-7.3858
X2.1594Y-7.5374
X2.1614Y-1.8071
X2.1614Y-1.9606
X2.1614Y-2.5571
X2.1614Y-2.7067
X2.1614Y-2.8701
X2.1614Y-3.0315
X2.1614Y-3.3307
X2.1614Y-3.6201
X2.1614Y-3.7697
X2.1614Y-3.9134
X2.1614Y-4.0591
X2.1614Y-4.2126
X2.1614Y-4.3583
X2.1614Y-4.5059
X2.1614Y-4.6535
X2.1614Y-5.7126
X2.1614Y-5.8642
X2.1614Y-6.0177
X2.1614Y-6.1614
X2.1614Y-6.315
X2.1614Y-6.4626
X2.1614Y-6.6319
X2.1614Y-6.7874
X2.1614Y-7.0886
X2.1949Y-7.0118
X2.1961Y-8.1201
X2.1998Y-5.1909
X2.1998Y-5.937
X2.1998Y-6.2362
X2.2008Y-4.2854
X2.2087Y-1.7205
X2.2087Y-4.1339
X2.2264Y-6.939
X2.2264Y-7.3484
X2.2283Y-4.8189
X2.2283Y-5.2638
X2.2283Y-5.752
X2.2283Y-5.7913
X2.2283Y-6.3858
X2.2898Y-3.2111
X2.2904Y-2.1437
X2.2933Y-5.1505
X2.3065Y-3.5871
X2.3071Y-2.5197
X2.3071Y-7.748
X2.31Y-5.5265
X2.311Y-8.2165
X2.3161Y-6.0357
X2.3179Y-7.4341
X2.3183Y-2.8824
X2.3183Y-3.4769
X2.3189Y-1.815
X2.3189Y-2.4094
X2.3189Y-6.1693
X2.3218Y-4.8217
X2.3218Y-5.4162
X2.3238Y-6.6446
X2.3238Y-7.2391
X2.3346Y-6.3701
X2.3465Y-5.5709
X2.3543Y-4.9764
X2.3655Y-2.7918
X2.3655Y-2.9375
X2.3655Y-3.3942
X2.3661Y-1.7244
X2.3661Y-1.8701
X2.3661Y-2.3268
X2.3691Y-4.7312
X2.3691Y-4.8769
X2.3691Y-5.3336
X2.3701Y-2.626
X2.3711Y-6.554
X2.3711Y-6.6997
X2.3711Y-7.1564
X2.3789Y-5.6112
X2.3858Y-8.1811
X2.3858Y-8.4055
X2.3941Y-3.1929
X2.3947Y-2.126
X2.3976Y-5.1323
X2.4016Y-9.0433
X2.4213Y-4.6929
X2.4331Y-9.5433
X2.4522Y-2.9887
X2.4522Y-3.2091
X2.4528Y-1.9213
X2.4528Y-2.1417
X2.4557Y-4.928
X2.4557Y-5.1485
X2.4577Y-6.7509
X2.4577Y-6.9714
X2.4587Y-3.7323
X2.4587Y-4.4311
X2.4606Y-2.4843
X2.4606Y-3.5472
X2.4616Y-7.689
X2.4626Y-8.2165
X2.4642Y-5.4866
X2.4646Y-3.9213
X2.4661Y-7.3094
X2.4679Y-2.7997
X2.4685Y-1.7323
X2.4685Y-2.5669
X2.4685Y-3.6378
X2.4685Y-6.2362
X2.4685Y-9.9724
X2.4685Y-11.2126
X2.4724Y-7.6309
X2.4724Y-9.0079
X2.4734Y-6.5619
X2.4961Y-2.7165
X2.4961Y-4.2303
X2.4961Y-7.8307
X2.5Y-4.5236
X2.5Y-5.6339
X2.5Y-7.0984
X2.5Y-8.4055
X2.502Y-7.4626
X2.5276Y-3.3346
X2.5285Y-7.8583
X2.5315Y-11.8465
X2.5463Y-9.5276
X2.5551Y-8.7047
X2.5571Y-4.0669
X2.5571Y-5.7874
X2.5591Y-4.4331
X2.562Y-4.1496
X2.564Y-7.4006
X2.5669Y-7.9449
X2.573Y-9.3486
X2.5748Y-11.2992
X2.5935Y-7.6309
X2.5955Y-8.2205
X2.5984Y-3.6614
X2.6102Y-11.2165
X2.6102Y-9.9606
X2.626Y-5.7283
X2.6437Y-8.002
X2.6457Y-8.4094
X2.6535Y-8.7047
X2.6614Y-7.7195
X2.6732Y-1.6693
X2.6732Y-1.7717
X2.6732Y-1.9213
X2.6732Y-2.0709
X2.6732Y-2.2244
X2.6732Y-2.3701
X2.6732Y-2.5197
X2.6732Y-2.6398
X2.6732Y-2.8386
X2.6732Y-2.9882
X2.6732Y-3.1339
X2.6732Y-3.2874
X2.6732Y-3.437
X2.6732Y-3.5866
X2.6732Y-3.7323
X2.6732Y-4.0236
X2.6732Y-4.7776
X2.6732Y-4.9232
X2.6732Y-5.0768
X2.6732Y-5.2283
X2.6732Y-5.3799
X2.6732Y-5.5256
X2.6732Y-5.6791
X2.6732Y-6.0839
X2.6732Y-6.4272
X2.6732Y-6.6004
X2.6732Y-6.75
X2.6732Y-6.9016
X2.6732Y-7.0551
X2.6732Y-7.1988
X2.6732Y-7.3484
X2.6801Y-9.5404
X2.6811Y-7.8878
X2.6811Y-8.2598
X2.6811Y-8.5551
X2.6929Y-9.7913
X2.6929Y-11.0866
X2.7008Y-8.8425
X2.7028Y-7.5354
X2.7028Y-7.6016
X2.7047Y-7.3858
X2.7067Y-1.811
X2.7067Y-1.9606
X2.7067Y-2.2598
X2.7067Y-2.5551
X2.7067Y-3.0256
X2.7067Y-3.3248
X2.7067Y-3.624
X2.7067Y-3.7657
X2.7067Y-3.9154
X2.7067Y-4.0591
X2.7067Y-4.2087
X2.7067Y-4.3602
X2.7067Y-4.5
X2.7067Y-4.6555
X2.7067Y-5.7165
X2.7067Y-5.8622
X2.7067Y-6.0118
X2.7067Y-6.1614
X2.7067Y-6.313
X2.7067Y-6.4626
X2.7067Y-6.6358
X2.7067Y-6.7894
X2.7067Y-7.0886
X2.7087Y-2.7047
X2.7087Y-2.876
X2.7096Y-7.9734
X2.7136Y-9.2825
X2.7165Y-11.8465
X2.7441Y-7.4606
X2.7441Y-9.6535
X2.7495Y-5.1944
X2.7549Y-5.9409
X2.7549Y-6.2402
X2.7717Y-4.2815
X2.7726Y-7.9163
X2.7726Y-8.2165
X2.7726Y-8.9567
X2.7726Y-11.2165
X2.7756Y-2.3055
X2.7756Y-2.5197
X2.7776Y-6.9391
X2.7776Y-7.3485
X2.7803Y-4.8197
X2.7803Y-5.2646
X2.7803Y-5.7528
X2.7835Y-5.7933
X2.7835Y-6.3898
X2.7953Y-8.7087
X2.7953Y-9.5906
X2.7953Y-9.7953
X2.8024Y-8.1181
X2.8031Y-8.2472
X2.8394Y-3.2111
X2.8398Y-2.1434
X2.8453Y-5.1513
X2.8561Y-3.5871
X2.8583Y-10.9488
X2.8583Y-11.2953
X2.862Y-5.5273
X2.8679Y-2.8824
X2.8679Y-3.4769
X2.8681Y-6.0365
X2.8683Y-1.8147
X2.8683Y-2.4091
X2.8738Y-4.8225
X2.8738Y-5.417
X2.874Y-6.1732
X2.875Y-6.6447
X2.875Y-7.2392
X2.8937Y-9.626
X2.8937Y-11.2165
X2.8976Y-2.563
X2.8984Y-5.5717
X2.9055Y-6.3701
X2.9055Y-11.8465
X2.9063Y-4.9772
X2.9152Y-2.7918
X2.9152Y-2.9375
X2.9152Y-3.3942
X2.9155Y-1.7241
X2.9155Y-1.8698
X2.9155Y-2.3265
X2.9195Y-2.6257
X2.9211Y-4.732
X2.9211Y-4.8776
X2.9211Y-5.3343
X2.9222Y-6.5541
X2.9222Y-6.6998
X2.9222Y-7.1565
X2.9252Y-9.5039
X2.9309Y-5.612
X2.937Y-7.7189
X2.9437Y-3.1929
X2.9441Y-2.1257
X2.9496Y-5.1331
X2.9512Y-9.1618
X2.9518Y-6.9567
X2.9528Y-7.6594
X2.9528Y-8.2559
X2.9528Y-8.4213
X2.9528Y-8.563
X2.9528Y-8.7126
X2.9528Y-8.8622
X2.9528Y-9.0079
X2.9732Y-4.6937
X2.9843Y-8.1142
X2.9862Y-8.7795
X3.0001Y-3.7285
X3.0018Y-2.9887
X3.0018Y-3.2091
X3.0022Y-1.921
X3.0022Y-2.1414
X3.0077Y-4.9288
X3.0077Y-5.1493
X3.0083Y-4.4311
X3.0089Y-6.751
X3.0089Y-6.9715
X3.01Y-2.4839
X3.0102Y-3.5472
X3.0118Y-7.688
X3.0161Y-5.4874
X3.0173Y-7.3096
X3.0175Y-2.7997
X3.0179Y-1.732
X3.0197Y-3.9291
X3.0205Y-6.237
X3.0246Y-6.562
X3.0315Y-3.6378
X3.0354Y-11.2165
X3.036Y-9.6545
X3.0457Y-4.2425
X3.0472Y-2.7126
X3.0496Y-4.5236
X3.0512Y-7.0984
X3.052Y-5.6346
X3.0531Y-7.4606
X3.0699Y-9.626
X3.0772Y-3.3346
X3.0984Y-7.7766
X3.0984Y-8.5187
X3.0984Y-9.4016
X3.0984Y-11.8465
X3.1067Y-4.0669
X3.1067Y-4.1339
X3.1087Y-4.4331
X3.1091Y-5.7882
X3.1417Y-11.2913
X3.1417Y-7.4017
X3.1496Y-9.248
X3.1772Y-5.7559
X3.1781Y-9.5906
X3.1811Y-9.6969
X3.1811Y-11.2087
X3.2205Y-6.4272
X3.2205Y-6.5984
X3.2205Y-6.752
X3.2205Y-6.9055
X3.2205Y-7.0512
X3.2205Y-7.1969
X3.2205Y-7.3504
X3.2205Y-7.7195
X3.2224Y-2.9882
X3.2224Y-3.1358
X3.2224Y-3.2933
X3.2224Y-3.435
X3.2224Y-3.5846
X3.2224Y-3.7303
X3.2224Y-4.0256
X3.2224Y-4.7815
X3.2224Y-4.9311
X3.2224Y-5.0748
X3.2224Y-5.2244
X3.2224Y-5.376
X3.2224Y-5.5256
X3.2224Y-5.6752
X3.2224Y-6.0807
X3.2244Y-1.6693
X3.2244Y-1.7717
X3.2244Y-1.9213
X3.2244Y-2.0709
X3.2244Y-2.2205
X3.2244Y-2.3701
X3.2244Y-2.5197
X3.2244Y-2.6339
X3.2244Y-2.8386
X3.2559Y-4.6535
X3.2559Y-5.7126
X3.2559Y-5.8622
X3.2559Y-6.0157
X3.2559Y-6.1654
X3.2559Y-6.311
X3.2559Y-6.4646
X3.2559Y-6.6339
X3.2559Y-6.7835
X3.2559Y-7.0866
X3.2559Y-7.3858
X3.2559Y-7.5354
X3.2559Y-8.1526
X3.2559Y-8.3622
X3.2579Y-1.811
X3.2579Y-1.9606
X3.2579Y-2.2579
X3.2579Y-2.5571
X3.2579Y-2.7106
X3.2579Y-2.872
X3.2579Y-3.0256
X3.2579Y-3.3248
X3.2579Y-3.6201
X3.2579Y-3.7736
X3.2579Y-3.9193
X3.2579Y-4.065
X3.2579Y-4.2106
X3.2579Y-4.3642
X3.2579Y-4.502
X3.2598Y-7.5996
X3.2943Y-5.9409
X3.2943Y-6.2386
X3.2978Y-5.0748
X3.3071Y-7.4567
X3.3071Y-9.5039
X3.3189Y-4.285
X3.3189Y-9.7293
X3.3189Y-10.6781
X3.3189Y-11.2165
X3.3228Y-5.7953
X3.3228Y-6.3898
X3.3228Y-6.9387
X3.3268Y-2.3059
X3.3268Y-2.5197
X3.3268Y-4.8193
X3.3268Y-5.2642
X3.3268Y-5.752
X3.3268Y-7.3481
X3.3449Y-8.3429
X3.3504Y-10.252
X3.3504Y-11.8465
X3.3894Y-3.2107
X3.3898Y-2.143
X3.3913Y-5.1509
X3.4061Y-3.5867
X3.4081Y-5.5269
X3.4141Y-6.0361
X3.4179Y-2.882
X3.4179Y-3.4765
X3.4183Y-1.8143
X3.4183Y-2.4088
X3.4199Y-4.8221
X3.4199Y-5.4166
X3.4211Y-6.6443
X3.4211Y-7.2388
X3.4213Y-9.7598
X3.4213Y-11.2992
X3.4238Y-6.1693
X3.4445Y-5.5713
X3.4476Y-2.5626
X3.4524Y-4.9768
X3.4528Y-6.374
X3.4606Y-10.0157
X3.4606Y-11.2087
X3.4646Y-8.413
X3.4646Y-8.8571
X3.4646Y-8.9984
X3.4652Y-2.7914
X3.4652Y-2.9371
X3.4652Y-3.3938
X3.4655Y-1.7237
X3.4655Y-1.8694
X3.4655Y-2.3261
X3.4671Y-4.7316
X3.4671Y-4.8773
X3.4671Y-5.3339
X3.4683Y-6.5537
X3.4683Y-6.6994
X3.4683Y-7.1561
X3.4695Y-2.6253
X3.477Y-5.6116
X3.4937Y-3.1925
X3.4941Y-2.1253
X3.4957Y-5.1327
X3.4978Y-6.9606
X3.5Y-7.7165
X3.5118Y-7.8021
X3.5157Y-9.0669
X3.5193Y-4.6933
X3.5394Y-11.8425
X3.5433Y-10.0512
X3.5503Y-3.7279
X3.5518Y-2.9883
X3.5518Y-3.2088
X3.5522Y-1.9206
X3.5522Y-2.141
X3.5537Y-4.9284
X3.5537Y-5.1489
X3.5549Y-6.7506
X3.5549Y-6.9711
X3.5583Y-4.4307
X3.5591Y-7.7451
X3.56Y-2.4836
X3.5602Y-3.5469
X3.5622Y-5.487
X3.5634Y-7.3092
X3.5665Y-6.2366
X3.5675Y-2.7993
X3.5679Y-1.7316
X3.5707Y-6.5616
X3.5827Y-3.6378
X3.5945Y-2.7126
X3.5945Y-3.937
X3.5957Y-4.2453
X3.5957Y-4.5232
X3.598Y-5.6343
X3.598Y-5.7433
X3.5984Y-7.0984
X3.5984Y-7.4626
X3.6024Y-9.7008
X3.6024Y-10.374
X3.6024Y-11.2165
X3.6272Y-3.3343
X3.6551Y-5.7878
X3.6567Y-4.0665
X3.6614Y-4.1378
X3.6614Y-4.5827
X3.6654Y-8.3711
X3.6654Y-8.6289
X3.6878Y-7.4013
X3.6998Y-7.6309
X3.6998Y-8.2618
X3.6998Y-8.6752
X3.7087Y-11.0
X3.7087Y-11.2953
X3.7283Y-5.6299
X3.7283Y-9.6575
X3.7323Y-11.8425
X3.748Y-10.1496
X3.7665Y-6.4268
X3.7665Y-6.598
X3.7665Y-6.7516
X3.7665Y-6.9051
X3.7665Y-7.0508
X3.7665Y-7.1965
X3.7665Y-7.35
X3.7665Y-9.1618
X3.7665Y-9.3289
X3.7685Y-4.4791
X3.7685Y-4.7811
X3.7685Y-4.9307
X3.7685Y-5.0744
X3.7685Y-5.224
X3.7685Y-5.3756
X3.7685Y-5.5252
X3.7685Y-6.0902
X3.7724Y-2.9878
X3.7724Y-3.1354
X3.7724Y-3.2929
X3.7724Y-3.4346
X3.7724Y-3.5843
X3.7724Y-3.7299
X3.7724Y-4.0252
X3.7744Y-1.6689
X3.7744Y-1.7713
X3.7744Y-1.9209
X3.7744Y-2.0705
X3.7744Y-2.2201
X3.7744Y-2.3697
X3.7744Y-2.5193
X3.7744Y-2.639
X3.7744Y-2.8382
X3.7766Y-10.4144
X3.7766Y-11.2205
X3.8031Y-5.7126
X3.8031Y-5.8622
X3.8031Y-6.0197
X3.8031Y-6.1654
X3.8031Y-6.3189
X3.8031Y-6.4606
X3.8031Y-6.6417
X3.8031Y-6.7913
X3.8031Y-7.0945
X3.8031Y-7.3858
X3.8031Y-7.5354
X3.8031Y-7.5976
X3.8031Y-8.4882
X3.8031Y-8.6132
X3.8031Y-8.7815
X3.8031Y-9.1331
X3.8041Y-9.2382
X3.8071Y-3.9173
X3.8071Y-4.063
X3.8071Y-4.2126
X3.8071Y-4.3622
X3.8071Y-4.5039
X3.8071Y-4.6575
X3.8079Y-1.8071
X3.8079Y-1.9535
X3.8079Y-2.2669
X3.8079Y-2.5559
X3.8079Y-2.7055
X3.8079Y-2.8772
X3.8079Y-3.0283
X3.8079Y-3.3299
X3.8079Y-3.6252
X3.8079Y-3.7724
X3.8268Y-9.4016
X3.8402Y-5.0827
X3.8425Y-7.4606
X3.8534Y-5.9409
X3.8534Y-6.2372
X3.8711Y-8.2126
X3.8711Y-8.7126
X3.873Y-6.9394
X3.874Y-4.2857
X3.874Y-8.9528
X3.874Y-10.4449
X3.874Y-11.2165
X3.876Y-6.8927
X3.877Y-4.82
X3.877Y-5.2649
X3.877Y-5.7527
X3.877Y-7.3488
X3.878Y-2.3079
X3.878Y-2.5197
X3.878Y-6.3898
X3.8819Y-5.7917
X3.9094Y-10.2047
X3.9124Y-7.688
X3.937Y-11.8465
X3.9415Y-5.1516
X3.9435Y-3.2114
X3.9439Y-2.1437
X3.9439Y-8.0817
X3.9583Y-5.5276
X3.9602Y-3.5874
X3.9616Y-8.2608
X3.9643Y-6.0368
X3.9656Y-8.7018
X3.9701Y-4.8228
X3.9701Y-5.4173
X3.9713Y-6.645
X3.9713Y-7.2395
X3.972Y-2.8827
X3.972Y-3.4772
X3.9724Y-1.815
X3.9724Y-2.4094
X3.974Y-6.17
X3.9921Y-10.9016
X3.9921Y-11.2953
X3.9947Y-5.572
X4.0Y-8.1811
X4.0Y-8.4094
X4.0018Y-2.5633
X4.0026Y-4.9775
X4.003Y-6.3747
X4.0039Y-8.5984
X4.0079Y-3.3937
X4.0173Y-4.7323
X4.0173Y-4.878
X4.0173Y-5.3346
X4.0185Y-6.7001
X4.0185Y-7.1568
X4.0193Y-2.7921
X4.0193Y-2.9378
X4.0197Y-1.7244
X4.0197Y-1.8701
X4.0197Y-2.3268
X4.0236Y-2.626
X4.0272Y-5.6123
X4.0276Y-9.7293
X4.0276Y-10.4803
X4.0276Y-11.2165
X4.0459Y-5.1334
X4.0478Y-3.1932
X4.0482Y-2.126
X4.0591Y-7.7165
X4.0591Y-8.2126
X4.061Y-8.9528
X4.0689Y-6.5236
X4.0695Y-4.694
X4.0807Y-10.0177
X4.0876Y-7.7736
X4.0945Y-8.1102
X4.0984Y-8.4094
X4.1039Y-4.9291
X4.1039Y-5.1496
X4.1051Y-6.7513
X4.1051Y-6.9718
X4.1059Y-2.989
X4.1059Y-3.2094
X4.1063Y-1.9213
X4.1063Y-2.1417
X4.1084Y-3.7286
X4.1085Y-4.4314
X4.1102Y-8.7087
X4.1124Y-5.4877
X4.1136Y-7.3099
X4.1142Y-2.4843
X4.1142Y-9.0
X4.1142Y-9.1654
X4.1142Y-9.4016
X4.1144Y-3.5475
X4.1167Y-6.2373
X4.1209Y-6.5623
X4.1217Y-2.8
X4.122Y-1.7323
X4.1368Y-3.6385
X4.1447Y-3.9377
X4.1459Y-4.246
X4.1459Y-4.5239
X4.1476Y-7.4567
X4.1482Y-5.6349
X4.1496Y-2.7126
X4.1496Y-7.1024
X4.1496Y-10.5118
X4.1496Y-11.2205
X4.1654Y-7.8022
X4.1811Y-9.5974
X4.1811Y-10.3031
X4.1811Y-11.8425
X4.1813Y-3.3349
X4.1992Y-7.6309
X4.2008Y-9.2913
X4.2028Y-7.7736
X4.2047Y-8.2087
X4.2053Y-5.7885
X4.2069Y-4.0672
X4.2087Y-4.1361
X4.2087Y-4.5846
X4.238Y-7.402
X4.2441Y-9.0827
X4.252Y-8.7047
X4.252Y-8.8268
X4.252Y-9.0098
X4.2598Y-8.5
X4.2717Y-7.1496
X4.2756Y-10.8858
X4.2756Y-11.2992
X4.2795Y-9.1417
X4.2805Y-8.862
X4.2941Y-8.2047
X4.2953Y-8.6496
X4.2972Y-8.7874
X4.31Y-9.4774
X4.311Y-9.0098
X4.311Y-10.8425
X4.311Y-11.2126
X4.3167Y-6.4275
X4.3167Y-6.5987
X4.3167Y-6.7523
X4.3167Y-6.9058
X4.3167Y-7.0515
X4.3167Y-7.1972
X4.3167Y-7.3507
X4.3187Y-4.4762
X4.3187Y-4.7818
X4.3187Y-4.9314
X4.3187Y-5.0751
X4.3187Y-5.2247
X4.3187Y-5.3763
X4.3187Y-5.5259
X4.3187Y-6.0872
X4.3226Y-4.0259
X4.3266Y-2.9885
X4.3266Y-3.1361
X4.3266Y-3.2936
X4.3266Y-3.4353
X4.3266Y-3.5849
X4.3266Y-3.7306
X4.3268Y-1.6693
X4.3285Y-1.772
X4.3285Y-1.9216
X4.3285Y-2.0712
X4.3285Y-2.2208
X4.3285Y-2.3704
X4.3285Y-2.52
X4.3285Y-2.6396
X4.3285Y-2.8389
X4.3552Y-6.1645
X4.357Y-6.6391
X4.357Y-6.7887
X4.3574Y-5.7157
X4.3574Y-5.8653
X4.3574Y-6.4637
X4.3591Y-6.0149
X4.3591Y-6.3141
X4.3599Y-4.0613
X4.3599Y-4.2109
X4.3599Y-4.3605
X4.3599Y-4.6558
X4.3602Y-7.5374
X4.3602Y-7.5957
X4.3605Y-4.5062
X4.3609Y-7.0879
X4.3609Y-7.3891
X4.3615Y-3.922
X4.362Y-2.2559
X4.3622Y-3.77
X4.3622Y-9.4488
X4.3634Y-2.8768
X4.3634Y-3.6248
X4.3642Y-2.5571
X4.3642Y-2.7067
X4.365Y-1.8091
X4.365Y-3.0264
X4.3671Y-8.1526
X4.3671Y-8.4449
X4.3673Y-3.3256
X4.3681Y-1.9587
X4.3701Y-11.8386
X4.3913Y-5.0827
X4.3957Y-7.4606
X4.3976Y-5.937
X4.3985Y-6.2393
X4.4016Y-10.252
X4.4134Y-4.2857
X4.4213Y-2.3024
X4.425Y-6.9394
X4.425Y-7.3488
X4.4252Y-2.5197
X4.4252Y-9.1614
X4.4252Y-9.4016
X4.4278Y-4.82
X4.4278Y-5.2624
X4.4291Y-5.7527
X4.4291Y-5.7953
X4.4291Y-6.3898
X4.4331Y-8.248
X4.4331Y-8.8386
X4.4606Y-10.374
X4.4606Y-10.878
X4.4606Y-11.2126
X4.4764Y-11.6575
X4.4927Y-5.1516
X4.4947Y-3.2114
X4.4951Y-2.1437
X4.5094Y-5.5276
X4.5114Y-3.5874
X4.5155Y-6.0368
X4.5213Y-4.8228
X4.5213Y-5.4173
X4.5224Y-6.645
X4.5224Y-7.2395
X4.5232Y-2.8827
X4.5232Y-3.4772
X4.5236Y-1.815
X4.5236Y-2.4094
X4.5252Y-6.17
X4.5394Y-8.4094
X4.5394Y-8.5591
X4.5394Y-8.7087
X4.5394Y-9.5059
X4.5459Y-5.572
X4.5468Y-11.6575
X4.553Y-2.5633
X4.5537Y-4.9775
X4.5541Y-6.3747
X4.5549Y-6.0239
X4.5591Y-10.7992
X4.5591Y-11.2992
X4.5665Y-3.3945
X4.5669Y-11.8425
X4.5685Y-4.7323
X4.5685Y-4.878
X4.5685Y-5.3346
X4.5697Y-6.5544
X4.5697Y-6.7001
X4.5697Y-7.1568
X4.5705Y-2.7921
X4.5705Y-2.9378
X4.5709Y-1.7244
X4.5709Y-1.8701
X4.5709Y-2.3268
X4.5709Y-8.4911
X4.5738Y-8.7933
X4.5738Y-8.8563
X4.5748Y-2.626
X4.5748Y-8.252
X4.5783Y-5.6123
X4.5787Y-8.6575
X4.5866Y-10.1024
X4.597Y-5.1334
X4.5984Y-7.7736
X4.599Y-3.1932
X4.5992Y-6.9606
X4.5994Y-2.126
X4.6207Y-4.694
X4.622Y-10.2618
X4.622Y-11.2126
X4.6398Y-7.7736
X4.6551Y-4.9291
X4.6551Y-5.1496
X4.6563Y-6.7513
X4.6563Y-6.9718
X4.6571Y-2.989
X4.6571Y-3.2094
X4.6575Y-1.9213
X4.6575Y-2.1417
X4.6596Y-3.7286
X4.6596Y-4.4314
X4.6636Y-5.4877
X4.6648Y-7.3099
X4.6654Y-2.4843
X4.6656Y-3.5475
X4.6679Y-6.2373
X4.6683Y-7.4557
X4.6688Y-11.6299
X4.6688Y-11.6693
X4.672Y-6.5623
X4.6728Y-2.8
X4.6732Y-1.7323
X4.688Y-3.6385
X4.6929Y-9.4016
X4.6959Y-3.9377
X4.6969Y-7.1063
X4.6969Y-8.2677
X4.6969Y-8.4173
X4.6969Y-8.563
X4.6969Y-8.7087
X4.6969Y-8.8661
X4.6969Y-9.0118
X4.6969Y-9.1614
X4.6969Y-9.3126
X4.697Y-4.246
X4.697Y-4.5239
X4.6994Y-5.6349
X4.7008Y-2.7067
X4.7028Y-7.5571
X4.7254Y-7.2913
X4.7293Y-10.4144
X4.7303Y-8.6654
X4.7325Y-3.3349
X4.7362Y-11.6693
X4.7402Y-10.9134
X4.7402Y-11.2165
X4.7402Y-11.6299
X4.7541Y-4.1378
X4.7541Y-4.5829
X4.7565Y-5.7885
X4.7581Y-4.0672
X4.7589Y-9.2254
X4.7598Y-11.8425
X4.7815Y-9.9035
X4.7846Y-9.078
X4.785Y-7.2937
X4.785Y-7.411
X4.8136Y-7.1496
X4.815Y-8.6299
X4.8169Y-9.1142
X4.8404Y-3.815
X4.8425Y-8.5197
X4.8425Y-10.748
X4.8444Y-11.2953
X4.8455Y-8.9301
X4.8474Y-9.3681
X4.8679Y-6.4275
X4.8679Y-6.5987
X4.8679Y-6.7523
X4.8679Y-6.9058
X4.8679Y-7.0515
X4.8679Y-7.1972
X4.8679Y-7.3507
X4.8691Y-8.2677
X4.8699Y-4.4762
X4.8699Y-4.7818
X4.8699Y-4.9314
X4.8699Y-5.0751
X4.8699Y-5.2247
X4.8699Y-5.3763
X4.8699Y-5.5259
X4.8699Y-6.0856
X4.8738Y-4.0259
X4.8778Y-2.9885
X4.8778Y-3.1361
X4.8778Y-3.2936
X4.8778Y-3.4353
X4.8778Y-3.5849
X4.8778Y-3.7306
X4.878Y-10.9528
X4.878Y-11.2087
X4.8797Y-1.6711
X4.8797Y-1.772
X4.8797Y-1.9216
X4.8797Y-2.0712
X4.8797Y-2.2208
X4.8797Y-2.3704
X4.8797Y-2.52
X4.8797Y-2.6321
X4.8797Y-2.8389
X4.9094Y-4.2126
X4.9094Y-4.5039
X4.9094Y-4.6575
X4.9094Y-5.7244
X4.9094Y-5.8622
X4.9094Y-6.0118
X4.9094Y-6.1654
X4.9094Y-6.315
X4.9094Y-6.4606
X4.9094Y-6.6299
X4.9094Y-7.0866
X4.9098Y-7.5382
X4.9098Y-7.5957
X4.9112Y-3.0236
X4.9112Y-3.3228
X4.9112Y-3.626
X4.9112Y-3.7703
X4.9112Y-3.9155
X4.9112Y-4.0608
X4.9124Y-8.3494
X4.9124Y-8.8228
X4.9132Y-1.811
X4.9132Y-1.9606
X4.9134Y-2.2598
X4.9134Y-2.5551
X4.9134Y-2.7047
X4.9134Y-2.874
X4.9449Y-10.0512
X4.948Y-7.4626
X4.9528Y-5.9409
X4.9536Y-6.2393
X4.9751Y-4.4029
X4.9793Y-6.9381
X4.9793Y-7.3475
X4.9803Y-2.3079
X4.9803Y-2.5197
X4.9803Y-7.3869
X4.9813Y-4.82
X4.9813Y-5.2624
X4.9827Y-5.7527
X4.9843Y-6.3898
X4.9843Y-8.1457
X4.9843Y-8.2598
X4.9843Y-8.4134
X4.9843Y-8.7087
X4.9843Y-8.8583
X4.9843Y-5.792
X4.9882Y-6.7874
X5.0236Y-8.1102
X5.0236Y-9.0079
X5.0236Y-10.9843
X5.0236Y-11.2126
X5.0433Y-9.1535
X5.0463Y-2.1437
X5.0463Y-3.2107
X5.0463Y-5.1516
X5.0591Y-8.378
X5.0591Y-8.9685
X5.063Y-3.5866
X5.063Y-5.5276
X5.0691Y-6.0368
X5.0748Y-1.815
X5.0748Y-2.4094
X5.0748Y-2.8819
X5.0748Y-3.4764
X5.0748Y-4.8228
X5.0748Y-5.4173
X5.0758Y-7.5959
X5.0768Y-6.6437
X5.0768Y-7.2382
X5.0787Y-6.17
X5.0906Y-9.2323
X5.0945Y-8.4882
X5.0945Y-8.6417
X5.0945Y-8.7795
X5.0945Y-8.9331
X5.0984Y-9.0827
X5.0994Y-5.572
X5.1041Y-2.5633
X5.1073Y-4.9775
X5.1077Y-6.3747
X5.1093Y-8.3002
X5.1181Y-3.3937
X5.122Y-1.7244
X5.122Y-1.8701
X5.122Y-2.3268
X5.122Y-2.7913
X5.122Y-2.937
X5.122Y-4.7323
X5.122Y-4.878
X5.122Y-5.3346
X5.124Y-6.5531
X5.124Y-6.6988
X5.124Y-7.1555
X5.125Y-8.0817
X5.126Y-2.626
X5.126Y-10.6024
X5.126Y-11.2992
X5.126Y-11.5827
X5.128Y-7.3071
X5.1319Y-5.6123
X5.1339Y-11.937
X5.1506Y-2.126
X5.1506Y-3.1924
X5.1506Y-5.1334
X5.1516Y-4.5807
X5.1526Y-6.9567
X5.1535Y-7.6309
X5.1742Y-4.694
X5.1841Y-9.3356
X5.186Y-11.0157
X5.186Y-11.2126
X5.1949Y-7.8307
X5.1969Y-8.4055
X5.2087Y-1.9213
X5.2087Y-2.1417
X5.2087Y-2.9882
X5.2087Y-3.2087
X5.2087Y-4.9291
X5.2087Y-5.1496
X5.2106Y-6.75
X5.2106Y-6.9705
X5.2165Y-2.4843
X5.2171Y-3.5468
X5.2171Y-5.4877
X5.2191Y-7.3086
X5.2215Y-6.2373
X5.2244Y-1.7323
X5.2244Y-2.7992
X5.2264Y-6.561
X5.2283Y-9.1417
X5.2287Y-7.6293
X5.2287Y-8.2598
X5.2303Y-8.3386
X5.2441Y-3.6378
X5.2441Y-3.7303
X5.251Y-2.7146
X5.252Y-3.9331
X5.252Y-4.2283
X5.252Y-7.4528
X5.253Y-5.6349
X5.2539Y-7.002
X5.2559Y-4.5276
X5.2717Y-10.4803
X5.2841Y-3.3342
X5.2864Y-6.4734
X5.2864Y-6.815
X5.3071Y-11.0512
X5.3071Y-11.2205
X5.31Y-4.4322
X5.31Y-5.7885
X5.311Y-4.0748
X5.311Y-4.1457
X5.3205Y-9.5059
X5.3386Y-8.2598
X5.3386Y-8.4094
X5.3386Y-8.5591
X5.3681Y-5.7402
X5.3701Y-11.0866
X5.374Y-8.0531
X5.374Y-8.9961
X5.3858Y-11.5315
X5.4016Y-10.4449
X5.4094Y-10.6496
X5.4094Y-11.2992
X5.4274Y-1.6711
X5.4291Y-1.7717
X5.4291Y-1.9173
X5.4291Y-2.0669
X5.4291Y-2.2205
X5.4291Y-2.3622
X5.4291Y-2.5197
X5.4291Y-2.6303
X5.4291Y-2.8425
X5.4291Y-2.9843
X5.4291Y-3.1417
X5.4291Y-3.2913
X5.4291Y-3.4449
X5.4291Y-3.5866
X5.4291Y-3.7323
X5.4291Y-4.0197
X5.4291Y-4.7756
X5.4291Y-4.9291
X5.4291Y-5.0748
X5.4291Y-5.2323
X5.4291Y-5.374
X5.4291Y-5.5276
X5.4291Y-5.6811
X5.4291Y-6.0882
X5.4291Y-6.3799
X5.4291Y-6.6024
X5.4291Y-6.748
X5.4291Y-6.8976
X5.4291Y-7.0512
X5.4291Y-7.2008
X5.4291Y-7.3465
X5.4449Y-11.0866
X5.4449Y-11.2165
X5.4638Y-4.2134
X5.4638Y-4.6583
X5.4638Y-6.4614
X5.4638Y-6.6449
X5.4638Y-7.1346
X5.4646Y-5.7165
X5.4646Y-6.315
X5.4646Y-7.5961
X5.4647Y-6.1653
X5.4656Y-3.0244
X5.4656Y-3.3236
X5.4656Y-3.6268
X5.4656Y-3.7711
X5.4657Y-3.9161
X5.4657Y-4.0618
X5.4657Y-4.5067
X5.4657Y-7.5382
X5.4668Y-5.8661
X5.4668Y-6.0157
X5.4675Y-1.9614
X5.4675Y-2.2608
X5.4677Y-2.7055
X5.4677Y-2.8748
X5.4685Y-1.811
X5.4685Y-2.5591
X5.4921Y-8.2677
X5.4921Y-8.4173
X5.4921Y-8.563
X5.4921Y-8.7126
X5.4921Y-8.8622
X5.4921Y-9.0118
X5.4921Y-9.1535
X5.4921Y-9.3071
X5.4921Y-9.4016
X5.5024Y-7.4634
X5.5079Y-6.2402
X5.5079Y-10.1496
X5.508Y-5.9409
X5.5276Y-2.302
X5.5276Y-2.5197
X5.5337Y-6.9389
X5.5337Y-7.3483
X5.5347Y-7.3877
X5.5356Y-4.8208
X5.5356Y-5.2632
X5.537Y-5.7535
X5.5386Y-6.3906
X5.5386Y-5.7928
X5.5425Y-6.7882
X5.5512Y-7.999
X5.5512Y-8.7795
X5.5797Y-8.5236
X5.5866Y-11.1181
X5.5866Y-11.2205
X5.6006Y-2.1445
X5.6006Y-3.2114
X5.6006Y-5.1524
X5.6173Y-3.5874
X5.6173Y-5.5283
X5.622Y-8.9213
X5.6234Y-8.0394
X5.6234Y-6.0376
X5.6291Y-1.8157
X5.6291Y-2.4102
X5.6291Y-2.8827
X5.6291Y-3.4772
X5.6291Y-4.8236
X5.6291Y-5.4181
X5.6311Y-4.5815
X5.6311Y-6.6445
X5.6311Y-7.239
X5.6331Y-6.1708
X5.6378Y-7.5949
X5.6537Y-5.5727
X5.6575Y-11.1496
X5.6575Y-11.2165
X5.6585Y-2.5641
X5.6614Y-8.4047
X5.6616Y-4.9783
X5.662Y-6.3755
X5.6654Y-4.5236
X5.6654Y-4.6732
X5.6654Y-8.9252
X5.6724Y-3.3945
X5.6764Y-1.7252
X5.6764Y-1.8709
X5.6764Y-2.3276
X5.6764Y-2.7921
X5.6764Y-2.9378
X5.6764Y-4.7331
X5.6764Y-4.8787
X5.6764Y-5.3354
X5.6783Y-6.5539
X5.6783Y-6.6996
X5.6783Y-7.1563
X5.6783Y-7.8307
X5.6803Y-2.6268
X5.6862Y-5.6131
X5.689Y-10.5472
X5.6899Y-11.296
X5.6969Y-6.3504
X5.7008Y-11.6417
X5.7049Y-2.1268
X5.7049Y-3.1932
X5.7049Y-3.9722
X5.7049Y-5.1342
X5.7077Y-8.1388
X5.7331Y-4.0756
X5.7362Y-7.8878
X5.7362Y-9.875
X5.7362Y-11.3268
X5.763Y-1.922
X5.763Y-2.1425
X5.763Y-2.989
X5.763Y-3.2094
X5.763Y-4.9299
X5.763Y-5.1504
X5.765Y-6.7508
X5.765Y-6.9713
X5.7709Y-2.485
X5.7715Y-3.5475
X5.7715Y-5.4885
X5.7717Y-4.1339
X5.7734Y-7.3094
X5.7756Y-4.7244
X5.7758Y-6.2381
X5.7776Y-7.3898
X5.7776Y-7.8307
X5.7787Y-1.7331
X5.7787Y-2.8
X5.7795Y-10.8425
X5.7807Y-6.5618
X5.7835Y-4.6732
X5.8053Y-2.7154
X5.8063Y-3.6385
X5.8063Y-3.7431
X5.8063Y-3.9339
X5.8063Y-7.4535
X5.8071Y-11.1831
X5.8073Y-5.6357
X5.8091Y-7.1043
X5.815Y-11.4331
X5.8354Y-4.5812
X5.8366Y-6.814
X5.8376Y-6.4685
X5.8384Y-3.3349
X5.8583Y-7.0
X5.8583Y-7.1457
X5.8644Y-5.7893
X5.8654Y-3.9724
X5.8654Y-4.1339
X5.9124Y-5.6357
X5.9409Y-4.7244
X5.9409Y-8.0374
X5.9596Y-9.4075
X5.9596Y-11.3888
X5.9764Y-8.2677
X5.9835Y-7.3472
X5.9835Y-8.0425
X5.9882Y-1.6693
X5.9882Y-1.7756
X5.9882Y-1.9213
X5.9882Y-2.0669
X5.9882Y-2.2244
X5.9882Y-2.3701
X5.9882Y-2.5236
X5.9882Y-2.6378
X5.9882Y-2.8386
X5.9882Y-2.9843
X5.9882Y-3.1417
X5.9882Y-3.2874
X5.9882Y-3.4331
X5.9882Y-3.5866
X5.9882Y-3.7402
X5.9882Y-4.0197
X5.9882Y-4.7795
X5.9882Y-4.9291
X5.9882Y-5.0787
X5.9882Y-5.2323
X5.9882Y-5.3701
X5.9882Y-5.5315
X5.9882Y-5.6811
X5.9882Y-6.0823
X5.9882Y-6.374
X5.9882Y-6.6024
X5.9882Y-6.748
X5.9882Y-6.8976
X5.9882Y-7.0551
X5.9882Y-7.1969
X6.0Y-10.5118
X6.0217Y-1.8071
X6.0217Y-1.9547
X6.0217Y-2.2539
X6.0217Y-2.561
X6.0217Y-2.7028
X6.0217Y-2.872
X6.0217Y-3.0217
X6.0217Y-3.3248
X6.0217Y-3.6201
X6.0217Y-3.7756
X6.0217Y-3.9272
X6.0217Y-4.0689
X6.0217Y-4.2028
X6.0217Y-4.4941
X6.0217Y-4.6516
X6.0217Y-5.7185
X6.0217Y-5.8602
X6.0217Y-6.0098
X6.0217Y-6.1594
X6.0217Y-6.313
X6.0217Y-6.4626
X6.0217Y-6.6319
X6.0217Y-7.0807
X6.0217Y-8.3366
X6.0236Y-7.5315
X6.0236Y-7.5925
X6.0236Y-7.8711
X6.0551Y-2.3039
X6.0551Y-2.5118
X6.0551Y-5.7913
X6.0551Y-6.3819
X6.0551Y-7.4567
X6.0551Y-10.2047
X6.0571Y-11.2579
X6.063Y-4.6929
X6.0669Y-3.698
X6.0817Y-6.2362
X6.0817Y-6.9342
X6.0817Y-7.3436
X6.0827Y-5.937
X6.0827Y-7.383
X6.0837Y-4.8161
X6.0837Y-5.2585
X6.085Y-5.7487
X6.0856Y-2.3573
X6.0906Y-6.7835
X6.0906Y-9.1309
X6.0945Y-8.4606
X6.1299Y-11.6063
X6.1309Y-8.9843
X6.1417Y-8.374
X6.1486Y-2.1398
X6.1486Y-3.2067
X6.1486Y-5.1477
X6.1575Y-8.2559
X6.1654Y-3.5827
X6.1654Y-5.5236
X6.1714Y-6.0329
X6.1772Y-1.811
X6.1772Y-2.4055
X6.1772Y-2.878
X6.1772Y-3.4724
X6.1772Y-4.8189
X6.1772Y-5.4134
X6.1772Y-8.4882
X6.1791Y-6.6398
X6.1791Y-7.2343
X6.1811Y-6.1661
X6.2018Y-5.568
X6.2065Y-2.5594
X6.2087Y-7.2992
X6.2096Y-4.9735
X6.21Y-6.3708
X6.2205Y-3.3898
X6.2244Y-1.7205
X6.2244Y-1.8661
X6.2244Y-2.3228
X6.2244Y-2.7874
X6.2244Y-2.9331
X6.2244Y-4.7283
X6.2244Y-4.874
X6.2244Y-5.3307
X6.2264Y-6.5492
X6.2264Y-6.6949
X6.2264Y-7.1516
X6.2283Y-2.622
X6.2323Y-8.6811
X6.2323Y-8.9252
X6.2343Y-9.062
X6.2343Y-5.6084
X6.2362Y-11.4488
X6.253Y-2.122
X6.253Y-3.1885
X6.253Y-5.1294
X6.2559Y-6.9528
X6.2687Y-9.0167
X6.2687Y-9.4065
X6.2766Y-4.6901
X6.2874Y-8.2559
X6.2972Y-7.9173
X6.2992Y-8.5472
X6.3091Y-10.2618
X6.311Y-1.9173
X6.311Y-2.1378
X6.311Y-2.9843
X6.311Y-3.2047
X6.311Y-4.9252
X6.311Y-5.1457
X6.313Y-6.7461
X6.313Y-6.9665
X6.3189Y-2.4803
X6.3195Y-3.5428
X6.3195Y-5.4838
X6.3215Y-7.3046
X6.3238Y-6.2334
X6.3268Y-1.7283
X6.3268Y-2.7953
X6.3268Y-4.4252
X6.3287Y-6.5571
X6.3504Y-4.2244
X6.3504Y-10.878
X6.3533Y-2.7106
X6.3543Y-3.737
X6.3543Y-3.9291
X6.3543Y-7.4488
X6.3543Y-3.637
X6.3553Y-5.631
X6.3563Y-7.0984
X6.3583Y-4.5236
X6.3864Y-3.3302
X6.3868Y-6.8071
X6.3898Y-6.4695
X6.3898Y-8.8898
X6.4124Y-5.7846
X6.4134Y-4.0709
X6.4134Y-4.1339
X6.4134Y-4.4252
X6.4295Y-8.0453
X6.437Y-8.2677
X6.437Y-8.4134
X6.437Y-8.563
X6.4518Y-8.8868
X6.4724Y-5.7244
X6.4803Y-9.5945
X6.502Y-8.0453
X6.5354Y-1.6693
X6.5354Y-1.7677
X6.5354Y-1.9173
X6.5354Y-2.063
X6.5354Y-2.2165
X6.5354Y-2.3701
X6.5354Y-2.5157
X6.5354Y-2.6299
X6.5354Y-2.8346
X6.5354Y-2.9843
X6.5354Y-3.1339
X6.5354Y-3.2795
X6.5354Y-3.4331
X6.5354Y-3.5827
X6.5354Y-3.7323
X6.5354Y-4.0236
X6.5354Y-4.7795
X6.5354Y-4.9252
X6.5354Y-5.0748
X6.5354Y-5.2244
X6.5354Y-5.374
X6.5354Y-5.5197
X6.5354Y-5.6732
X6.5354Y-6.0807
X6.5354Y-6.3661
X6.5354Y-6.5984
X6.5354Y-6.7402
X6.5354Y-6.8937
X6.5354Y-7.0472
X6.5354Y-7.1929
X6.5354Y-7.3425
X6.5374Y-9.0748
X6.5413Y-8.9311
X6.5433Y-7.5972
X6.5433Y-7.8661
X6.5433Y-8.3307
X6.5472Y-12.0748
X6.5689Y-1.811
X6.5689Y-1.9587
X6.5689Y-2.2579
X6.5689Y-2.5531
X6.5689Y-2.7067
X6.5689Y-2.8799
X6.5689Y-3.0295
X6.5689Y-3.3248
X6.5689Y-3.624
X6.5689Y-3.7689
X6.5689Y-3.9114
X6.5689Y-4.061
X6.5689Y-4.2106
X6.5689Y-4.5059
X6.5689Y-4.6555
X6.5689Y-5.7185
X6.5689Y-5.8681
X6.5689Y-6.0177
X6.5689Y-6.1594
X6.5689Y-6.313
X6.5689Y-6.4626
X6.5689Y-6.6358
X6.5689Y-7.0886
X6.5709Y-7.5354
X6.5945Y-12.0157
X6.6024Y-2.298
X6.6024Y-2.5197
X6.6024Y-5.7953
X6.6024Y-6.3898
X6.6024Y-7.4606
X6.6309Y-5.9409
X6.6309Y-6.2393
X6.6329Y-6.9381
X6.6329Y-7.3475
X6.6339Y-7.3869
X6.6348Y-4.82
X6.6348Y-5.2624
X6.6362Y-5.7527
X6.6417Y-6.7874
X6.6417Y-8.5315
X6.6457Y-7.9537
X6.6457Y-8.3976
X6.6772Y-8.0118
X6.6998Y-2.1437
X6.6998Y-3.2107
X6.6998Y-5.1516
X6.7165Y-3.5866
X6.7165Y-5.5276
X6.7205Y-9.6545
X6.7205Y-10.5433
X6.7226Y-6.0368
X6.7283Y-1.815
X6.7283Y-2.4094
X6.7283Y-2.8819
X6.7283Y-3.4764
X6.7283Y-4.8228
X6.7283Y-5.4173
X6.7303Y-6.6437
X6.7303Y-7.2382
X6.7323Y-6.17
X6.7402Y-8.4016
X6.7402Y-8.5433
X6.753Y-5.572
X6.7577Y-2.5633
X6.7598Y-7.3031
X6.7598Y-7.9252
X6.7608Y-4.9775
X6.7612Y-6.3747
X6.7717Y-3.3937
X6.7756Y-1.7244
X6.7756Y-1.8701
X6.7756Y-2.3268
X6.7756Y-2.7913
X6.7756Y-2.937
X6.7756Y-4.7323
X6.7756Y-4.878
X6.7756Y-5.3346
X6.7756Y-10.9528
X6.7776Y-6.5531
X6.7776Y-6.6988
X6.7776Y-7.1555
X6.7795Y-2.626
X6.7835Y-8.5394
X6.7854Y-5.6123
X6.8041Y-2.126
X6.8041Y-3.1924
X6.8041Y-5.1334
X6.8071Y-6.9567
X6.8278Y-4.694
X6.8622Y-7.8967
X6.8622Y-1.9213
X6.8622Y-2.1417
X6.8622Y-2.9882
X6.8622Y-3.2087
X6.8622Y-4.9291
X6.8622Y-5.1496
X6.8642Y-6.75
X6.8642Y-6.9705
X6.8701Y-2.4843
X6.8707Y-3.5468
X6.8707Y-5.4877
X6.872Y-8.0453
X6.8726Y-7.3086
X6.875Y-6.2373
X6.876Y-8.2894
X6.876Y-8.3799
X6.876Y-8.5256
X6.876Y-8.6693
X6.878Y-1.7323
X6.878Y-2.7992
X6.878Y-4.4291
X6.8799Y-6.561
X6.8898Y-11.6772
X6.8937Y-11.1496
X6.9016Y-4.2283
X6.9045Y-2.7146
X6.9055Y-3.7398
X6.9055Y-3.9331
X6.9055Y-7.1004
X6.9055Y-7.4528
X6.9055Y-3.6409
X6.9065Y-5.6349
X6.9094Y-4.5276
X6.9331Y-8.9173
X6.9331Y-9.4646
X6.9376Y-3.3342
X6.9409Y-8.5354
X6.9528Y-6.4695
X6.9547Y-6.8091
X6.9636Y-5.7885
X6.9646Y-4.0748
X6.9646Y-4.1358
X6.9646Y-4.4291
X7.0315Y-5.7362
X7.0512Y-8.8701
X7.0783Y-9.4
X7.0827Y-8.3543
X7.0827Y-11.0157
X7.0827Y-11.6299
X7.0846Y-8.0453
X7.0906Y-1.6693
X7.0906Y-1.7756
X7.0906Y-1.9173
X7.0906Y-2.0709
X7.0906Y-2.2165
X7.0906Y-2.3661
X7.0906Y-2.5197
X7.0906Y-2.6378
X7.0906Y-2.8346
X7.0906Y-2.9843
X7.0906Y-3.1378
X7.0906Y-3.2835
X7.0906Y-3.437
X7.0906Y-3.5827
X7.0906Y-3.7362
X7.0906Y-4.0236
X7.0906Y-4.7795
X7.0906Y-4.9331
X7.0906Y-5.0827
X7.0906Y-5.2244
X7.0906Y-5.3819
X7.0906Y-5.5354
X7.0906Y-5.6772
X7.0906Y-6.0878
X7.0906Y-6.378
X7.0906Y-6.6024
X7.0906Y-6.7441
X7.0906Y-6.8976
X7.0906Y-7.0472
X7.0906Y-7.2047
X7.0906Y-7.3465
X7.1219Y-8.4764
X7.1219Y-8.8287
X7.1219Y-9.3711
X7.124Y-1.8071
X7.124Y-1.9547
X7.124Y-2.2579
X7.124Y-2.5571
X7.124Y-2.7106
X7.124Y-2.8642
X7.124Y-3.0295
X7.124Y-3.3248
X7.124Y-3.628
X7.124Y-3.776
X7.124Y-3.9154
X7.124Y-4.0531
X7.124Y-4.2106
X7.124Y-4.502
X7.124Y-4.6555
X7.124Y-5.7185
X7.124Y-5.8681
X7.124Y-6.0138
X7.124Y-6.1673
X7.124Y-6.3051
X7.124Y-6.4665
X7.124Y-6.6358
X7.124Y-7.0846
X7.126Y-7.5354
X7.126Y-7.5976
X7.127Y-7.8652
X7.1496Y-7.9803
X7.1575Y-2.3047
X7.1575Y-2.5197
X7.1575Y-5.7913
X7.1575Y-6.3898
X7.1575Y-7.4606
X7.1789Y-9.3276
X7.1841Y-6.9381
X7.1841Y-7.3475
X7.1851Y-7.3869
X7.186Y-5.9409
X7.186Y-6.2362
X7.186Y-4.82
X7.186Y-5.2624
X7.1874Y-5.7527
X7.1929Y-6.7874
X7.2165Y-8.2008
X7.2165Y-8.5276
X7.248Y-8.3268
X7.248Y-9.0748
X7.251Y-2.1437
X7.251Y-3.2107
X7.251Y-5.1516
X7.2677Y-3.5866
X7.2677Y-5.5276
X7.2738Y-6.0368
X7.2795Y-1.815
X7.2795Y-2.4094
X7.2795Y-2.8819
X7.2795Y-3.4764
X7.2795Y-4.8228
X7.2795Y-5.4173
X7.2815Y-6.6437
X7.2815Y-7.2382
X7.2835Y-6.17
X7.3041Y-5.572
X7.3089Y-2.5633
X7.3091Y-9.7008
X7.311Y-7.3031
X7.311Y-8.0118
X7.312Y-4.9775
X7.3124Y-6.3747
X7.3228Y-3.3937
X7.3268Y-1.7244
X7.3268Y-1.8701
X7.3268Y-2.3268
X7.3268Y-2.7913
X7.3268Y-2.937
X7.3268Y-4.7323
X7.3268Y-4.878
X7.3268Y-5.3346
X7.3287Y-6.5531
X7.3287Y-6.6988
X7.3287Y-7.1555
X7.3307Y-2.626
X7.3366Y-5.6123
X7.3504Y-10.3435
X7.3553Y-2.126
X7.3553Y-3.1924
X7.3553Y-5.1334
X7.3563Y-7.9134
X7.3583Y-6.9567
X7.3789Y-4.694
X7.4134Y-1.9213
X7.4134Y-2.1417
X7.4134Y-2.9882
X7.4134Y-3.2087
X7.4134Y-4.9291
X7.4134Y-5.1496
X7.4134Y-8.0089
X7.4154Y-6.75
X7.4154Y-6.9705
X7.4213Y-2.4843
X7.4219Y-3.5468
X7.4219Y-5.4877
X7.4238Y-7.3086
X7.4262Y-6.2373
X7.4291Y-1.7323
X7.4291Y-2.7992
X7.4291Y-4.4291
X7.4311Y-6.561
X7.4504Y-8.2583
X7.4528Y-4.2283
X7.4528Y-7.9134
X7.4555Y-3.6335
X7.4557Y-2.7146
X7.4567Y-3.739
X7.4567Y-3.9331
X7.4567Y-7.4528
X7.4577Y-5.6349
X7.4587Y-7.1043
X7.4606Y-4.5276
X7.4606Y-11.1496
X7.4823Y-6.8159
X7.4833Y-6.4744
X7.4888Y-3.3342
X7.497Y-7.8642
X7.498Y-9.0748
X7.4986Y-10.8793
X7.499Y-8.3455
X7.499Y-8.7854
X7.5039Y-9.3228
X7.5148Y-5.7885
X7.5157Y-4.0748
X7.5157Y-4.1358
X7.5157Y-4.4291
X7.5472Y-7.8307
X7.5512Y-11.0866
X7.5866Y-5.7402
X7.5945Y-8.874
X7.5945Y-9.3701
X7.5965Y-8.3967
X7.5974Y-8.0453
X7.5984Y-10.9144
X7.6378Y-1.6693
X7.6378Y-1.7717
X7.6378Y-1.9252
X7.6378Y-2.0748
X7.6378Y-2.2244
X7.6378Y-2.374
X7.6378Y-2.5197
X7.6378Y-2.6339
X7.6378Y-2.8425
X7.6378Y-2.9803
X7.6378Y-3.1457
X7.6378Y-3.2835
X7.6378Y-3.4409
X7.6378Y-3.5866
X7.6378Y-3.7441
X7.6378Y-4.0197
X7.6378Y-4.7874
X7.6378Y-4.9291
X7.6378Y-5.0827
X7.6378Y-5.2283
X7.6378Y-5.378
X7.6378Y-5.5276
X7.6378Y-5.6811
X7.6378Y-6.0921
X7.6378Y-6.374
X7.6378Y-6.5984
X7.6378Y-6.752
X7.6378Y-6.8937
X7.6378Y-7.0512
X7.6378Y-7.2008
X7.6378Y-7.3465
X7.6575Y-11.0157
X7.6713Y-1.815
X7.6713Y-1.9508
X7.6713Y-2.2539
X7.6713Y-2.5571
X7.6713Y-2.6988
X7.6713Y-2.876
X7.6713Y-3.0374
X7.6713Y-3.3248
X7.6713Y-3.6358
X7.6713Y-3.7783
X7.6713Y-3.9154
X7.6713Y-4.061
X7.6713Y-4.2028
X7.6713Y-4.502
X7.6713Y-4.6634
X7.6713Y-5.7146
X7.6713Y-5.8642
X7.6713Y-6.0177
X7.6713Y-6.1634
X7.6713Y-6.3169
X7.6713Y-6.4626
X7.6713Y-6.6378
X7.6713Y-7.0886
X7.6717Y-7.5972
X7.6723Y-7.5384
X7.6811Y-9.4213
X7.6959Y-8.0443
X7.7008Y-11.0512
X7.7047Y-5.7953
X7.7047Y-6.3898
X7.7047Y-9.4685
X7.7244Y-2.2972
X7.7244Y-2.5236
X7.7244Y-7.4567
X7.7313Y-7.8642
X7.7333Y-5.937
X7.7333Y-6.2402
X7.7352Y-6.9381
X7.7352Y-7.3475
X7.7362Y-7.3869
X7.7372Y-4.82
X7.7372Y-5.2624
X7.7386Y-5.7527
X7.7421Y-8.2228
X7.7441Y-6.7874
X7.748Y-9.9531
X7.752Y-10.9528
X7.7549Y-8.8839
X7.7549Y-9.2894
X7.7628Y-8.4528
X7.8022Y-2.1437
X7.8022Y-3.2107
X7.8022Y-5.1516
X7.8031Y-9.4213
X7.8031Y-10.9843
X7.8041Y-6.9764
X7.8071Y-7.8622
X7.8071Y-8.1348
X7.8081Y-8.6654
X7.8091Y-8.5551
X7.8189Y-3.5866
X7.8189Y-5.5276
X7.8248Y-9.1732
X7.825Y-6.0368
X7.8268Y-9.0748
X7.8307Y-9.6732
X7.8307Y-1.815
X7.8307Y-2.4094
X7.8307Y-2.8819
X7.8307Y-3.4764
X7.8307Y-4.8228
X7.8307Y-5.4173
X7.8307Y-9.9252
X7.8327Y-6.6437
X7.8327Y-7.2382
X7.8346Y-6.17
X7.8504Y-10.315
X7.8553Y-5.572
X7.86Y-2.5633
X7.8632Y-4.9775
X7.8636Y-6.3747
X7.874Y-3.3937
X7.878Y-1.7244
X7.878Y-1.8701
X7.878Y-2.3268
X7.878Y-2.7913
X7.878Y-2.937
X7.878Y-4.7323
X7.878Y-4.878
X7.878Y-5.3346
X7.8799Y-6.5531
X7.8799Y-6.6988
X7.8799Y-7.1555
X7.8819Y-2.626
X7.8878Y-5.6123
X7.8976Y-10.374
X7.9065Y-2.126
X7.9065Y-3.1924
X7.9065Y-5.1334
X7.9301Y-4.694
X7.9504Y-10.0287
X7.9528Y-8.2559
X7.9528Y-8.7047
X7.9528Y-10.8425
X7.9646Y-1.9213
X7.9646Y-2.1417
X7.9646Y-2.9882
X7.9646Y-3.2087
X7.9646Y-4.9291
X7.9646Y-5.1496
X7.9665Y-6.75
X7.9665Y-6.9705
X7.9724Y-2.4843
X7.9724Y-9.7224
X7.973Y-3.5468
X7.973Y-5.4877
X7.975Y-7.3086
X7.9754Y-9.4695
X7.9774Y-6.2373
X7.9803Y-1.7323
X7.9803Y-2.7992
X7.9803Y-4.4291
X7.9823Y-6.561
X7.9862Y-8.1398
X7.9961Y-10.5118
X8.0039Y-7.8307
X8.0039Y-4.2283
X8.0039Y-9.2717
X8.0069Y-2.7146
X8.0079Y-3.7465
X8.0079Y-3.9331
X8.0079Y-7.4587
X8.0079Y-3.6409
X8.0089Y-5.6349
X8.0118Y-4.5276
X8.0246Y-8.6368
X8.0246Y-8.6988
X8.0256Y-8.3799
X8.0364Y-4.3671
X8.04Y-3.3342
X8.0404Y-9.5217
X8.0472Y-9.5748
X8.0492Y-6.8219
X8.0522Y-6.4646
X8.0551Y-10.4803
X8.062Y-7.8376
X8.065Y-4.1339
X8.0659Y-5.7885
X8.0669Y-4.4291
X8.0748Y-9.2244
X8.0758Y-9.9291
X8.0827Y-4.0768
X8.0846Y-7.4006
X8.0906Y-8.2075
X8.0955Y-8.5266
X8.0955Y-8.7096
X8.1022Y-10.6764
X8.1063Y-8.0089
X8.1171Y-8.7815
X8.1206Y-9.0664
X8.122Y-9.2205
X8.1352Y-7.9419
X8.1368Y-8.3287
X8.1496Y-9.622
X8.1504Y-10.4126
X8.1663Y-9.372
X8.185Y-1.6693
X8.185Y-1.7677
X8.185Y-1.9134
X8.185Y-2.0709
X8.185Y-2.2087
X8.185Y-2.3701
X8.185Y-2.5197
X8.185Y-2.6299
X8.185Y-2.8386
X8.185Y-2.9921
X8.185Y-3.1339
X8.185Y-3.2874
X8.185Y-3.4331
X8.185Y-3.5866
X8.185Y-3.7362
X8.185Y-4.0197
X8.185Y-4.7795
X8.185Y-4.9252
X8.185Y-5.0787
X8.185Y-5.2283
X8.185Y-5.3819
X8.185Y-5.5276
X8.185Y-5.6732
X8.185Y-6.0976
X8.185Y-6.378
X8.185Y-6.5984
X8.185Y-6.7441
X8.185Y-6.8976
X8.185Y-7.0472
X8.185Y-7.1969
X8.185Y-7.3465
X8.1978Y-10.5541
X8.1988Y-9.2736
X8.2057Y-8.0443
X8.2067Y-8.3622
X8.2126Y-10.9528
X8.2126Y-11.6772
X8.2142Y-7.5961
X8.2165Y-7.5354
X8.2185Y-1.8071
X8.2185Y-1.9547
X8.2185Y-2.2539
X8.2185Y-2.5492
X8.2185Y-2.7028
X8.2185Y-2.8799
X8.2185Y-3.0295
X8.2185Y-3.3248
X8.2185Y-3.6201
X8.2185Y-3.7772
X8.2185Y-3.9154
X8.2185Y-4.0571
X8.2185Y-4.2146
X8.2185Y-4.5098
X8.2185Y-4.6555
X8.2185Y-5.7185
X8.2185Y-5.8642
X8.2185Y-6.0138
X8.2185Y-6.1638
X8.2185Y-6.313
X8.2185Y-6.4665
X8.2185Y-6.6398
X8.2185Y-7.0886
X8.2254Y-8.6535
X8.2254Y-8.7835
X8.2272Y-9.622
X8.2272Y-9.7844
X8.2272Y-9.9006
X8.2274Y-8.5344
X8.2293Y-9.4724
X8.2333Y-8.8553
X8.2431Y-8.2982
X8.252Y-2.3043
X8.252Y-2.5157
X8.252Y-5.8248
X8.252Y-6.3898
X8.252Y-7.4646
X8.2598Y-5.3789
X8.272Y-9.872
X8.2805Y-5.9409
X8.2805Y-6.2402
X8.2864Y-6.9381
X8.2864Y-7.3475
X8.2874Y-7.3869
X8.2884Y-4.82
X8.2884Y-5.2624
X8.2898Y-5.7527
X8.2953Y-6.7874
X8.3472Y-7.6295
X8.3504Y-8.2559
X8.3504Y-8.4016
X8.3533Y-2.1437
X8.3533Y-3.2107
X8.3533Y-5.1516
X8.3543Y-8.6949
X8.3661Y-9.3228
X8.3661Y-9.9646
X8.3701Y-3.5866
X8.3701Y-5.5276
X8.3711Y-8.8839
X8.3711Y-9.122
X8.3761Y-6.0368
X8.3819Y-1.815
X8.3819Y-2.4094
X8.3819Y-2.8819
X8.3819Y-3.4764
X8.3819Y-4.8228
X8.3819Y-5.4173
X8.3839Y-6.6437
X8.3839Y-7.2382
X8.3858Y-6.17
X8.3947Y-9.4213
X8.3947Y-9.8425
X8.4055Y-11.0866
X8.4055Y-11.6299
X8.4065Y-5.572
X8.4112Y-2.5633
X8.4134Y-8.997
X8.4134Y-9.1791
X8.4144Y-4.9775
X8.4148Y-6.3747
X8.4232Y-9.7205
X8.4252Y-3.3937
X8.4291Y-1.7244
X8.4291Y-1.8701
X8.4291Y-2.3268
X8.4291Y-2.7913
X8.4291Y-2.937
X8.4291Y-4.7323
X8.4291Y-4.878
X8.4291Y-5.3346
X8.4311Y-6.6988
X8.4311Y-7.1555
X8.439Y-5.6123
X8.4419Y-8.0089
X8.4518Y-9.6732
X8.4531Y-9.8134
X8.4577Y-2.126
X8.4577Y-2.5974
X8.4577Y-3.1924
X8.4577Y-5.1334
X8.4715Y-7.8376
X8.4803Y-8.4035
X8.4813Y-4.694
X8.4833Y-8.5492
X8.4843Y-9.3228
X8.4843Y-10.878
X8.4882Y-6.5177
X8.5118Y-8.8268
X8.5128Y-9.3701
X8.5128Y-10.9144
X8.5157Y-1.9213
X8.5157Y-2.1417
X8.5157Y-2.9882
X8.5157Y-3.2087
X8.5157Y-4.9291
X8.5157Y-5.1496
X8.5177Y-6.75
X8.5177Y-6.9705
X8.5236Y-2.4843
X8.5236Y-2.5984
X8.5242Y-3.5468
X8.5242Y-5.4877
X8.5256Y-9.1201
X8.5256Y-9.2815
X8.5262Y-7.3086
X8.5276Y-8.9567
X8.5285Y-6.2373
X8.5315Y-1.7323
X8.5315Y-2.7992
X8.5315Y-4.4291
X8.5335Y-6.561
X8.5413Y-9.4213
X8.5433Y-10.9843
X8.5551Y-4.2283
X8.5571Y-7.9134
X8.5581Y-2.7146
X8.5581Y-7.4547
X8.5591Y-3.739
X8.5591Y-3.9331
X8.5591Y-6.8386
X8.5591Y-7.0
X8.5591Y-3.6409
X8.56Y-5.6349
X8.563Y-4.5276
X8.5856Y-6.4744
X8.5866Y-6.8002
X8.5876Y-3.8258
X8.5911Y-3.3342
X8.6171Y-5.7885
X8.6181Y-4.4291
X8.6181Y-9.9965
X8.6467Y-4.0837
X8.6516Y-7.4144
X8.6526Y-8.3593
X8.6545Y-8.0443
X8.6555Y-7.876
X8.6752Y-5.8573
X8.6772Y-6.9528
X8.685Y-9.2244
X8.685Y-9.9291
X8.689Y-10.4449
X8.7037Y-8.0778
X8.7057Y-5.5886
X8.7075Y-8.9567
X8.7126Y-9.1732
X8.7136Y-8.4823
X8.7136Y-10.374
X8.7146Y-8.6309
X8.7156Y-8.4094
X8.7156Y-8.7805
X8.7402Y-1.7756
X8.7402Y-1.9252
X8.7402Y-2.0709
X8.7402Y-2.374
X8.7402Y-2.5236
X8.7402Y-2.6299
X8.7402Y-2.8386
X8.7402Y-2.9882
X8.7402Y-3.1417
X8.7402Y-3.2913
X8.7402Y-3.437
X8.7402Y-3.5866
X8.7402Y-3.7362
X8.7402Y-4.0315
X8.7402Y-4.7795
X8.7402Y-4.9331
X8.7402Y-5.0827
X8.7402Y-5.2283
X8.7402Y-5.3701
X8.7402Y-5.5276
X8.7402Y-5.6772
X8.7402Y-6.0858
X8.7402Y-6.3819
X8.7402Y-6.6063
X8.7402Y-6.748
X8.7402Y-6.8976
X8.7402Y-7.0512
X8.7402Y-7.1969
X8.7402Y-7.3465
X8.7411Y-8.0443
X8.7441Y-9.5236
X8.7441Y-11.1181
X8.7717Y-7.6575
X8.7736Y-2.4035
X8.7736Y-2.7067
X8.7736Y-2.8642
X8.7736Y-3.0118
X8.7736Y-3.1811
X8.7736Y-3.3228
X8.7736Y-3.4606
X8.7736Y-3.6106
X8.7736Y-4.1929
X8.7736Y-4.6555
X8.7736Y-4.9724
X8.7736Y-5.6063
X8.7736Y-5.7579
X8.7736Y-5.9547
X8.7746Y-9.4734
X8.7747Y-7.8307
X8.7769Y-3.7504
X8.7776Y-8.1378
X8.7795Y-11.1535
X8.7835Y-9.5748
X8.8031Y-4.5748
X8.8061Y-8.9961
X8.8061Y-9.1717
X8.8071Y-2.6654
X8.8071Y-3.6752
X8.812Y-9.622
X8.812Y-11.0866
X8.8307Y-3.8268
X8.8317Y-4.2717
X8.8317Y-5.0157
X8.8346Y-7.7165
X8.8386Y-2.3268
X8.8386Y-2.4803
X8.8406Y-2.815
X8.8406Y-2.9272
X8.8406Y-9.6732
X8.8425Y-3.0768
X8.8425Y-3.2283
X8.8425Y-11.0157
X8.8435Y-8.249
X8.8445Y-8.1043
X8.8602Y-4.0112
X8.8602Y-4.46
X8.8618Y-8.9559
X8.8622Y-9.2354
X8.8632Y-5.2033
X8.8642Y-8.6929
X8.8661Y-7.7461
X8.8819Y-9.3228
X8.8819Y-9.9646
X8.8927Y-8.5413
X8.8937Y-8.2274
X8.8976Y-5.2874
X8.8976Y-7.7756
X8.9163Y-10.6762
X8.9173Y-9.2244
X8.9202Y-4.7648
X8.9213Y-2.3661
X8.9213Y-2.9646
X8.9213Y-3.7126
X8.9252Y-2.7756
X8.9262Y-6.3858
X8.9272Y-9.123
X8.9311Y-4.3524
X8.9331Y-3.374
X8.9331Y-3.9016
X8.9331Y-4.5039
X8.9331Y-5.6732
X8.9331Y-4.1211
X8.9331Y-5.5197
X8.9449Y-7.9419
X8.9449Y-9.6693
X8.9449Y-10.315
X8.9449Y-11.6299
X8.9467Y-8.1683
X8.9567Y-6.3455
X8.9646Y-2.4685
X8.9646Y-2.622
X8.9685Y-3.2165
X8.9705Y-3.0669
X8.9754Y-9.0167
X8.9803Y-8.6693
X8.9902Y-6.123
X8.9902Y-6.2736
X8.9904Y-7.3287
X8.9921Y-6.4213
X8.9921Y-6.5787
X8.9921Y-6.7283
X8.9921Y-6.878
X8.9921Y-7.0315
X8.9928Y-7.1747
X8.9928Y-7.4732
X8.9928Y-7.6262
X8.9928Y-7.8422
X8.9933Y-8.0996
X8.9941Y-4.0886
X8.997Y-3.4843
X8.997Y-3.937
X8.998Y-8.4921
X9.0079Y-4.6142
X9.0079Y-4.8465
X9.0118Y-6.0118
X9.0118Y-9.7638
X9.0118Y-10.9528
X9.0276Y-8.2362
X9.0291Y-8.1264
X9.0295Y-7.6919
X9.0374Y-4.9173
X9.0482Y-6.2362
X9.0679Y-5.8573
X9.0728Y-8.8839
X9.0728Y-9.122
X9.0738Y-7.4055
X9.0748Y-3.6102
X9.0748Y-7.0984
X9.0748Y-7.248
X9.0748Y-9.6445
X9.0748Y-10.0264
X9.0748Y-8.1173
X9.0787Y-2.9252
X9.0787Y-3.2205
X9.0787Y-3.5236
X9.0787Y-4.2697
X9.0817Y-5.0157
X9.0817Y-6.3466
X9.0817Y-6.6417
X9.0984Y-9.3258
X9.1063Y-2.3228
X9.1063Y-2.4724
X9.1091Y-9.8425
X9.1093Y-4.7096
X9.1102Y-4.5039
X9.1102Y-5.2598
X9.1102Y-7.6984
X9.1102Y-9.4252
X9.1122Y-3.4705
X9.1417Y-6.5354
X9.1417Y-9.9016
X9.1427Y-6.9183
X9.1634Y-5.565
X9.1732Y-9.2717
X9.1732Y-10.5551
X9.1811Y-3.9557
X9.187Y-7.5855
X9.2156Y-8.8839
X9.2165Y-6.3091
X9.2215Y-5.9567
X9.2244Y-6.6457
X9.2244Y-7.1004
X9.2244Y-7.252
X9.2274Y-6.9006
X9.2283Y-9.1969
X9.2283Y-9.3228
X9.2283Y-9.4961
X9.2283Y-9.69
X9.2323Y-2.3346
X9.2323Y-2.4764
X9.2323Y-2.6181
X9.2323Y-2.7795
X9.2323Y-2.9291
X9.2323Y-3.0866
X9.2323Y-3.2283
X9.2323Y-3.3819
X9.2323Y-3.5276
X9.2323Y-3.6772
X9.2323Y-3.8307
X9.2323Y-4.7323
X9.2323Y-5.3858
X9.2441Y-8.0079
X9.2472Y-8.115
X9.2559Y-6.5787
X9.2559Y-7.0709
X9.2618Y-11.5925
X9.2638Y-9.6014
X9.2795Y-8.8553
X9.2844Y-7.624
X9.2854Y-9.4606
X9.3081Y-9.3748
X9.314Y-8.1988
X9.3258Y-9.0325
X9.3268Y-8.9173
X9.3573Y-7.3553
X9.3661Y-7.5898
X9.376Y-8.9675
X9.3937Y-5.3425
X9.3957Y-7.9134
X9.4232Y-6.4173
X9.4331Y-7.9799
X9.4331Y-8.1693
X9.4331Y-7.7858
X9.44Y-6.124
X9.4429Y-4.6585
X9.4488Y-10.2677
X9.4961Y-10.3465
X9.5138Y-7.0197
X9.5148Y-6.0118
X9.5167Y-5.562
X9.5748Y-5.9705
X9.5748Y-6.0551
X9.5748Y-6.2008
X9.5748Y-6.3622
X9.5748Y-6.5
X9.5748Y-6.6535
X9.5748Y-6.7874
X9.5748Y-6.9409
X9.5748Y-7.1024
X9.5748Y-7.252
X9.5748Y-7.3996
X9.5748Y-7.6988
X9.5748Y-8.0354
X9.5748Y-8.2638
X9.5748Y-8.4114
X9.5748Y-8.561
T2
X3.4646Y-9.1614
X6.3356Y-11.2451
X6.8494Y-11.2451
X6.9528Y-11.3268
X7.249Y-11.2451
X8.3425Y-11.2451
X8.7402Y-1.6654
X8.7402Y-2.2205
X9.2244Y-2.2205
X9.3209Y-11.3268
X9.3248Y-9.9104
X9.5758Y-9.1713
X9.5758Y-9.5541
T3
X1.9803Y-1.5118
X1.9803Y-12.1811
X2.008Y-1.445
X2.008Y-1.5786
X2.008Y-12.1143
X2.008Y-12.2479
X2.0748Y-1.4173
X2.0748Y-1.6063
X2.0748Y-12.0866
X2.0748Y-12.2756
X2.1416Y-1.445
X2.1416Y-1.5786
X2.1416Y-12.1143
X2.1416Y-12.2479
X2.1693Y-1.5118
X2.1693Y-12.1811
X5.7402Y-4.3976
X5.7402Y-9.1732
X5.7678Y-4.3308
X5.7678Y-4.4645
X5.7678Y-9.1064
X5.7678Y-9.24
X5.8346Y-4.3031
X5.8346Y-4.4921
X5.8346Y-9.0787
X5.8346Y-9.2677
X5.9015Y-4.3308
X5.9015Y-4.4645
X5.9015Y-9.1064
X5.9015Y-9.24
X5.9291Y-4.3976
X5.9291Y-9.1732
X9.5Y-1.5118
X9.5Y-12.1811
X9.5277Y-1.445
X9.5277Y-1.5786
X9.5277Y-12.1143
X9.5277Y-12.2479
X9.5945Y-1.4173
X9.5945Y-1.6063
X9.5945Y-12.0866
X9.5945Y-12.2756
X9.6613Y-1.445
X9.6613Y-1.5786
X9.6613Y-12.1143
X9.6613Y-12.2479
X9.689Y-1.5118
X9.689Y-12.1811
T4
X5.8425Y-8.6811
X5.9425Y-8.7811
X6.0425Y-8.6811
X9.3976Y-9.8504
X9.4976Y-9.9504
X9.5976Y-9.8504
T5
X9.0551Y-1.9094
X9.0551Y-1.9882
X9.1535Y-1.9094
X9.1535Y-1.9882
T6
X2.189Y-9.1024
X2.189Y-9.2024
X2.189Y-9.3024
X2.189Y-9.4024
X2.189Y-9.5024
X2.189Y-9.6024
X2.189Y-9.7024
X2.189Y-9.8024
X2.189Y-9.9024
X2.189Y-10.0024
X2.189Y-10.1024
X2.189Y-10.2024
X2.189Y-10.3024
X2.189Y-10.4024
X2.189Y-10.5024
X2.189Y-10.6024
X2.189Y-10.7024
X2.189Y-10.8024
X2.189Y-10.9024
X2.189Y-11.0024
X2.289Y-9.1024
X2.289Y-9.2024
X2.289Y-9.3024
X2.289Y-9.4024
X2.289Y-9.5024
X2.289Y-9.6024
X2.289Y-9.7024
X2.289Y-9.8024
X2.289Y-9.9024
X2.289Y-10.0024
X2.289Y-10.1024
X2.289Y-10.2024
X2.289Y-10.3024
X2.289Y-10.4024
X2.289Y-10.5024
X2.289Y-10.6024
X2.289Y-10.7024
X2.289Y-10.8024
X2.289Y-10.9024
X2.289Y-11.0024
X6.9764Y-8.2913
X9.312Y-5.4626
X9.312Y-5.5626
X9.312Y-5.6626
X9.312Y-5.7626
X9.312Y-5.8626
T7
X6.8504Y-10.1969
X6.9504Y-10.1969
X7.0504Y-10.1969
X7.1504Y-10.1969
X7.2504Y-10.1969
X7.3504Y-10.1969
X7.4504Y-10.1969
X7.5504Y-10.1969
X7.6504Y-10.1969
X7.7504Y-10.1969
X7.8504Y-10.1969
X7.9504Y-10.1969
X8.0504Y-10.1969
X8.1504Y-10.1969
X8.2504Y-10.1969
X8.3504Y-10.1969
T8
X6.5886Y-9.4685
X7.3759Y-9.4685
T9
X8.8673Y-1.8028
X9.3413Y-1.8028
T10
X6.6339Y-10.1969
X6.6339Y-11.4174
X9.5866Y-11.4174
X9.5866Y-10.1969
T11
X2.0748Y-1.5118
X2.0748Y-12.1811
X5.8346Y-4.3976
X5.8346Y-9.1732
X9.5945Y-1.5118
X9.5945Y-12.1811
T0
M30
